<!-- Copyright 2022–Today (c) Giovanni Tramutola. All rights reserved. -->
<svg xmlns="http://www.w3.org/2000/svg" fill="none" viewBox="0 0 776 256">
  <style>
    :root {
      --accent: #0055FF;
      --background-lower: #FFF;
      --background-higher: #EBEBEB;
      --foreground-lower: #FFF;
      --foreground-higher: #141414;
    }
  </style>
  <rect fill="var(--background-lower)" width="255" height="47" x="243.5" y="208.5" rx="2.5"/>
  <rect fill="var(--background-lower)" width="47" height="47" x=".5" y=".5" rx="2.5"/>
  <rect fill="var(--background-lower)" width="47" height="47" x="104.5" y=".5" rx="2.5"/>
  <rect fill="var(--background-lower)" width="47" height="47" x="114.5" y="156.5" rx="2.5"/>
  <rect fill="var(--background-lower)" width="47" height="47" x="130.5" y="52.5" rx="2.5"/>
  <rect fill="var(--background-lower)" width="47" height="47" x="138.5" y="104.5" rx="2.5"/>
  <rect fill="var(--background-lower)" width="47" height="47" x="156.5" y=".5" rx="2.5"/>
  <rect fill="var(--background-lower)" width="47" height="47" x="166.5" y="156.5" rx="2.5"/>
  <rect fill="var(--background-lower)" width="47" height="47" x="182.5" y="52.5" rx="2.5"/>
  <rect fill="var(--background-lower)" width="47" height="47" x="190.5" y="104.5" rx="2.5"/>
  <rect fill="var(--background-lower)" width="47" height="47" x="208.5" y=".5" rx="2.5"/>
  <rect fill="var(--background-lower)" width="47" height="47" x="218.5" y="156.5" rx="2.5"/>
  <rect fill="var(--background-lower)" width="47" height="47" x="234.5" y="52.5" rx="2.5"/>
  <rect fill="var(--background-lower)" width="47" height="47" x="242.5" y="104.5" rx="2.5"/>
  <rect fill="var(--background-lower)" width="47" height="47" x="260.5" y=".5" rx="2.5"/>
  <rect fill="var(--background-lower)" width="47" height="47" x="270.5" y="156.5" rx="2.5"/>
  <rect fill="var(--background-lower)" width="47" height="47" x="286.5" y="52.5" rx="2.5"/>
  <rect fill="var(--background-lower)" width="47" height="47" x="294.5" y="104.5" rx="2.5"/>
  <rect fill="var(--background-lower)" width="47" height="47" x="312.5" y=".5" rx="2.5"/>
  <rect fill="var(--background-lower)" width="47" height="47" x="322.5" y="156.5" rx="2.5"/>
  <rect fill="var(--background-lower)" width="47" height="47" x="338.5" y="52.5" rx="2.5"/>
  <rect fill="var(--background-lower)" width="47" height="47" x="346.5" y="104.5" rx="2.5"/>
  <rect fill="var(--background-lower)" width="47" height="47" x="364.5" y=".5" rx="2.5"/>
  <rect fill="var(--background-lower)" width="47" height="47" x="374.5" y="156.5" rx="2.5"/>
  <rect fill="var(--background-lower)" width="47" height="47" x="390.5" y="52.5" rx="2.5"/>
  <rect fill="var(--background-lower)" width="47" height="47" x="398.5" y="104.5" rx="2.5"/>
  <rect fill="var(--background-lower)" width="47" height="47" x="416.5" y=".5" rx="2.5"/>
  <rect fill="var(--background-lower)" width="47" height="47" x="426.5" y="156.5" rx="2.5"/>
  <rect fill="var(--background-lower)" width="47" height="47" x="442.5" y="52.5" rx="2.5"/>
  <rect fill="var(--background-lower)" width="47" height="47" x="450.5" y="104.5" rx="2.5"/>
  <rect fill="var(--background-lower)" width="47" height="47" x="468.5" y=".5" rx="2.5"/>
  <rect fill="var(--background-lower)" width="47" height="47" x="478.5" y="156.5" rx="2.5"/>
  <rect fill="var(--background-lower)" width="47" height="47" x="494.5" y="52.5" rx="2.5"/>
  <rect fill="var(--background-lower)" width="47" height="47" x="502.5" y="104.5" rx="2.5"/>
  <rect fill="var(--background-lower)" width="47" height="47" x="52.5" y=".5" rx="2.5"/>
  <rect fill="var(--background-lower)" width="47" height="47" x="520.5" y=".5" rx="2.5"/>
  <rect fill="var(--background-lower)" width="47" height="47" x="530.5" y="156.5" rx="2.5"/>
  <rect fill="var(--background-lower)" width="47" height="47" x="546.5" y="52.5" rx="2.5"/>
  <rect fill="var(--background-lower)" width="47" height="47" x="554.5" y="104.5" rx="2.5"/>
  <rect fill="var(--background-lower)" width="47" height="47" x="572.5" y=".5" rx="2.5"/>
  <rect fill="var(--background-lower)" width="47" height="47" x="582.5" y="156.5" rx="2.5"/>
  <rect fill="var(--background-lower)" width="47" height="47" x="598.5" y="52.5" rx="2.5"/>
  <rect fill="var(--background-lower)" width="47" height="47" x="606.5" y="104.5" rx="2.5"/>
  <rect fill="var(--background-lower)" width="47" height="47" x="624.5" y=".5" rx="2.5"/>
  <rect fill="var(--background-lower)" width="47" height="47" x="650.5" y="52.5" rx="2.5"/>
  <rect fill="var(--background-lower)" width="47" height="47" x="78.5" y="52.5" rx="2.5"/>
  <rect fill="var(--background-lower)" width="47" height="47" x="86.5" y="104.5" rx="2.5"/>
  <rect fill="var(--background-higher)" width="117" height="47" x="658.5" y="104.5" rx="2.5"/>
  <rect fill="var(--background-higher)" width="47" height="47" x="139.5" y="208.5" rx="2.5"/>
  <rect fill="var(--background-higher)" width="47" height="47" x="582.5" y="208.5" rx="2.5"/>
  <rect fill="var(--background-higher)" width="47" height="47" x="634.5" y="208.5" rx="2.5"/>
  <rect fill="var(--background-higher)" width="47" height="47" x="87.5" y="208.5" rx="2.5"/>
  <rect fill="var(--background-higher)" width="73" height="47" x=".5" y="52.5" rx="2.5"/>
  <rect fill="var(--background-higher)" width="73" height="47" x="702.5" y="52.5" rx="2.5"/>
  <rect fill="var(--background-higher)" width="81" height="47" x=".5" y="104.5" rx="2.5"/>
  <rect fill="var(--background-higher)" width="99" height="47" x="676.5" y=".5" rx="2.5"/>
  <rect fill="var(--accent)" width="109" height="47" x=".5" y="156.5" rx="2.5"/>
  <rect fill="var(--accent)" width="82" height="47" x=".5" y="208.5" rx="2.5"/>
  <rect fill="var(--accent)" width="47" height="47" x="191.5" y="208.5" rx="2.5"/>
  <rect fill="var(--accent)" width="141" height="47" x="634.5" y="156.5" rx="2.5"/>
  <rect fill="var(--accent)" width="74" height="47" x="503.5" y="208.5" rx="2.5"/>
  <rect fill="var(--accent)" width="89" height="47" x="686.5" y="208.5" rx="2.5"/>
  <rect stroke="var(--background-higher)" width="117" height="47" x="658.5" y="104.5" rx="2.5"/>
  <rect stroke="var(--background-higher)" width="255" height="47" x="243.5" y="208.5" rx="2.5"/>
  <rect stroke="var(--background-higher)" width="47" height="47" x=".5" y=".5" rx="2.5"/>
  <rect stroke="var(--background-higher)" width="47" height="47" x="104.5" y=".5" rx="2.5"/>
  <rect stroke="var(--background-higher)" width="47" height="47" x="114.5" y="156.5" rx="2.5"/>
  <rect stroke="var(--background-higher)" width="47" height="47" x="130.5" y="52.5" rx="2.5"/>
  <rect stroke="var(--background-higher)" width="47" height="47" x="138.5" y="104.5" rx="2.5"/>
  <rect stroke="var(--background-higher)" width="47" height="47" x="139.5" y="208.5" rx="2.5"/>
  <rect stroke="var(--background-higher)" width="47" height="47" x="156.5" y=".5" rx="2.5"/>
  <rect stroke="var(--background-higher)" width="47" height="47" x="166.5" y="156.5" rx="2.5"/>
  <rect stroke="var(--background-higher)" width="47" height="47" x="182.5" y="52.5" rx="2.5"/>
  <rect stroke="var(--background-higher)" width="47" height="47" x="190.5" y="104.5" rx="2.5"/>
  <rect stroke="var(--background-higher)" width="47" height="47" x="208.5" y=".5" rx="2.5"/>
  <rect stroke="var(--background-higher)" width="47" height="47" x="218.5" y="156.5" rx="2.5"/>
  <rect stroke="var(--background-higher)" width="47" height="47" x="234.5" y="52.5" rx="2.5"/>
  <rect stroke="var(--background-higher)" width="47" height="47" x="242.5" y="104.5" rx="2.5"/>
  <rect stroke="var(--background-higher)" width="47" height="47" x="260.5" y=".5" rx="2.5"/>
  <rect stroke="var(--background-higher)" width="47" height="47" x="270.5" y="156.5" rx="2.5"/>
  <rect stroke="var(--background-higher)" width="47" height="47" x="286.5" y="52.5" rx="2.5"/>
  <rect stroke="var(--background-higher)" width="47" height="47" x="294.5" y="104.5" rx="2.5"/>
  <rect stroke="var(--background-higher)" width="47" height="47" x="312.5" y=".5" rx="2.5"/>
  <rect stroke="var(--background-higher)" width="47" height="47" x="322.5" y="156.5" rx="2.5"/>
  <rect stroke="var(--background-higher)" width="47" height="47" x="338.5" y="52.5" rx="2.5"/>
  <rect stroke="var(--background-higher)" width="47" height="47" x="346.5" y="104.5" rx="2.5"/>
  <rect stroke="var(--background-higher)" width="47" height="47" x="364.5" y=".5" rx="2.5"/>
  <rect stroke="var(--background-higher)" width="47" height="47" x="374.5" y="156.5" rx="2.5"/>
  <rect stroke="var(--background-higher)" width="47" height="47" x="390.5" y="52.5" rx="2.5"/>
  <rect stroke="var(--background-higher)" width="47" height="47" x="398.5" y="104.5" rx="2.5"/>
  <rect stroke="var(--background-higher)" width="47" height="47" x="416.5" y=".5" rx="2.5"/>
  <rect stroke="var(--background-higher)" width="47" height="47" x="426.5" y="156.5" rx="2.5"/>
  <rect stroke="var(--background-higher)" width="47" height="47" x="442.5" y="52.5" rx="2.5"/>
  <rect stroke="var(--background-higher)" width="47" height="47" x="450.5" y="104.5" rx="2.5"/>
  <rect stroke="var(--background-higher)" width="47" height="47" x="468.5" y=".5" rx="2.5"/>
  <rect stroke="var(--background-higher)" width="47" height="47" x="478.5" y="156.5" rx="2.5"/>
  <rect stroke="var(--background-higher)" width="47" height="47" x="494.5" y="52.5" rx="2.5"/>
  <rect stroke="var(--background-higher)" width="47" height="47" x="502.5" y="104.5" rx="2.5"/>
  <rect stroke="var(--background-higher)" width="47" height="47" x="52.5" y=".5" rx="2.5"/>
  <rect stroke="var(--background-higher)" width="47" height="47" x="520.5" y=".5" rx="2.5"/>
  <rect stroke="var(--background-higher)" width="47" height="47" x="530.5" y="156.5" rx="2.5"/>
  <rect stroke="var(--background-higher)" width="47" height="47" x="546.5" y="52.5" rx="2.5"/>
  <rect stroke="var(--background-higher)" width="47" height="47" x="554.5" y="104.5" rx="2.5"/>
  <rect stroke="var(--background-higher)" width="47" height="47" x="572.5" y=".5" rx="2.5"/>
  <rect stroke="var(--background-higher)" width="47" height="47" x="582.5" y="156.5" rx="2.5"/>
  <rect stroke="var(--background-higher)" width="47" height="47" x="582.5" y="208.5" rx="2.5"/>
  <rect stroke="var(--background-higher)" width="47" height="47" x="598.5" y="52.5" rx="2.5"/>
  <rect stroke="var(--background-higher)" width="47" height="47" x="606.5" y="104.5" rx="2.5"/>
  <rect stroke="var(--background-higher)" width="47" height="47" x="624.5" y=".5" rx="2.5"/>
  <rect stroke="var(--background-higher)" width="47" height="47" x="634.5" y="208.5" rx="2.5"/>
  <rect stroke="var(--background-higher)" width="47" height="47" x="650.5" y="52.5" rx="2.5"/>
  <rect stroke="var(--background-higher)" width="47" height="47" x="78.5" y="52.5" rx="2.5"/>
  <rect stroke="var(--background-higher)" width="47" height="47" x="86.5" y="104.5" rx="2.5"/>
  <rect stroke="var(--background-higher)" width="47" height="47" x="87.5" y="208.5" rx="2.5"/>
  <rect stroke="var(--background-higher)" width="73" height="47" x=".5" y="52.5" rx="2.5"/>
  <rect stroke="var(--background-higher)" width="73" height="47" x="702.5" y="52.5" rx="2.5"/>
  <rect stroke="var(--background-higher)" width="81" height="47" x=".5" y="104.5" rx="2.5"/>
  <rect stroke="var(--background-higher)" width="99" height="47" x="676.5" y=".5" rx="2.5"/>
  <rect stroke="var(--accent)" width="109" height="47" x=".5" y="156.5" rx="2.5"/>
  <rect stroke="var(--accent)" width="82" height="47" x=".5" y="208.5" rx="2.5"/>
  <rect stroke="var(--accent)" width="47" height="47" x="191.5" y="208.5" rx="2.5"/>
  <rect stroke="var(--accent)" width="141" height="47" x="634.5" y="156.5" rx="2.5"/>
  <rect stroke="var(--accent)" width="74" height="47" x="503.5" y="208.5" rx="2.5"/>
  <rect stroke="var(--accent)" width="89" height="47" x="686.5" y="208.5" rx="2.5"/>
  <path fill="var(--foreground-higher)" d="m107.002 132 2.28-8.76h1.452l2.268 8.76h-1.092l-.576-2.328h-2.652l-.576 2.328h-1.104Zm1.896-3.24h2.208l-.672-2.7c-.128-.512-.228-.94-.3-1.284a16.681 16.681 0 0 1-.132-.672c-.016.104-.06.328-.132.672a31.73 31.73 0 0 1-.3 1.272l-.672 2.712Zm.708-6.48-1.38-1.68h1.2l1.32 1.68h-1.14Z"/>
  <path fill="var(--foreground-higher)" d="M151.602 80v-8.76h5.04v.984h-3.972v2.712h3.552v.972h-3.552v3.108h3.972V80h-5.04Zm1.944-9.72 1.272-1.68h1.164l-1.332 1.68h-1.104Z"/>
  <path fill="var(--foreground-higher)" d="m159.002 132 2.28-8.76h1.452l2.268 8.76h-1.092l-.576-2.328h-2.652l-.576 2.328h-1.104Zm1.896-3.24h2.208l-.672-2.7c-.128-.512-.228-.94-.3-1.284a16.681 16.681 0 0 1-.132-.672c-.016.104-.06.328-.132.672a31.73 31.73 0 0 1-.3 1.272l-.672 2.712Zm.408-6.48 1.272-1.68h1.164l-1.332 1.68h-1.104Z"/>
  <path fill="var(--foreground-higher)" d="M203.602 80v-8.76h5.04v.984h-3.972v2.712h3.552v.972h-3.552v3.108h3.972V80h-5.04Zm2.244-9.72-1.38-1.68h1.2l1.32 1.68h-1.14Z"/>
  <path fill="var(--foreground-higher)" d="M356.408 236.096c-.68 0-1.22-.152-1.62-.456-.4-.312-.632-.732-.696-1.26h1.08a.844.844 0 0 0 .384.552c.216.136.5.204.852.204h.504c.424 0 .74-.084.948-.252a.867.867 0 0 0 .312-.696c0-.544-.372-.876-1.116-.996l-.888-.144c-.648-.112-1.132-.312-1.452-.6-.312-.296-.468-.724-.468-1.284 0-.592.188-1.048.564-1.368.376-.328.94-.492 1.692-.492h.456c.632 0 1.14.148 1.524.444.384.296.616.696.696 1.2h-1.08a.768.768 0 0 0-.36-.492c-.192-.128-.452-.192-.78-.192h-.456c-.408 0-.708.076-.9.228-.184.152-.276.38-.276.684 0 .272.08.472.24.6.16.128.412.22.756.276l.888.144c.712.112 1.228.32 1.548.624.328.304.492.744.492 1.32 0 .608-.196 1.088-.588 1.44-.384.344-.968.516-1.752.516h-.504Zm4.903 2.064v-8.76h1.08v1.26h.012c.056-.432.244-.768.564-1.008.328-.248.74-.372 1.236-.372.664 0 1.192.22 1.584.66.4.432.6 1.028.6 1.788v1.932c0 .76-.2 1.36-.6 1.8-.392.44-.92.66-1.584.66-.496 0-.904-.124-1.224-.372a1.509 1.509 0 0 1-.576-1.008h-.036l.024 1.5v1.92h-1.08Zm2.532-2.976c.456 0 .812-.136 1.068-.408.264-.272.396-.664.396-1.176v-1.8c0-.512-.132-.904-.396-1.176-.256-.272-.612-.408-1.068-.408-.44 0-.792.14-1.056.42-.264.28-.396.668-.396 1.164v1.8c0 .496.132.884.396 1.164.264.28.616.42 1.056.42Zm6.583.936c-.696 0-1.244-.176-1.644-.528-.4-.36-.6-.844-.6-1.452 0-.616.2-1.1.6-1.452.4-.352.94-.528 1.62-.528h2.04v-.66c0-.4-.124-.712-.372-.936-.24-.224-.584-.336-1.032-.336-.392 0-.716.084-.972.252a.982.982 0 0 0-.468.66h-1.08c.072-.568.34-1.02.804-1.356.464-.336 1.044-.504 1.74-.504.76 0 1.36.196 1.8.588.44.392.66.924.66 1.596V236h-1.056v-1.26h-.012c-.048.424-.256.76-.624 1.008-.36.248-.828.372-1.404.372Zm.264-.852c.512 0 .932-.128 1.26-.384.328-.256.492-.584.492-.984v-.936h-2.016c-.36 0-.644.1-.852.3-.208.2-.312.472-.312.816 0 .368.124.66.372.876.256.208.608.312 1.056.312Zm7.556.852c-.8 0-1.44-.224-1.92-.672-.472-.448-.708-1.064-.708-1.848v-1.8c0-.784.236-1.4.708-1.848.48-.448 1.12-.672 1.92-.672.76 0 1.372.204 1.836.612.464.408.708.964.732 1.668h-1.08c-.024-.424-.168-.748-.432-.972-.256-.232-.608-.348-1.056-.348-.472 0-.848.136-1.128.408-.28.264-.42.644-.42 1.14v1.812c0 .496.14.88.42 1.152.28.272.656.408 1.128.408.448 0 .8-.116 1.056-.348.264-.232.408-.556.432-.972h1.08c-.024.704-.268 1.26-.732 1.668-.464.408-1.076.612-1.836.612Zm7.147 0c-.52 0-.976-.104-1.368-.312a2.258 2.258 0 0 1-.9-.876c-.208-.384-.312-.828-.312-1.332v-1.8c0-.512.104-.956.312-1.332.216-.376.516-.668.9-.876.392-.208.848-.312 1.368-.312.52 0 .972.104 1.356.312.392.208.692.5.9.876.216.376.324.82.324 1.332v1.164h-4.104v.636c0 .52.132.92.396 1.2.264.272.64.408 1.128.408.416 0 .752-.072 1.008-.216a.953.953 0 0 0 .468-.672h1.08c-.072.552-.344.992-.816 1.32-.464.32-1.044.48-1.74.48Zm-1.524-3.972h3.048v-.348c0-.52-.132-.92-.396-1.2-.256-.28-.632-.42-1.128-.42-.488 0-.864.14-1.128.42-.264.28-.396.68-.396 1.2v.348Z"/>
  <path fill="var(--foreground-higher)" d="M362.002 80.12c-.816 0-1.44-.224-1.872-.672-.432-.456-.648-1.072-.648-1.848v-6.36h1.08v6.36c0 .48.116.86.348 1.14.24.28.604.42 1.092.42.48 0 .84-.14 1.08-.42.24-.28.36-.66.36-1.14v-6.36h1.08v6.36c0 .784-.216 1.4-.648 1.848-.424.448-1.048.672-1.872.672Zm-.696-9.84 1.272-1.68h1.164l-1.332 1.68h-1.104Z"/>
  <path fill="var(--foreground-higher)" d="M414.002 80.12c-.816 0-1.44-.224-1.872-.672-.432-.456-.648-1.072-.648-1.848v-6.36h1.08v6.36c0 .48.116.86.348 1.14.24.28.604.42 1.092.42.48 0 .84-.14 1.08-.42.24-.28.36-.66.36-1.14v-6.36h1.08v6.36c0 .784-.216 1.4-.648 1.848-.424.448-1.048.672-1.872.672Zm-.396-9.84-1.38-1.68h1.2l1.32 1.68h-1.14Z"/>
  <path fill="var(--foreground-higher)" d="M463.662 80v-.984h1.788v-6.792h-1.788v-.984h4.68v.984h-1.788v6.792h1.788V80h-4.68Zm1.944-9.72-1.38-1.68h1.2l1.32 1.68h-1.14Z"/>
  <path fill="var(--foreground-higher)" d="M471.662 132v-.984h1.788v-6.792h-1.788v-.984h4.68v.984h-1.788v6.792h1.788V132h-4.68Zm1.644-9.72 1.272-1.68h1.164l-1.332 1.68h-1.104Z"/>
  <path fill="var(--foreground-higher)" d="M518.002 80.12c-.784 0-1.404-.224-1.86-.672-.456-.448-.684-1.064-.684-1.848v-3.96c0-.784.228-1.4.684-1.848.456-.448 1.076-.672 1.86-.672s1.404.224 1.86.672c.456.44.684 1.052.684 1.836V77.6c0 .784-.228 1.4-.684 1.848-.456.448-1.076.672-1.86.672Zm0-.972c.472 0 .832-.132 1.08-.396.256-.272.384-.656.384-1.152v-3.96c0-.496-.128-.876-.384-1.14-.248-.272-.608-.408-1.08-.408-.464 0-.824.136-1.08.408-.256.264-.384.644-.384 1.14v3.96c0 .496.128.88.384 1.152.256.264.616.396 1.08.396Zm-.396-8.868-1.38-1.68h1.2l1.32 1.68h-1.14Z"/>
  <path fill="var(--foreground-higher)" d="M570.002 80.12c-.784 0-1.404-.224-1.86-.672-.456-.448-.684-1.064-.684-1.848v-3.96c0-.784.228-1.4.684-1.848.456-.448 1.076-.672 1.86-.672s1.404.224 1.86.672c.456.44.684 1.052.684 1.836V77.6c0 .784-.228 1.4-.684 1.848-.456.448-1.076.672-1.86.672Zm0-.972c.472 0 .832-.132 1.08-.396.256-.272.384-.656.384-1.152v-3.96c0-.496-.128-.876-.384-1.14-.248-.272-.608-.408-1.08-.408-.464 0-.824.136-1.08.408-.256.264-.384.644-.384 1.14v3.96c0 .496.128.88.384 1.152.256.264.616.396 1.08.396Zm-.696-8.868 1.272-1.68h1.164l-1.332 1.68h-1.104Z"/>
  <path fill="var(--foreground-higher)" id="tab" d="M30.527 80c-.568 0-1.012-.152-1.332-.456-.312-.304-.468-.732-.468-1.284v-3.876h-1.86V73.4h1.86v-1.86h1.08v1.86h2.64v.984h-2.64v3.876c0 .504.24.756.72.756h1.8V80h-1.8Zm5.9.12c-.697 0-1.245-.176-1.645-.528-.4-.36-.6-.844-.6-1.452 0-.616.2-1.1.6-1.452.4-.352.94-.528 1.62-.528h2.04v-.66c0-.4-.124-.712-.372-.936-.24-.224-.584-.336-1.032-.336-.392 0-.716.084-.972.252a.982.982 0 0 0-.468.66h-1.08c.072-.568.34-1.02.804-1.356.464-.336 1.044-.504 1.74-.504.76 0 1.36.196 1.8.588.44.392.66.924.66 1.596V80h-1.056v-1.26h-.012c-.048.424-.256.76-.624 1.008-.36.248-.828.372-1.404.372Zm.263-.852c.512 0 .932-.128 1.26-.384.328-.256.492-.584.492-.984v-.936h-2.016c-.36 0-.644.1-.852.3-.208.2-.312.472-.312.816 0 .368.124.66.372.876.256.208.608.312 1.056.312Zm7.892.852c-.496 0-.904-.12-1.224-.36-.32-.248-.508-.588-.564-1.02h-.012V80h-1.08v-8.76h1.08v1.92l-.024 1.5h.036c.056-.424.244-.76.564-1.008.32-.248.728-.372 1.224-.372.664 0 1.196.22 1.596.66.4.44.6 1.04.6 1.8v1.932c0 .752-.2 1.348-.6 1.788-.4.44-.932.66-1.596.66Zm-.36-.936c.456 0 .816-.136 1.08-.408.264-.272.396-.664.396-1.176v-1.8c0-.512-.132-.904-.396-1.176-.264-.272-.624-.408-1.08-.408-.44 0-.792.14-1.056.42-.256.28-.384.668-.384 1.164v1.8c0 .496.128.884.384 1.164.264.28.616.42 1.056.42Z"/>
  <path fill="var(--foreground-higher)" id="caps" d="M30.257 132.12c-.8 0-1.44-.224-1.92-.672-.472-.448-.708-1.064-.708-1.848v-1.8c0-.784.236-1.4.708-1.848.48-.448 1.12-.672 1.92-.672.76 0 1.372.204 1.836.612.464.408.708.964.732 1.668h-1.08c-.024-.424-.168-.748-.432-.972-.256-.232-.608-.348-1.056-.348-.472 0-.848.136-1.128.408-.28.264-.42.644-.42 1.14v1.812c0 .496.14.88.42 1.152.28.272.656.408 1.128.408.448 0 .8-.116 1.056-.348.264-.232.408-.556.432-.972h1.08c-.024.704-.268 1.26-.732 1.668-.464.408-1.076.612-1.836.612Zm6.572 0c-.696 0-1.244-.176-1.644-.528-.4-.36-.6-.844-.6-1.452 0-.616.2-1.1.6-1.452.4-.352.94-.528 1.62-.528h2.04v-.66c0-.4-.124-.712-.372-.936-.24-.224-.584-.336-1.032-.336-.392 0-.716.084-.972.252a.982.982 0 0 0-.468.66h-1.08c.072-.568.34-1.02.804-1.356.464-.336 1.044-.504 1.74-.504.76 0 1.36.196 1.8.588.44.392.66.924.66 1.596V132h-1.056v-1.26h-.012c-.048.424-.256.76-.624 1.008-.36.248-.828.372-1.404.372Zm.264-.852c.512 0 .932-.128 1.26-.384.328-.256.492-.584.492-.984v-.936h-2.016c-.36 0-.644.1-.852.3-.208.2-.312.472-.312.816 0 .368.124.66.372.876.256.208.608.312 1.056.312Zm5.011 2.892v-8.76h1.08v1.26h.012c.056-.432.244-.768.564-1.008.328-.248.74-.372 1.236-.372.664 0 1.192.22 1.584.66.4.432.6 1.028.6 1.788v1.932c0 .76-.2 1.36-.6 1.8-.392.44-.92.66-1.584.66-.496 0-.904-.124-1.224-.372a1.509 1.509 0 0 1-.576-1.008h-.036l.024 1.5v1.92h-1.08Zm2.532-2.976c.456 0 .812-.136 1.068-.408.264-.272.396-.664.396-1.176v-1.8c0-.512-.132-.904-.396-1.176-.256-.272-.612-.408-1.068-.408-.44 0-.792.14-1.056.42-.264.28-.396.668-.396 1.164v1.8c0 .496.132.884.396 1.164.264.28.616.42 1.056.42Zm6.955.912c-.68 0-1.22-.152-1.62-.456-.4-.312-.632-.732-.696-1.26h1.08a.844.844 0 0 0 .384.552c.216.136.5.204.852.204h.504c.424 0 .74-.084.948-.252a.867.867 0 0 0 .312-.696c0-.544-.372-.876-1.116-.996l-.888-.144c-.648-.112-1.132-.312-1.452-.6-.312-.296-.468-.724-.468-1.284 0-.592.188-1.048.564-1.368.376-.328.94-.492 1.692-.492h.456c.632 0 1.14.148 1.524.444.384.296.616.696.696 1.2h-1.08a.768.768 0 0 0-.36-.492c-.192-.128-.452-.192-.78-.192h-.456c-.408 0-.708.076-.9.228-.184.152-.276.38-.276.684 0 .272.08.472.24.6.16.128.412.22.756.276l.888.144c.712.112 1.228.32 1.548.624.328.304.492.744.492 1.32 0 .608-.196 1.088-.588 1.44-.384.344-.968.516-1.752.516h-.504Z"/>
  <path fill="var(--foreground-lower)" id="shift-sx" d="M40.408 184.096c-.68 0-1.22-.152-1.62-.456-.4-.312-.632-.732-.696-1.26h1.08a.844.844 0 0 0 .384.552c.216.136.5.204.852.204h.504c.424 0 .74-.084.948-.252a.867.867 0 0 0 .312-.696c0-.544-.372-.876-1.116-.996l-.888-.144c-.648-.112-1.132-.312-1.452-.6-.312-.296-.468-.724-.468-1.284 0-.592.188-1.048.564-1.368.376-.328.94-.492 1.692-.492h.456c.632 0 1.14.148 1.524.444.384.296.616.696.696 1.2H42.1a.768.768 0 0 0-.36-.492c-.192-.128-.452-.192-.78-.192h-.456c-.408 0-.708.076-.9.228-.184.152-.276.38-.276.684 0 .272.08.472.24.6.16.128.412.22.756.276l.888.144c.712.112 1.228.32 1.548.624.328.304.492.744.492 1.32 0 .608-.196 1.088-.588 1.44-.384.344-.968.516-1.752.516h-.504ZM45.31 184v-8.76h1.08v3.42h.012c.056-.44.236-.78.54-1.02.304-.24.708-.36 1.212-.36.664 0 1.192.204 1.584.612.392.408.588.964.588 1.668V184h-1.08v-4.32c0-.472-.128-.836-.384-1.092-.248-.264-.588-.396-1.02-.396-.448 0-.804.14-1.068.42-.256.28-.384.676-.384 1.188v4.2h-1.08Zm7.111 0v-.984h2.34v-4.632h-2.04v-.984h3.12v5.616h2.22V184h-5.64Zm2.76-7.788c-.264 0-.472-.068-.624-.204a.704.704 0 0 1-.228-.552c0-.24.076-.428.228-.564.152-.144.36-.216.624-.216s.472.072.624.216c.152.136.228.324.228.564a.704.704 0 0 1-.228.552c-.152.136-.36.204-.624.204ZM61.238 184v-4.956h-1.92v-.984h1.92v-1.14c0-.52.164-.928.492-1.224.328-.304.78-.456 1.356-.456h1.932v.984h-1.932c-.512 0-.768.232-.768.696v1.14h2.7v.984h-2.7V184h-1.08Zm8.875 0c-.568 0-1.012-.152-1.332-.456-.312-.304-.468-.732-.468-1.284v-3.876h-1.86v-.984h1.86v-1.86h1.08v1.86h2.64v.984h-2.64v3.876c0 .504.24.756.72.756h1.8V184h-1.8Z"/>
  <path fill="var(--foreground-lower)" id="control-sx" d="M19.964 236.12c-.8 0-1.44-.224-1.92-.672-.472-.448-.708-1.064-.708-1.848v-1.8c0-.784.236-1.4.708-1.848.48-.448 1.12-.672 1.92-.672.76 0 1.372.204 1.836.612.464.408.708.964.732 1.668h-1.08c-.024-.424-.168-.748-.432-.972-.256-.232-.608-.348-1.056-.348-.472 0-.848.136-1.128.408-.28.264-.42.644-.42 1.14v1.812c0 .496.14.88.42 1.152.28.272.656.408 1.128.408.448 0 .8-.116 1.056-.348.264-.232.408-.556.432-.972h1.08c-.024.704-.268 1.26-.732 1.668-.464.408-1.076.612-1.836.612Zm7.148-.024c-.8 0-1.432-.224-1.896-.672-.456-.456-.684-1.072-.684-1.848v-1.752c0-.784.228-1.4.684-1.848.464-.448 1.096-.672 1.896-.672.8 0 1.428.224 1.884.672.464.448.696 1.06.696 1.836v1.764c0 .776-.232 1.392-.696 1.848-.456.448-1.084.672-1.884.672Zm0-.96c.472 0 .84-.132 1.104-.396.264-.264.396-.652.396-1.164v-1.752c0-.512-.132-.9-.396-1.164-.264-.264-.632-.396-1.104-.396-.464 0-.832.132-1.104.396-.264.264-.396.652-.396 1.164v1.752c0 .512.132.9.396 1.164.272.264.64.396 1.104.396Zm4.699.864v-6.6h1.08v1.26h.012c.056-.44.236-.78.54-1.02.304-.24.708-.36 1.212-.36.664 0 1.192.204 1.584.612.392.408.588.964.588 1.668V236h-1.08v-4.32c0-.472-.128-.832-.384-1.08-.248-.256-.588-.384-1.02-.384-.448 0-.804.136-1.068.408-.256.272-.384.664-.384 1.176v4.2h-1.08Zm10.411 0c-.568 0-1.012-.152-1.332-.456-.312-.304-.468-.732-.468-1.284v-3.876h-1.86v-.984h1.86v-1.86h1.08v1.86h2.64v.984h-2.64v3.876c0 .504.24.756.72.756h1.8V236h-1.8Zm4.208 0v-6.6h1.056v1.176c.216-.864.796-1.296 1.74-1.296.696 0 1.248.22 1.656.66.416.432.624 1.02.624 1.764v.396h-1.08v-.3c0-.52-.128-.916-.384-1.188-.248-.28-.604-.42-1.068-.42-.456 0-.816.14-1.08.42-.256.28-.384.676-.384 1.188v4.2h-1.08Zm9.463.096c-.8 0-1.432-.224-1.896-.672-.456-.456-.684-1.072-.684-1.848v-1.752c0-.784.228-1.4.684-1.848.464-.448 1.096-.672 1.896-.672.8 0 1.428.224 1.884.672.464.448.696 1.06.696 1.836v1.764c0 .776-.232 1.392-.696 1.848-.456.448-1.084.672-1.884.672Zm0-.96c.472 0 .84-.132 1.104-.396.264-.264.396-.652.396-1.164v-1.752c0-.512-.132-.9-.396-1.164-.264-.264-.632-.396-1.104-.396-.464 0-.832.132-1.104.396-.264.264-.396.652-.396 1.164v1.752c0 .512.132.9.396 1.164.272.264.64.396 1.104.396Zm8.155.864c-.584 0-1.052-.168-1.404-.504-.344-.344-.516-.796-.516-1.356v-5.916h-2.28v-.984h3.36v6.9c0 .272.076.488.228.648.152.152.356.228.612.228h2.04V236h-2.04Z"/>
  <path fill="var(--foreground-higher)" id="fn-sx" d="M106.445 236v-4.956h-1.92v-.984h1.92v-1.14c0-.52.164-.928.492-1.224.328-.304.78-.456 1.356-.456h1.932v.984h-1.932c-.512 0-.768.232-.768.696v1.14h2.7v.984h-2.7V236h-1.08Zm5.659 0v-6.6h1.08v1.26h.012c.056-.44.236-.78.54-1.02.304-.24.708-.36 1.212-.36.664 0 1.192.204 1.584.612.392.408.588.964.588 1.668V236h-1.08v-4.32c0-.472-.128-.832-.384-1.08-.248-.256-.588-.384-1.02-.384-.448 0-.804.136-1.068.408-.256.272-.384.664-.384 1.176v4.2h-1.08Z"/>
  <path fill="var(--foreground-higher)" id="os-sx" d="M159.405 236.096c-.8 0-1.432-.224-1.896-.672-.456-.456-.684-1.072-.684-1.848v-1.752c0-.784.228-1.4.684-1.848.464-.448 1.096-.672 1.896-.672.8 0 1.428.224 1.884.672.464.448.696 1.06.696 1.836v1.764c0 .776-.232 1.392-.696 1.848-.456.448-1.084.672-1.884.672Zm0-.96c.472 0 .84-.132 1.104-.396.264-.264.396-.652.396-1.164v-1.752c0-.512-.132-.9-.396-1.164-.264-.264-.632-.396-1.104-.396-.464 0-.832.132-1.104.396-.264.264-.396.652-.396 1.164v1.752c0 .512.132.9.396 1.164.272.264.64.396 1.104.396Zm6.991.96c-.68 0-1.22-.152-1.62-.456-.4-.312-.632-.732-.696-1.26h1.08a.844.844 0 0 0 .384.552c.216.136.5.204.852.204h.504c.424 0 .74-.084.948-.252a.867.867 0 0 0 .312-.696c0-.544-.372-.876-1.116-.996l-.888-.144c-.648-.112-1.132-.312-1.452-.6-.312-.296-.468-.724-.468-1.284 0-.592.188-1.048.564-1.368.376-.328.94-.492 1.692-.492h.456c.632 0 1.14.148 1.524.444.384.296.616.696.696 1.2h-1.08a.768.768 0 0 0-.36-.492c-.192-.128-.452-.192-.78-.192h-.456c-.408 0-.708.076-.9.228-.184.152-.276.38-.276.684 0 .272.08.472.24.6.16.128.412.22.756.276l.888.144c.712.112 1.228.32 1.548.624.328.304.492.744.492 1.32 0 .608-.196 1.088-.588 1.44-.384.344-.968.516-1.752.516h-.504Z"/>
  <path fill="var(--foreground-lower)" id="alt-sx" d="M207.231 236.12c-.696 0-1.244-.176-1.644-.528-.4-.36-.6-.844-.6-1.452 0-.616.2-1.1.6-1.452.4-.352.94-.528 1.62-.528h2.04v-.66c0-.4-.124-.712-.372-.936-.24-.224-.584-.336-1.032-.336-.392 0-.716.084-.972.252a.982.982 0 0 0-.468.66h-1.08c.072-.568.34-1.02.804-1.356.464-.336 1.044-.504 1.74-.504.76 0 1.36.196 1.8.588.44.392.66.924.66 1.596V236h-1.056v-1.26h-.012c-.048.424-.256.76-.624 1.008-.36.248-.828.372-1.404.372Zm.264-.852c.512 0 .932-.128 1.26-.384.328-.256.492-.584.492-.984v-.936h-2.016c-.36 0-.644.1-.852.3-.208.2-.312.472-.312.816 0 .368.124.66.372.876.256.208.608.312 1.056.312Zm8.467.732c-.584 0-1.052-.168-1.404-.504-.344-.344-.516-.796-.516-1.356v-5.916h-2.28v-.984h3.36v6.9c0 .272.076.488.228.648.152.152.356.228.612.228h2.04V236h-2.04Zm6.956 0c-.568 0-1.012-.152-1.332-.456-.312-.304-.468-.732-.468-1.284v-3.876h-1.86v-.984h1.86v-1.86h1.08v1.86h2.64v.984h-2.64v3.876c0 .504.24.756.72.756h1.8V236h-1.8Z"/>
  <path fill="var(--foreground-higher)" id="backspace" d="M697.605 28.12c-.496 0-.904-.12-1.224-.36-.32-.248-.508-.588-.564-1.02h-.012V28h-1.08v-8.76h1.08v1.92l-.024 1.5h.036c.056-.424.244-.76.564-1.008.32-.248.728-.372 1.224-.372.664 0 1.196.22 1.596.66.4.44.6 1.04.6 1.8v1.932c0 .752-.2 1.348-.6 1.788-.4.44-.932.66-1.596.66Zm-.36-.936c.456 0 .816-.136 1.08-.408.264-.272.396-.664.396-1.176v-1.8c0-.512-.132-.904-.396-1.176-.264-.272-.624-.408-1.08-.408-.44 0-.792.14-1.056.42-.256.28-.384.668-.384 1.164v1.8c0 .496.128.884.384 1.164.264.28.616.42 1.056.42Zm6.595.936c-.696 0-1.244-.176-1.644-.528-.4-.36-.6-.844-.6-1.452 0-.616.2-1.1.6-1.452.4-.352.94-.528 1.62-.528h2.04v-.66c0-.4-.124-.712-.372-.936-.24-.224-.584-.336-1.032-.336-.392 0-.716.084-.972.252a.982.982 0 0 0-.468.66h-1.08c.072-.568.34-1.02.804-1.356.464-.336 1.044-.504 1.74-.504.76 0 1.36.196 1.8.588.44.392.66.924.66 1.596V28h-1.056v-1.26h-.012c-.048.424-.256.76-.624 1.008-.36.248-.828.372-1.404.372Zm.264-.852c.512 0 .932-.128 1.26-.384.328-.256.492-.584.492-.984v-.936h-2.016c-.36 0-.644.1-.852.3-.208.2-.312.472-.312.816 0 .368.124.66.372.876.256.208.608.312 1.056.312Zm7.556.852c-.8 0-1.44-.224-1.92-.672-.472-.448-.708-1.064-.708-1.848v-1.8c0-.784.236-1.4.708-1.848.48-.448 1.12-.672 1.92-.672.76 0 1.372.204 1.836.612.464.408.708.964.732 1.668h-1.08c-.024-.424-.168-.748-.432-.972-.256-.232-.608-.348-1.056-.348-.472 0-.848.136-1.128.408-.28.264-.42.644-.42 1.14V25.6c0 .496.14.88.42 1.152.28.272.656.408 1.128.408.448 0 .8-.116 1.056-.348.264-.232.408-.556.432-.972h1.08c-.024.704-.268 1.26-.732 1.668-.464.408-1.076.612-1.836.612Zm4.687-.12v-8.76h1.08v4.884h1.272l1.92-2.724h1.236l-2.22 3.144L721.891 28h-1.26l-1.92-2.94h-1.284V28h-1.08Zm9.451.096c-.68 0-1.22-.152-1.62-.456-.4-.312-.632-.732-.696-1.26h1.08a.844.844 0 0 0 .384.552c.216.136.5.204.852.204h.504c.424 0 .74-.084.948-.252a.867.867 0 0 0 .312-.696c0-.544-.372-.876-1.116-.996l-.888-.144c-.648-.112-1.132-.312-1.452-.6-.312-.296-.468-.724-.468-1.284 0-.592.188-1.048.564-1.368.376-.328.94-.492 1.692-.492h.456c.632 0 1.14.148 1.524.444.384.296.616.696.696 1.2h-1.08a.768.768 0 0 0-.36-.492c-.192-.128-.452-.192-.78-.192h-.456c-.408 0-.708.076-.9.228-.184.152-.276.38-.276.684 0 .272.08.472.24.6.16.128.412.22.756.276l.888.144c.712.112 1.228.32 1.548.624.328.304.492.744.492 1.32 0 .608-.196 1.088-.588 1.44-.384.344-.968.516-1.752.516h-.504Zm4.904 2.064V21.4h1.08v1.26h.012c.056-.432.244-.768.564-1.008.328-.248.74-.372 1.236-.372.664 0 1.192.22 1.584.66.4.432.6 1.028.6 1.788v1.932c0 .76-.2 1.36-.6 1.8-.392.44-.92.66-1.584.66-.496 0-.904-.124-1.224-.372a1.509 1.509 0 0 1-.576-1.008h-.036l.024 1.5v1.92h-1.08Zm2.532-2.976c.456 0 .812-.136 1.068-.408.264-.272.396-.664.396-1.176v-1.8c0-.512-.132-.904-.396-1.176-.256-.272-.612-.408-1.068-.408-.44 0-.792.14-1.056.42-.264.28-.396.668-.396 1.164v1.8c0 .496.132.884.396 1.164.264.28.616.42 1.056.42Zm6.583.936c-.696 0-1.244-.176-1.644-.528-.4-.36-.6-.844-.6-1.452 0-.616.2-1.1.6-1.452.4-.352.94-.528 1.62-.528h2.04v-.66c0-.4-.124-.712-.372-.936-.24-.224-.584-.336-1.032-.336-.392 0-.716.084-.972.252a.982.982 0 0 0-.468.66h-1.08c.072-.568.34-1.02.804-1.356.464-.336 1.044-.504 1.74-.504.76 0 1.36.196 1.8.588.44.392.66.924.66 1.596V28h-1.056v-1.26h-.012c-.048.424-.256.76-.624 1.008-.36.248-.828.372-1.404.372Zm.264-.852c.512 0 .932-.128 1.26-.384.328-.256.492-.584.492-.984v-.936h-2.016c-.36 0-.644.1-.852.3-.208.2-.312.472-.312.816 0 .368.124.66.372.876.256.208.608.312 1.056.312Zm7.555.852c-.8 0-1.44-.224-1.92-.672-.472-.448-.708-1.064-.708-1.848v-1.8c0-.784.236-1.4.708-1.848.48-.448 1.12-.672 1.92-.672.76 0 1.372.204 1.836.612.464.408.708.964.732 1.668h-1.08c-.024-.424-.168-.748-.432-.972-.256-.232-.608-.348-1.056-.348-.472 0-.848.136-1.128.408-.28.264-.42.644-.42 1.14V25.6c0 .496.14.88.42 1.152.28.272.656.408 1.128.408.448 0 .8-.116 1.056-.348.264-.232.408-.556.432-.972h1.08c-.024.704-.268 1.26-.732 1.668-.464.408-1.076.612-1.836.612Zm7.148 0c-.52 0-.976-.104-1.368-.312a2.258 2.258 0 0 1-.9-.876c-.208-.384-.312-.828-.312-1.332v-1.8c0-.512.104-.956.312-1.332.216-.376.516-.668.9-.876.392-.208.848-.312 1.368-.312.52 0 .972.104 1.356.312.392.208.692.5.9.876.216.376.324.82.324 1.332v1.164h-4.104v.636c0 .52.132.92.396 1.2.264.272.64.408 1.128.408.416 0 .752-.072 1.008-.216a.953.953 0 0 0 .468-.672h1.08c-.072.552-.344.992-.816 1.32-.464.32-1.044.48-1.74.48Zm-1.524-3.972h3.048V23.8c0-.52-.132-.92-.396-1.2-.256-.28-.632-.42-1.128-.42-.488 0-.864.14-1.128.42-.264.28-.396.68-.396 1.2v.348Z"/>
  <path fill="var(--foreground-higher)" id="Ø" d="m735.822 80.48.912-1.608c-.184-.36-.276-.784-.276-1.272v-3.96c0-.784.228-1.4.684-1.848.456-.448 1.076-.672 1.86-.672.736 0 1.328.196 1.776.588l.396-.708h1.008l-.84 1.5c.136.328.204.704.204 1.128V77.6c0 .784-.228 1.4-.684 1.848-.456.448-1.076.672-1.86.672-.68 0-1.24-.172-1.68-.516l-.492.876h-1.008Zm1.716-6.84v3.804l2.688-4.764c-.248-.392-.656-.588-1.224-.588-.464 0-.824.136-1.08.408-.256.264-.384.644-.384 1.14Zm1.464 5.508c.472 0 .832-.132 1.08-.396.256-.272.384-.656.384-1.152v-3.564l-2.616 4.632c.256.32.64.48 1.152.48Z"/>
  <path fill="var(--foreground-higher)" id="return" d="M696.746 132v-6.6h1.056v1.176c.216-.864.796-1.296 1.74-1.296.696 0 1.248.22 1.656.66.416.432.624 1.02.624 1.764v.396h-1.08v-.3c0-.52-.128-.916-.384-1.188-.248-.28-.604-.42-1.068-.42-.456 0-.816.14-1.08.42-.256.28-.384.676-.384 1.188v4.2h-1.08Zm9.463.12c-.52 0-.976-.104-1.368-.312a2.258 2.258 0 0 1-.9-.876c-.208-.384-.312-.828-.312-1.332v-1.8c0-.512.104-.956.312-1.332.216-.376.516-.668.9-.876.392-.208.848-.312 1.368-.312.52 0 .972.104 1.356.312.392.208.692.5.9.876.216.376.324.82.324 1.332v1.164h-4.104v.636c0 .52.132.92.396 1.2.264.272.64.408 1.128.408.416 0 .752-.072 1.008-.216a.953.953 0 0 0 .468-.672h1.08c-.072.552-.344.992-.816 1.32-.464.32-1.044.48-1.74.48Zm-1.524-3.972h3.048v-.348c0-.52-.132-.92-.396-1.2-.256-.28-.632-.42-1.128-.42-.488 0-.864.14-1.128.42-.264.28-.396.68-.396 1.2v.348Zm9.44 3.852c-.568 0-1.012-.152-1.332-.456-.312-.304-.468-.732-.468-1.284v-3.876h-1.86v-.984h1.86v-1.86h1.08v1.86h2.64v.984h-2.64v3.876c0 .504.24.756.72.756h1.8V132h-1.8Zm6.463.12c-.76 0-1.368-.224-1.824-.672-.456-.456-.684-1.072-.684-1.848v-4.2h1.08v4.2c0 .496.128.884.384 1.164.256.272.604.408 1.044.408.448 0 .8-.136 1.056-.408.264-.28.396-.668.396-1.164v-4.2h1.08v4.2c0 .776-.232 1.392-.696 1.848-.464.448-1.076.672-1.836.672Zm4.939-.12v-6.6h1.056v1.176c.216-.864.796-1.296 1.74-1.296.696 0 1.248.22 1.656.66.416.432.624 1.02.624 1.764v.396h-1.08v-.3c0-.52-.128-.916-.384-1.188-.248-.28-.604-.42-1.068-.42-.456 0-.816.14-1.08.42-.256.28-.384.676-.384 1.188v4.2h-1.08Zm6.968 0v-6.6h1.08v1.26h.012c.056-.44.236-.78.54-1.02.304-.24.708-.36 1.212-.36.664 0 1.192.204 1.584.612.392.408.588.964.588 1.668V132h-1.08v-4.32c0-.472-.128-.832-.384-1.08-.248-.256-.588-.384-1.02-.384-.448 0-.804.136-1.068.408-.256.272-.384.664-.384 1.176v4.2h-1.08Z"/>
  <path fill="var(--foreground-lower)" id="shift-dx" d="M690.408 184.096c-.68 0-1.22-.152-1.62-.456-.4-.312-.632-.732-.696-1.26h1.08a.844.844 0 0 0 .384.552c.216.136.5.204.852.204h.504c.424 0 .74-.084.948-.252a.867.867 0 0 0 .312-.696c0-.544-.372-.876-1.116-.996l-.888-.144c-.648-.112-1.132-.312-1.452-.6-.312-.296-.468-.724-.468-1.284 0-.592.188-1.048.564-1.368.376-.328.94-.492 1.692-.492h.456c.632 0 1.14.148 1.524.444.384.296.616.696.696 1.2h-1.08a.768.768 0 0 0-.36-.492c-.192-.128-.452-.192-.78-.192h-.456c-.408 0-.708.076-.9.228-.184.152-.276.38-.276.684 0 .272.08.472.24.6.16.128.412.22.756.276l.888.144c.712.112 1.228.32 1.548.624.328.304.492.744.492 1.32 0 .608-.196 1.088-.588 1.44-.384.344-.968.516-1.752.516h-.504Zm4.903-.096v-8.76h1.08v3.42h.012c.056-.44.236-.78.54-1.02.304-.24.708-.36 1.212-.36.664 0 1.192.204 1.584.612.392.408.588.964.588 1.668V184h-1.08v-4.32c0-.472-.128-.836-.384-1.092-.248-.264-.588-.396-1.02-.396-.448 0-.804.14-1.068.42-.256.28-.384.676-.384 1.188v4.2h-1.08Zm7.111 0v-.984h2.34v-4.632h-2.04v-.984h3.12v5.616h2.22V184h-5.64Zm2.76-7.788c-.264 0-.472-.068-.624-.204a.704.704 0 0 1-.228-.552c0-.24.076-.428.228-.564.152-.144.36-.216.624-.216s.472.072.624.216c.152.136.228.324.228.564a.704.704 0 0 1-.228.552c-.152.136-.36.204-.624.204Zm6.056 7.788v-4.956h-1.92v-.984h1.92v-1.14c0-.52.164-.928.492-1.224.328-.304.78-.456 1.356-.456h1.932v.984h-1.932c-.512 0-.768.232-.768.696v1.14h2.7v.984h-2.7V184h-1.08Zm8.875 0c-.568 0-1.012-.152-1.332-.456-.312-.304-.468-.732-.468-1.284v-3.876h-1.86v-.984h1.86v-1.86h1.08v1.86h2.64v.984h-2.64v3.876c0 .504.24.756.72.756h1.8V184h-1.8Z"/>
  <path fill="var(--foreground-lower)" id="alt-dx" d="M532.731 236.12c-.696 0-1.244-.176-1.644-.528-.4-.36-.6-.844-.6-1.452 0-.616.2-1.1.6-1.452.4-.352.94-.528 1.62-.528h2.04v-.66c0-.4-.124-.712-.372-.936-.24-.224-.584-.336-1.032-.336-.392 0-.716.084-.972.252a.982.982 0 0 0-.468.66h-1.08c.072-.568.34-1.02.804-1.356.464-.336 1.044-.504 1.74-.504.76 0 1.36.196 1.8.588.44.392.66.924.66 1.596V236h-1.056v-1.26h-.012c-.048.424-.256.76-.624 1.008-.36.248-.828.372-1.404.372Zm.264-.852c.512 0 .932-.128 1.26-.384.328-.256.492-.584.492-.984v-.936h-2.016c-.36 0-.644.1-.852.3-.208.2-.312.472-.312.816 0 .368.124.66.372.876.256.208.608.312 1.056.312Zm8.467.732c-.584 0-1.052-.168-1.404-.504-.344-.344-.516-.796-.516-1.356v-5.916h-2.28v-.984h3.36v6.9c0 .272.076.488.228.648.152.152.356.228.612.228h2.04V236h-2.04Zm6.956 0c-.568 0-1.012-.152-1.332-.456-.312-.304-.468-.732-.468-1.284v-3.876h-1.86v-.984h1.86v-1.86h1.08v1.86h2.64v.984h-2.64v3.876c0 .504.24.756.72.756h1.8V236h-1.8Z"/>
  <path fill="var(--foreground-higher)" id="os-dx" d="M602.405 236.096c-.8 0-1.432-.224-1.896-.672-.456-.456-.684-1.072-.684-1.848v-1.752c0-.784.228-1.4.684-1.848.464-.448 1.096-.672 1.896-.672.8 0 1.428.224 1.884.672.464.448.696 1.06.696 1.836v1.764c0 .776-.232 1.392-.696 1.848-.456.448-1.084.672-1.884.672Zm0-.96c.472 0 .84-.132 1.104-.396.264-.264.396-.652.396-1.164v-1.752c0-.512-.132-.9-.396-1.164-.264-.264-.632-.396-1.104-.396-.464 0-.832.132-1.104.396-.264.264-.396.652-.396 1.164v1.752c0 .512.132.9.396 1.164.272.264.64.396 1.104.396Zm6.991.96c-.68 0-1.22-.152-1.62-.456-.4-.312-.632-.732-.696-1.26h1.08a.844.844 0 0 0 .384.552c.216.136.5.204.852.204h.504c.424 0 .74-.084.948-.252a.867.867 0 0 0 .312-.696c0-.544-.372-.876-1.116-.996l-.888-.144c-.648-.112-1.132-.312-1.452-.6-.312-.296-.468-.724-.468-1.284 0-.592.188-1.048.564-1.368.376-.328.94-.492 1.692-.492h.456c.632 0 1.14.148 1.524.444.384.296.616.696.696 1.2h-1.08a.768.768 0 0 0-.36-.492c-.192-.128-.452-.192-.78-.192h-.456c-.408 0-.708.076-.9.228-.184.152-.276.38-.276.684 0 .272.08.472.24.6.16.128.412.22.756.276l.888.144c.712.112 1.228.32 1.548.624.328.304.492.744.492 1.32 0 .608-.196 1.088-.588 1.44-.384.344-.968.516-1.752.516h-.504Z"/>
  <path fill="var(--foreground-higher)" id="menu" d="M644.401 236v-6.6h.948v.792h.072c.048-.28.164-.5.348-.66.192-.168.432-.252.72-.252.568 0 .928.304 1.08.912h.048c.048-.28.168-.5.36-.66a1.1 1.1 0 0 1 .732-.252c.416 0 .736.156.96.468.232.312.348.724.348 1.236V236h-.996v-5.028c0-.272-.06-.484-.18-.636-.112-.152-.28-.228-.504-.228a.64.64 0 0 0-.516.228c-.12.144-.18.352-.18.624V236h-.864v-5.028c0-.28-.064-.492-.192-.636-.12-.152-.292-.228-.516-.228-.224 0-.392.076-.504.228-.112.144-.168.352-.168.624V236h-.996Zm10.004.12c-.52 0-.976-.104-1.368-.312a2.258 2.258 0 0 1-.9-.876c-.208-.384-.312-.828-.312-1.332v-1.8c0-.512.104-.956.312-1.332.216-.376.516-.668.9-.876.392-.208.848-.312 1.368-.312.52 0 .972.104 1.356.312.392.208.692.5.9.876.216.376.324.82.324 1.332v1.164h-4.104v.636c0 .52.132.92.396 1.2.264.272.64.408 1.128.408.416 0 .752-.072 1.008-.216a.953.953 0 0 0 .468-.672h1.08c-.072.552-.344.992-.816 1.32-.464.32-1.044.48-1.74.48Zm-1.524-3.972h3.048v-.348c0-.52-.132-.92-.396-1.2-.256-.28-.632-.42-1.128-.42-.488 0-.864.14-1.128.42-.264.28-.396.68-.396 1.2v.348Zm6.223 3.852v-6.6h1.08v1.26h.012c.056-.44.236-.78.54-1.02.304-.24.708-.36 1.212-.36.664 0 1.192.204 1.584.612.392.408.588.964.588 1.668V236h-1.08v-4.32c0-.472-.128-.832-.384-1.08-.248-.256-.588-.384-1.02-.384-.448 0-.804.136-1.068.408-.256.272-.384.664-.384 1.176v4.2h-1.08Zm9.679.12c-.76 0-1.368-.224-1.824-.672-.456-.456-.684-1.072-.684-1.848v-4.2h1.08v4.2c0 .496.128.884.384 1.164.256.272.604.408 1.044.408.448 0 .8-.136 1.056-.408.264-.28.396-.668.396-1.164v-4.2h1.08v4.2c0 .776-.232 1.392-.696 1.848-.464.448-1.076.672-1.836.672Z"/>
  <path fill="var(--foreground-lower)" id="control-dx" d="M709.464 236.12c-.8 0-1.44-.224-1.92-.672-.472-.448-.708-1.064-.708-1.848v-1.8c0-.784.236-1.4.708-1.848.48-.448 1.12-.672 1.92-.672.76 0 1.372.204 1.836.612.464.408.708.964.732 1.668h-1.08c-.024-.424-.168-.748-.432-.972-.256-.232-.608-.348-1.056-.348-.472 0-.848.136-1.128.408-.28.264-.42.644-.42 1.14v1.812c0 .496.14.88.42 1.152.28.272.656.408 1.128.408.448 0 .8-.116 1.056-.348.264-.232.408-.556.432-.972h1.08c-.024.704-.268 1.26-.732 1.668-.464.408-1.076.612-1.836.612Zm7.148-.024c-.8 0-1.432-.224-1.896-.672-.456-.456-.684-1.072-.684-1.848v-1.752c0-.784.228-1.4.684-1.848.464-.448 1.096-.672 1.896-.672.8 0 1.428.224 1.884.672.464.448.696 1.06.696 1.836v1.764c0 .776-.232 1.392-.696 1.848-.456.448-1.084.672-1.884.672Zm0-.96c.472 0 .84-.132 1.104-.396.264-.264.396-.652.396-1.164v-1.752c0-.512-.132-.9-.396-1.164-.264-.264-.632-.396-1.104-.396-.464 0-.832.132-1.104.396-.264.264-.396.652-.396 1.164v1.752c0 .512.132.9.396 1.164.272.264.64.396 1.104.396Zm4.699.864v-6.6h1.08v1.26h.012c.056-.44.236-.78.54-1.02.304-.24.708-.36 1.212-.36.664 0 1.192.204 1.584.612.392.408.588.964.588 1.668V236h-1.08v-4.32c0-.472-.128-.832-.384-1.08-.248-.256-.588-.384-1.02-.384-.448 0-.804.136-1.068.408-.256.272-.384.664-.384 1.176v4.2h-1.08Zm10.411 0c-.568 0-1.012-.152-1.332-.456-.312-.304-.468-.732-.468-1.284v-3.876h-1.86v-.984h1.86v-1.86h1.08v1.86h2.64v.984h-2.64v3.876c0 .504.24.756.72.756h1.8V236h-1.8Zm4.208 0v-6.6h1.056v1.176c.216-.864.796-1.296 1.74-1.296.696 0 1.248.22 1.656.66.416.432.624 1.02.624 1.764v.396h-1.08v-.3c0-.52-.128-.916-.384-1.188-.248-.28-.604-.42-1.068-.42-.456 0-.816.14-1.08.42-.256.28-.384.676-.384 1.188v4.2h-1.08Zm9.463.096c-.8 0-1.432-.224-1.896-.672-.456-.456-.684-1.072-.684-1.848v-1.752c0-.784.228-1.4.684-1.848.464-.448 1.096-.672 1.896-.672.8 0 1.428.224 1.884.672.464.448.696 1.06.696 1.836v1.764c0 .776-.232 1.392-.696 1.848-.456.448-1.084.672-1.884.672Zm0-.96c.472 0 .84-.132 1.104-.396.264-.264.396-.652.396-1.164v-1.752c0-.512-.132-.9-.396-1.164-.264-.264-.632-.396-1.104-.396-.464 0-.832.132-1.104.396-.264.264-.396.652-.396 1.164v1.752c0 .512.132.9.396 1.164.272.264.64.396 1.104.396Zm8.155.864c-.584 0-1.052-.168-1.404-.504-.344-.344-.516-.796-.516-1.356v-5.916h-2.28v-.984h3.36v6.9c0 .272.076.488.228.648.152.152.356.228.612.228h2.04V236h-2.04Z"/>
</svg>
