<svg xmlns="http://www.w3.org/2000/svg" fill="none" viewBox="0 0 776 256">
  <metadata>
    Copyright 2022–Today (c) Giovanni Tramutola (https://github.com/giotramu). All rights reserved.
  </metadata>
  <style>
    :root {
      --accent: #4169E1;
      --background-lower: #F8F8FF;
      --background-higher: #DFDFE5;
      --foreground-lower: #F8F8FF;
      --foreground-higher: #313133;
    }
  </style>
  <rect fill="var(--background-lower)" width="255" height="47" x="243.5" y="208.5" rx="2.5"/>
  <rect fill="var(--background-lower)" width="47" height="47" x=".5" y=".5" rx="2.5"/>
  <rect fill="var(--background-lower)" width="47" height="47" x="104.5" y=".5" rx="2.5"/>
  <rect fill="var(--background-lower)" width="47" height="47" x="114.5" y="156.5" rx="2.5"/>
  <rect fill="var(--background-lower)" width="47" height="47" x="130.5" y="52.5" rx="2.5"/>
  <rect fill="var(--background-lower)" width="47" height="47" x="138.5" y="104.5" rx="2.5"/>
  <rect fill="var(--background-lower)" width="47" height="47" x="156.5" y=".5" rx="2.5"/>
  <rect fill="var(--background-lower)" width="47" height="47" x="166.5" y="156.5" rx="2.5"/>
  <rect fill="var(--background-lower)" width="47" height="47" x="182.5" y="52.5" rx="2.5"/>
  <rect fill="var(--background-lower)" width="47" height="47" x="190.5" y="104.5" rx="2.5"/>
  <rect fill="var(--background-lower)" width="47" height="47" x="208.5" y=".5" rx="2.5"/>
  <rect fill="var(--background-lower)" width="47" height="47" x="218.5" y="156.5" rx="2.5"/>
  <rect fill="var(--background-lower)" width="47" height="47" x="234.5" y="52.5" rx="2.5"/>
  <rect fill="var(--background-lower)" width="47" height="47" x="242.5" y="104.5" rx="2.5"/>
  <rect fill="var(--background-lower)" width="47" height="47" x="260.5" y=".5" rx="2.5"/>
  <rect fill="var(--background-lower)" width="47" height="47" x="270.5" y="156.5" rx="2.5"/>
  <rect fill="var(--background-lower)" width="47" height="47" x="286.5" y="52.5" rx="2.5"/>
  <rect fill="var(--background-lower)" width="47" height="47" x="294.5" y="104.5" rx="2.5"/>
  <rect fill="var(--background-lower)" width="47" height="47" x="312.5" y=".5" rx="2.5"/>
  <rect fill="var(--background-lower)" width="47" height="47" x="322.5" y="156.5" rx="2.5"/>
  <rect fill="var(--background-lower)" width="47" height="47" x="338.5" y="52.5" rx="2.5"/>
  <rect fill="var(--background-lower)" width="47" height="47" x="346.5" y="104.5" rx="2.5"/>
  <rect fill="var(--background-lower)" width="47" height="47" x="364.5" y=".5" rx="2.5"/>
  <rect fill="var(--background-lower)" width="47" height="47" x="374.5" y="156.5" rx="2.5"/>
  <rect fill="var(--background-lower)" width="47" height="47" x="390.5" y="52.5" rx="2.5"/>
  <rect fill="var(--background-lower)" width="47" height="47" x="398.5" y="104.5" rx="2.5"/>
  <rect fill="var(--background-lower)" width="47" height="47" x="416.5" y=".5" rx="2.5"/>
  <rect fill="var(--background-lower)" width="47" height="47" x="426.5" y="156.5" rx="2.5"/>
  <rect fill="var(--background-lower)" width="47" height="47" x="442.5" y="52.5" rx="2.5"/>
  <rect fill="var(--background-lower)" width="47" height="47" x="450.5" y="104.5" rx="2.5"/>
  <rect fill="var(--background-lower)" width="47" height="47" x="468.5" y=".5" rx="2.5"/>
  <rect fill="var(--background-lower)" width="47" height="47" x="478.5" y="156.5" rx="2.5"/>
  <rect fill="var(--background-lower)" width="47" height="47" x="494.5" y="52.5" rx="2.5"/>
  <rect fill="var(--background-lower)" width="47" height="47" x="502.5" y="104.5" rx="2.5"/>
  <rect fill="var(--background-lower)" width="47" height="47" x="52.5" y=".5" rx="2.5"/>
  <rect fill="var(--background-lower)" width="47" height="47" x="520.5" y=".5" rx="2.5"/>
  <rect fill="var(--background-lower)" width="47" height="47" x="530.5" y="156.5" rx="2.5"/>
  <rect fill="var(--background-lower)" width="47" height="47" x="546.5" y="52.5" rx="2.5"/>
  <rect fill="var(--background-lower)" width="47" height="47" x="554.5" y="104.5" rx="2.5"/>
  <rect fill="var(--background-lower)" width="47" height="47" x="572.5" y=".5" rx="2.5"/>
  <rect fill="var(--background-lower)" width="47" height="47" x="582.5" y="156.5" rx="2.5"/>
  <rect fill="var(--background-lower)" width="47" height="47" x="598.5" y="52.5" rx="2.5"/>
  <rect fill="var(--background-lower)" width="47" height="47" x="606.5" y="104.5" rx="2.5"/>
  <rect fill="var(--background-lower)" width="47" height="47" x="624.5" y=".5" rx="2.5"/>
  <rect fill="var(--background-lower)" width="47" height="47" x="650.5" y="52.5" rx="2.5"/>
  <rect fill="var(--background-lower)" width="47" height="47" x="78.5" y="52.5" rx="2.5"/>
  <rect fill="var(--background-lower)" width="47" height="47" x="86.5" y="104.5" rx="2.5"/>
  <rect fill="var(--background-higher)" width="109" height="47" x=".5" y="156.5" rx="2.5"/>
  <rect fill="var(--background-higher)" width="117" height="47" x="658.5" y="104.5" rx="2.5"/>
  <rect fill="var(--background-higher)" width="141" height="47" x="634.5" y="156.5" rx="2.5"/>
  <rect fill="var(--background-higher)" width="47" height="47" x="139.5" y="208.5" rx="2.5"/>
  <rect fill="var(--background-higher)" width="47" height="47" x="191.5" y="208.5" rx="2.5"/>
  <rect fill="var(--background-higher)" width="47" height="47" x="582.5" y="208.5" rx="2.5"/>
  <rect fill="var(--background-higher)" width="47" height="47" x="634.5" y="208.5" rx="2.5"/>
  <rect fill="var(--background-higher)" width="47" height="47" x="87.5" y="208.5" rx="2.5"/>
  <rect fill="var(--background-higher)" width="73" height="47" x=".5" y="52.5" rx="2.5"/>
  <rect fill="var(--background-higher)" width="73" height="47" x="702.5" y="52.5" rx="2.5"/>
  <rect fill="var(--background-higher)" width="74" height="47" x="503.5" y="208.5" rx="2.5"/>
  <rect fill="var(--background-higher)" width="81" height="47" x=".5" y="104.5" rx="2.5"/>
  <rect fill="var(--background-higher)" width="82" height="47" x=".5" y="208.5" rx="2.5"/>
  <rect fill="var(--background-higher)" width="89" height="47" x="686.5" y="208.5" rx="2.5"/>
  <rect fill="var(--background-higher)" width="99" height="47" x="676.5" y=".5" rx="2.5"/>
  <rect stroke="var(--background-higher)" width="109" height="47" x=".5" y="156.5" rx="2.5"/>
  <rect stroke="var(--background-higher)" width="117" height="47" x="658.5" y="104.5" rx="2.5"/>
  <rect stroke="var(--background-higher)" width="141" height="47" x="634.5" y="156.5" rx="2.5"/>
  <rect stroke="var(--background-higher)" width="255" height="47" x="243.5" y="208.5" rx="2.5"/>
  <rect stroke="var(--background-higher)" width="47" height="47" x=".5" y=".5" rx="2.5"/>
  <rect stroke="var(--background-higher)" width="47" height="47" x="104.5" y=".5" rx="2.5"/>
  <rect stroke="var(--background-higher)" width="47" height="47" x="114.5" y="156.5" rx="2.5"/>
  <rect stroke="var(--background-higher)" width="47" height="47" x="130.5" y="52.5" rx="2.5"/>
  <rect stroke="var(--background-higher)" width="47" height="47" x="138.5" y="104.5" rx="2.5"/>
  <rect stroke="var(--background-higher)" width="47" height="47" x="139.5" y="208.5" rx="2.5"/>
  <rect stroke="var(--background-higher)" width="47" height="47" x="156.5" y=".5" rx="2.5"/>
  <rect stroke="var(--background-higher)" width="47" height="47" x="166.5" y="156.5" rx="2.5"/>
  <rect stroke="var(--background-higher)" width="47" height="47" x="182.5" y="52.5" rx="2.5"/>
  <rect stroke="var(--background-higher)" width="47" height="47" x="190.5" y="104.5" rx="2.5"/>
  <rect stroke="var(--background-higher)" width="47" height="47" x="191.5" y="208.5" rx="2.5"/>
  <rect stroke="var(--background-higher)" width="47" height="47" x="208.5" y=".5" rx="2.5"/>
  <rect stroke="var(--background-higher)" width="47" height="47" x="218.5" y="156.5" rx="2.5"/>
  <rect stroke="var(--background-higher)" width="47" height="47" x="234.5" y="52.5" rx="2.5"/>
  <rect stroke="var(--background-higher)" width="47" height="47" x="242.5" y="104.5" rx="2.5"/>
  <rect stroke="var(--background-higher)" width="47" height="47" x="260.5" y=".5" rx="2.5"/>
  <rect stroke="var(--background-higher)" width="47" height="47" x="270.5" y="156.5" rx="2.5"/>
  <rect stroke="var(--background-higher)" width="47" height="47" x="286.5" y="52.5" rx="2.5"/>
  <rect stroke="var(--background-higher)" width="47" height="47" x="294.5" y="104.5" rx="2.5"/>
  <rect stroke="var(--background-higher)" width="47" height="47" x="312.5" y=".5" rx="2.5"/>
  <rect stroke="var(--background-higher)" width="47" height="47" x="322.5" y="156.5" rx="2.5"/>
  <rect stroke="var(--background-higher)" width="47" height="47" x="338.5" y="52.5" rx="2.5"/>
  <rect stroke="var(--background-higher)" width="47" height="47" x="346.5" y="104.5" rx="2.5"/>
  <rect stroke="var(--background-higher)" width="47" height="47" x="364.5" y=".5" rx="2.5"/>
  <rect stroke="var(--background-higher)" width="47" height="47" x="374.5" y="156.5" rx="2.5"/>
  <rect stroke="var(--background-higher)" width="47" height="47" x="390.5" y="52.5" rx="2.5"/>
  <rect stroke="var(--background-higher)" width="47" height="47" x="398.5" y="104.5" rx="2.5"/>
  <rect stroke="var(--background-higher)" width="47" height="47" x="416.5" y=".5" rx="2.5"/>
  <rect stroke="var(--background-higher)" width="47" height="47" x="426.5" y="156.5" rx="2.5"/>
  <rect stroke="var(--background-higher)" width="47" height="47" x="442.5" y="52.5" rx="2.5"/>
  <rect stroke="var(--background-higher)" width="47" height="47" x="450.5" y="104.5" rx="2.5"/>
  <rect stroke="var(--background-higher)" width="47" height="47" x="468.5" y=".5" rx="2.5"/>
  <rect stroke="var(--background-higher)" width="47" height="47" x="478.5" y="156.5" rx="2.5"/>
  <rect stroke="var(--background-higher)" width="47" height="47" x="494.5" y="52.5" rx="2.5"/>
  <rect stroke="var(--background-higher)" width="47" height="47" x="502.5" y="104.5" rx="2.5"/>
  <rect stroke="var(--background-higher)" width="47" height="47" x="52.5" y=".5" rx="2.5"/>
  <rect stroke="var(--background-higher)" width="47" height="47" x="520.5" y=".5" rx="2.5"/>
  <rect stroke="var(--background-higher)" width="47" height="47" x="530.5" y="156.5" rx="2.5"/>
  <rect stroke="var(--background-higher)" width="47" height="47" x="546.5" y="52.5" rx="2.5"/>
  <rect stroke="var(--background-higher)" width="47" height="47" x="554.5" y="104.5" rx="2.5"/>
  <rect stroke="var(--background-higher)" width="47" height="47" x="572.5" y=".5" rx="2.5"/>
  <rect stroke="var(--background-higher)" width="47" height="47" x="582.5" y="156.5" rx="2.5"/>
  <rect stroke="var(--background-higher)" width="47" height="47" x="582.5" y="208.5" rx="2.5"/>
  <rect stroke="var(--background-higher)" width="47" height="47" x="598.5" y="52.5" rx="2.5"/>
  <rect stroke="var(--background-higher)" width="47" height="47" x="606.5" y="104.5" rx="2.5"/>
  <rect stroke="var(--background-higher)" width="47" height="47" x="624.5" y=".5" rx="2.5"/>
  <rect stroke="var(--background-higher)" width="47" height="47" x="634.5" y="208.5" rx="2.5"/>
  <rect stroke="var(--background-higher)" width="47" height="47" x="650.5" y="52.5" rx="2.5"/>
  <rect stroke="var(--background-higher)" width="47" height="47" x="78.5" y="52.5" rx="2.5"/>
  <rect stroke="var(--background-higher)" width="47" height="47" x="86.5" y="104.5" rx="2.5"/>
  <rect stroke="var(--background-higher)" width="47" height="47" x="87.5" y="208.5" rx="2.5"/>
  <rect stroke="var(--background-higher)" width="73" height="47" x=".5" y="52.5" rx="2.5"/>
  <rect stroke="var(--background-higher)" width="73" height="47" x="702.5" y="52.5" rx="2.5"/>
  <rect stroke="var(--background-higher)" width="74" height="47" x="503.5" y="208.5" rx="2.5"/>
  <rect stroke="var(--background-higher)" width="81" height="47" x=".5" y="104.5" rx="2.5"/>
  <rect stroke="var(--background-higher)" width="82" height="47" x=".5" y="208.5" rx="2.5"/>
  <rect stroke="var(--background-higher)" width="89" height="47" x="686.5" y="208.5" rx="2.5"/>
  <rect stroke="var(--background-higher)" width="99" height="47" x="676.5" y=".5" rx="2.5"/>
  <path fill="var(--foreground-higher)" d="M103.418 82.16v-1.92l.024-1.5h-.036c-.056.424-.244.76-.564 1.008-.32.248-.728.372-1.224.372-.664 0-1.192-.22-1.584-.66-.384-.44-.576-1.04-.576-1.8v-1.932c0-.76.196-1.356.588-1.788.392-.44.916-.66 1.572-.66.496 0 .904.124 1.224.372.32.24.508.576.564 1.008h.012V73.4h1.08v8.76h-1.08Zm-1.44-2.976c.448 0 .8-.14 1.056-.42.256-.28.384-.668.384-1.164v-1.8c0-.496-.128-.884-.384-1.164-.256-.28-.608-.42-1.056-.42-.456 0-.812.136-1.068.408-.248.272-.372.664-.372 1.176v1.8c0 .512.124.904.372 1.176.256.272.612.408 1.068.408Z"/>
  <path fill="var(--foreground-higher)" d="M109.426 132.12c-.696 0-1.244-.176-1.644-.528-.4-.36-.6-.844-.6-1.452 0-.616.2-1.1.6-1.452.4-.352.94-.528 1.62-.528h2.04v-.66c0-.4-.124-.712-.372-.936-.24-.224-.584-.336-1.032-.336-.392 0-.716.084-.972.252a.982.982 0 0 0-.468.66h-1.08c.072-.568.34-1.02.804-1.356.464-.336 1.044-.504 1.74-.504.76 0 1.36.196 1.8.588.44.392.66.924.66 1.596V132h-1.056v-1.26h-.012c-.048.424-.256.76-.624 1.008-.36.248-.828.372-1.404.372Zm.264-.852c.512 0 .932-.128 1.26-.384.328-.256.492-.584.492-.984v-.936h-2.016c-.36 0-.644.1-.852.3-.208.2-.312.472-.312.816 0 .368.124.66.372.876.256.208.608.312 1.056.312Z"/>
  <path fill="var(--foreground-higher)" d="M125.506 28v-1.068l2.676-2.88c.456-.488.788-.92.996-1.296.208-.384.312-.752.312-1.104 0-.488-.136-.872-.408-1.152-.264-.28-.628-.42-1.092-.42-.512 0-.916.144-1.212.432-.288.288-.432.684-.432 1.188h-1.08c.024-.792.28-1.42.768-1.884.496-.464 1.148-.696 1.956-.696.792 0 1.42.228 1.884.684.464.448.696 1.06.696 1.836 0 .496-.132.988-.396 1.476s-.696 1.044-1.296 1.668l-2.136 2.232h3.972V28h-5.208Z"/>
  <path fill="var(--foreground-higher)" d="M135.482 184v-1.08l3.696-4.536h-3.6v-.984h4.812v1.08l-3.768 4.536h3.9V184h-5.04Z"/>
  <path fill="var(--foreground-higher)" d="m151.878 80-1.056-6.6h.96l.66 4.68c.024.176.048.368.072.576.032.2.056.368.072.504.016-.136.04-.304.072-.504.04-.208.072-.4.096-.576l.732-4.68h1.032l.732 4.68c.024.176.052.368.084.576.04.2.068.368.084.504.016-.136.04-.304.072-.504.04-.208.072-.4.096-.576l.684-4.68h.912l-1.104 6.6h-1.188l-.708-4.56a19.551 19.551 0 0 0-.108-.672c-.04-.224-.068-.4-.084-.528-.016.128-.04.304-.072.528-.032.224-.068.448-.108.672l-.744 4.56h-1.188Z"/>
  <path fill="var(--foreground-higher)" d="M161.798 132.096c-.68 0-1.22-.152-1.62-.456-.4-.312-.632-.732-.696-1.26h1.08a.844.844 0 0 0 .384.552c.216.136.5.204.852.204h.504c.424 0 .74-.084.948-.252a.867.867 0 0 0 .312-.696c0-.544-.372-.876-1.116-.996l-.888-.144c-.648-.112-1.132-.312-1.452-.6-.312-.296-.468-.724-.468-1.284 0-.592.188-1.048.564-1.368.376-.328.94-.492 1.692-.492h.456c.632 0 1.14.148 1.524.444.384.296.616.696.696 1.2h-1.08a.768.768 0 0 0-.36-.492c-.192-.128-.452-.192-.78-.192h-.456c-.408 0-.708.076-.9.228-.184.152-.276.38-.276.684 0 .272.08.472.24.6.16.128.412.22.756.276l.888.144c.712.112 1.228.32 1.548.624.328.304.492.744.492 1.32 0 .608-.196 1.088-.588 1.44-.384.344-.968.516-1.752.516h-.504Z"/>
  <path fill="var(--foreground-higher)" d="M179.87 28.12c-.528 0-.992-.104-1.392-.312a2.32 2.32 0 0 1-.912-.888c-.216-.376-.324-.816-.324-1.32h1.08c0 .488.136.872.408 1.152.28.272.664.408 1.152.408.496 0 .88-.144 1.152-.432.272-.288.408-.664.408-1.128V25c0-.496-.136-.88-.408-1.152-.272-.272-.656-.408-1.152-.408h-.948v-.936l2.124-2.28h-3.456v-.984h4.644v1.008l-2.124 2.244c.736.04 1.32.284 1.752.732.432.448.648 1.04.648 1.776v.6c0 .504-.112.944-.336 1.32a2.3 2.3 0 0 1-.924.888c-.4.208-.864.312-1.392.312Z"/>
  <path fill="var(--foreground-higher)" d="m187.002 184 2.34-3.396-2.196-3.204h1.272l1.308 2.04c.056.088.108.184.156.288.056.104.1.188.132.252.024-.064.06-.148.108-.252.056-.104.112-.2.168-.288l1.32-2.04h1.26l-2.196 3.216 2.328 3.384h-1.272l-1.416-2.16a3.356 3.356 0 0 1-.168-.3 2.599 2.599 0 0 0-.132-.288c-.032.072-.08.168-.144.288a2.125 2.125 0 0 1-.18.3l-1.428 2.16h-1.26Z"/>
  <path fill="var(--foreground-higher)" d="M206.002 80.12c-.52 0-.976-.104-1.368-.312a2.258 2.258 0 0 1-.9-.876c-.208-.384-.312-.828-.312-1.332v-1.8c0-.512.104-.956.312-1.332.216-.376.516-.668.9-.876.392-.208.848-.312 1.368-.312.52 0 .972.104 1.356.312.392.208.692.5.9.876.216.376.324.82.324 1.332v1.164h-4.104v.636c0 .52.132.92.396 1.2.264.272.64.408 1.128.408.416 0 .752-.072 1.008-.216a.953.953 0 0 0 .468-.672h1.08c-.072.552-.344.992-.816 1.32-.464.32-1.044.48-1.74.48Zm-1.524-3.972h3.048V75.8c0-.52-.132-.92-.396-1.2-.256-.28-.632-.42-1.128-.42-.488 0-.864.14-1.128.42-.264.28-.396.68-.396 1.2v.348Z"/>
  <path fill="var(--foreground-higher)" d="M213.618 132.12c-.656 0-1.188-.22-1.596-.66-.4-.44-.6-1.036-.6-1.788v-1.932c0-.76.2-1.36.6-1.8.4-.44.932-.66 1.596-.66.496 0 .904.124 1.224.372.32.248.508.584.564 1.008h.036l-.024-1.5v-1.92h1.08V132h-1.08v-1.26h-.012c-.056.432-.244.772-.564 1.02-.32.24-.728.36-1.224.36Zm.36-.936c.448 0 .8-.14 1.056-.42.256-.28.384-.668.384-1.164v-1.8c0-.496-.128-.884-.384-1.164-.256-.28-.608-.42-1.056-.42-.456 0-.816.136-1.08.408-.264.272-.396.664-.396 1.176v1.8c0 .512.132.904.396 1.176.264.272.624.408 1.08.408Z"/>
  <path fill="var(--foreground-higher)" d="m23.726 20.26-1.38-1.68h1.2l1.32 1.68h-1.14Z"/>
  <path fill="var(--foreground-higher)" d="M233.322 28v-1.92h-3.96v-1.692l3.192-5.148h1.188l-3.3 5.364v.492h2.88V22.96h1.08V28h-1.08Z"/>
  <path fill="var(--foreground-higher)" d="M242.05 184.12c-.8 0-1.44-.224-1.92-.672-.472-.448-.708-1.064-.708-1.848v-1.8c0-.784.236-1.4.708-1.848.48-.448 1.12-.672 1.92-.672.76 0 1.372.204 1.836.612.464.408.708.964.732 1.668h-1.08c-.024-.424-.168-.748-.432-.972-.256-.232-.608-.348-1.056-.348-.472 0-.848.136-1.128.408-.28.264-.42.644-.42 1.14v1.812c0 .496.14.88.42 1.152.28.272.656.408 1.128.408.448 0 .8-.116 1.056-.348.264-.232.408-.556.432-.972h1.08c-.024.704-.268 1.26-.732 1.668-.464.408-1.076.612-1.836.612Z"/>
  <path fill="var(--foreground-higher)" d="M255.734 80v-6.6h1.056v1.176c.216-.864.796-1.296 1.74-1.296.696 0 1.248.22 1.656.66.416.432.624 1.02.624 1.764v.396h-1.08v-.3c0-.52-.128-.916-.384-1.188-.248-.28-.604-.42-1.068-.42-.456 0-.816.14-1.08.42-.256.28-.384.676-.384 1.188V80h-1.08Z"/>
  <path fill="var(--foreground-higher)" d="M265.042 132v-4.956h-1.92v-.984h1.92v-1.14c0-.52.164-.928.492-1.224.328-.304.78-.456 1.356-.456h1.932v.984h-1.932c-.512 0-.768.232-.768.696v1.14h2.7v.984h-2.7V132h-1.08Z"/>
  <path fill="var(--foreground-higher)" d="M283.978 28.12c-.712 0-1.296-.184-1.752-.552-.456-.368-.724-.864-.804-1.488h1.08c.04.344.188.612.444.804.256.184.604.276 1.044.276.504 0 .88-.136 1.128-.408.256-.272.384-.656.384-1.152v-.852c0-.496-.128-.88-.384-1.152-.248-.272-.62-.408-1.116-.408-.312 0-.584.084-.816.252-.232.16-.4.376-.504.648h-1.08l.06-4.848h4.608v.984h-3.564l-.036 2.916h.048c.072-.28.248-.5.528-.66.288-.16.648-.24 1.08-.24.712-.008 1.264.212 1.656.66.4.44.6 1.056.6 1.848v.852c0 .776-.228 1.392-.684 1.848-.456.448-1.096.672-1.92.672Z"/>
  <path fill="var(--foreground-higher)" d="m293.27 184-2.208-6.6h1.14l1.464 4.44c.088.264.16.52.216.768.064.24.112.428.144.564.04-.136.092-.324.156-.564.072-.248.148-.504.228-.768l1.428-4.44h1.104l-2.208 6.6h-1.464Z"/>
  <path fill="var(--foreground-higher)" d="M310.722 80c-.568 0-1.012-.152-1.332-.456-.312-.304-.468-.732-.468-1.284v-3.876h-1.86V73.4h1.86v-1.86h1.08v1.86h2.64v.984h-2.64v3.876c0 .504.24.756.72.756h1.8V80h-1.8Z"/>
  <path fill="var(--foreground-higher)" d="M316.334 134.16v-.984h2.1c.648 0 .972-.312.972-.936v-.84l.024-1.2h-.024c-.04.424-.22.76-.54 1.008-.312.248-.716.372-1.212.372-.68 0-1.216-.22-1.608-.66-.392-.448-.588-1.048-.588-1.8v-1.392c0-.752.196-1.348.588-1.788.392-.44.928-.66 1.608-.66.496 0 .9.124 1.212.372.32.248.5.584.54 1.008h.012v-1.26h1.068v6.84c0 .592-.184 1.06-.552 1.404-.36.344-.864.516-1.512.516h-2.088Zm1.644-3.516c.448 0 .8-.14 1.056-.42.256-.28.384-.668.384-1.164v-1.26c0-.496-.128-.884-.384-1.164-.256-.28-.608-.42-1.056-.42-.456 0-.812.136-1.068.408-.248.272-.372.664-.372 1.176v1.26c0 .512.124.904.372 1.176.256.272.612.408 1.068.408Z"/>
  <path fill="var(--foreground-higher)" d="M336.014 28.12c-.568 0-1.068-.116-1.5-.348a2.615 2.615 0 0 1-.996-.984c-.232-.424-.348-.912-.348-1.464 0-.384.068-.776.204-1.176.144-.408.34-.832.588-1.272l2.064-3.636h1.176l-2.376 4.044.048.036c.144-.216.352-.388.624-.516s.58-.192.924-.192c.48 0 .9.112 1.26.336.368.224.652.536.852.936.2.392.3.856.3 1.392 0 .568-.12 1.068-.36 1.5-.232.424-.56.756-.984.996-.416.232-.908.348-1.476.348Zm-.012-.96c.52 0 .94-.168 1.26-.504.328-.344.492-.796.492-1.356s-.164-1.008-.492-1.344c-.32-.344-.74-.516-1.26-.516s-.944.172-1.272.516c-.32.336-.48.784-.48 1.344s.16 1.012.48 1.356c.328.336.752.504 1.272.504Z"/>
  <path fill="var(--foreground-higher)" d="M346.386 184.12c-.496 0-.904-.12-1.224-.36-.32-.248-.508-.588-.564-1.02h-.012V184h-1.08v-8.76h1.08v1.92l-.024 1.5h.036c.056-.424.244-.76.564-1.008.32-.248.728-.372 1.224-.372.664 0 1.196.22 1.596.66.4.44.6 1.04.6 1.8v1.932c0 .752-.2 1.348-.6 1.788-.4.44-.932.66-1.596.66Zm-.36-.936c.456 0 .816-.136 1.08-.408.264-.272.396-.664.396-1.176v-1.8c0-.512-.132-.904-.396-1.176-.264-.272-.624-.408-1.08-.408-.44 0-.792.14-1.056.42-.256.28-.384.668-.384 1.164v1.8c0 .496.128.884.384 1.164.264.28.616.42 1.056.42Z"/>
  <path fill="var(--foreground-higher)" d="M356.408 236.096c-.68 0-1.22-.152-1.62-.456-.4-.312-.632-.732-.696-1.26h1.08a.844.844 0 0 0 .384.552c.216.136.5.204.852.204h.504c.424 0 .74-.084.948-.252a.867.867 0 0 0 .312-.696c0-.544-.372-.876-1.116-.996l-.888-.144c-.648-.112-1.132-.312-1.452-.6-.312-.296-.468-.724-.468-1.284 0-.592.188-1.048.564-1.368.376-.328.94-.492 1.692-.492h.456c.632 0 1.14.148 1.524.444.384.296.616.696.696 1.2h-1.08a.768.768 0 0 0-.36-.492c-.192-.128-.452-.192-.78-.192h-.456c-.408 0-.708.076-.9.228-.184.152-.276.38-.276.684 0 .272.08.472.24.6.16.128.412.22.756.276l.888.144c.712.112 1.228.32 1.548.624.328.304.492.744.492 1.32 0 .608-.196 1.088-.588 1.44-.384.344-.968.516-1.752.516h-.504Zm4.903 2.064v-8.76h1.08v1.26h.012c.056-.432.244-.768.564-1.008.328-.248.74-.372 1.236-.372.664 0 1.192.22 1.584.66.4.432.6 1.028.6 1.788v1.932c0 .76-.2 1.36-.6 1.8-.392.44-.92.66-1.584.66-.496 0-.904-.124-1.224-.372a1.509 1.509 0 0 1-.576-1.008h-.036l.024 1.5v1.92h-1.08Zm2.532-2.976c.456 0 .812-.136 1.068-.408.264-.272.396-.664.396-1.176v-1.8c0-.512-.132-.904-.396-1.176-.256-.272-.612-.408-1.068-.408-.44 0-.792.14-1.056.42-.264.28-.396.668-.396 1.164v1.8c0 .496.132.884.396 1.164.264.28.616.42 1.056.42Zm6.583.936c-.696 0-1.244-.176-1.644-.528-.4-.36-.6-.844-.6-1.452 0-.616.2-1.1.6-1.452.4-.352.94-.528 1.62-.528h2.04v-.66c0-.4-.124-.712-.372-.936-.24-.224-.584-.336-1.032-.336-.392 0-.716.084-.972.252a.982.982 0 0 0-.468.66h-1.08c.072-.568.34-1.02.804-1.356.464-.336 1.044-.504 1.74-.504.76 0 1.36.196 1.8.588.44.392.66.924.66 1.596V236h-1.056v-1.26h-.012c-.048.424-.256.76-.624 1.008-.36.248-.828.372-1.404.372Zm.264-.852c.512 0 .932-.128 1.26-.384.328-.256.492-.584.492-.984v-.936h-2.016c-.36 0-.644.1-.852.3-.208.2-.312.472-.312.816 0 .368.124.66.372.876.256.208.608.312 1.056.312Zm7.556.852c-.8 0-1.44-.224-1.92-.672-.472-.448-.708-1.064-.708-1.848v-1.8c0-.784.236-1.4.708-1.848.48-.448 1.12-.672 1.92-.672.76 0 1.372.204 1.836.612.464.408.708.964.732 1.668h-1.08c-.024-.424-.168-.748-.432-.972-.256-.232-.608-.348-1.056-.348-.472 0-.848.136-1.128.408-.28.264-.42.644-.42 1.14v1.812c0 .496.14.88.42 1.152.28.272.656.408 1.128.408.448 0 .8-.116 1.056-.348.264-.232.408-.556.432-.972h1.08c-.024.704-.268 1.26-.732 1.668-.464.408-1.076.612-1.836.612Zm7.147 0c-.52 0-.976-.104-1.368-.312a2.258 2.258 0 0 1-.9-.876c-.208-.384-.312-.828-.312-1.332v-1.8c0-.512.104-.956.312-1.332.216-.376.516-.668.9-.876.392-.208.848-.312 1.368-.312.52 0 .972.104 1.356.312.392.208.692.5.9.876.216.376.324.82.324 1.332v1.164h-4.104v.636c0 .52.132.92.396 1.2.264.272.64.408 1.128.408.416 0 .752-.072 1.008-.216a.953.953 0 0 0 .468-.672h1.08c-.072.552-.344.992-.816 1.32-.464.32-1.044.48-1.74.48Zm-1.524-3.972h3.048v-.348c0-.52-.132-.92-.396-1.2-.256-.28-.632-.42-1.128-.42-.488 0-.864.14-1.128.42-.264.28-.396.68-.396 1.2v.348Z"/>
  <path fill="var(--foreground-higher)" d="m360.538 82.16.972-2.568-2.448-6.192h1.2l1.536 4.08c.056.136.108.3.156.492l.12.468.12-.468c.048-.192.096-.356.144-.492l1.44-4.08h1.164l-3.252 8.76h-1.152Z"/>
  <path fill="var(--foreground-higher)" d="M367.506 132v-8.76h1.08v3.42h.012c.056-.44.236-.78.54-1.02.304-.24.708-.36 1.212-.36.664 0 1.192.204 1.584.612.392.408.588.964.588 1.668V132h-1.08v-4.32c0-.472-.128-.836-.384-1.092-.248-.264-.588-.396-1.02-.396-.448 0-.804.14-1.068.42-.256.28-.384.676-.384 1.188v4.2h-1.08Z"/>
  <path fill="var(--foreground-higher)" d="m386.574 28 3.132-7.776h-3.384v1.416h-1.08v-2.4h5.58v1.008L387.762 28h-1.188Z"/>
  <path fill="var(--foreground-higher)" d="M395.506 184v-6.6h1.08v1.26h.012c.056-.44.236-.78.54-1.02.304-.24.708-.36 1.212-.36.664 0 1.192.204 1.584.612.392.408.588.964.588 1.668V184h-1.08v-4.32c0-.472-.128-.832-.384-1.08-.248-.256-.588-.384-1.02-.384-.448 0-.804.136-1.068.408-.256.272-.384.664-.384 1.176v4.2h-1.08Z"/>
  <path fill="var(--foreground-higher)" d="M413.99 80.12c-.76 0-1.368-.224-1.824-.672-.456-.456-.684-1.072-.684-1.848v-4.2h1.08v4.2c0 .496.128.884.384 1.164.256.272.604.408 1.044.408.448 0 .8-.136 1.056-.408.264-.28.396-.668.396-1.164v-4.2h1.08v4.2c0 .776-.232 1.392-.696 1.848-.464.448-1.076.672-1.836.672Z"/>
  <path fill="var(--foreground-higher)" d="M419.242 134.16v-.996h1.728c.496 0 .88-.136 1.152-.408.28-.264.42-.64.42-1.128v-5.244h-3.06v-.984h4.14v6.228c0 .776-.24 1.392-.72 1.848-.48.456-1.124.684-1.932.684h-1.728Zm3.78-9.948c-.264 0-.472-.068-.624-.204a.704.704 0 0 1-.228-.552c0-.24.076-.428.228-.564.152-.144.36-.216.624-.216s.472.072.624.216c.152.136.228.324.228.564a.704.704 0 0 1-.228.552c-.152.136-.36.204-.624.204Z"/>
  <path fill="var(--foreground-higher)" d="M440.002 28.12c-.56 0-1.052-.096-1.476-.288a2.375 2.375 0 0 1-.984-.816 2.152 2.152 0 0 1-.348-1.212c0-.496.156-.956.468-1.38a3.19 3.19 0 0 1 1.272-1.008c-.52-.256-.908-.56-1.164-.912a1.952 1.952 0 0 1-.384-1.152c0-.44.112-.828.336-1.164.232-.336.544-.6.936-.792.392-.192.84-.288 1.344-.288.504 0 .952.096 1.344.288.4.192.712.456.936.792.224.336.336.724.336 1.164 0 .4-.128.78-.384 1.14-.256.352-.644.66-1.164.924.528.24.948.576 1.26 1.008.32.424.48.884.48 1.38 0 .456-.116.86-.348 1.212-.232.344-.56.616-.984.816-.416.192-.908.288-1.476.288Zm-.348-5.244.348.132.3-.12c.376-.144.68-.348.912-.612.232-.272.348-.568.348-.888 0-.392-.144-.708-.432-.948-.288-.248-.664-.372-1.128-.372-.464 0-.84.124-1.128.372a1.196 1.196 0 0 0-.432.948c0 .328.112.624.336.888.224.264.516.464.876.6Zm.348 4.284c.528 0 .952-.136 1.272-.408.32-.28.48-.644.48-1.092 0-.352-.108-.668-.324-.948-.216-.288-.52-.508-.912-.66l-.516-.204-.552.216c-.384.152-.68.372-.888.66-.208.28-.312.592-.312.936 0 .448.16.812.48 1.092.32.272.744.408 1.272.408Z"/>
  <path fill="var(--foreground-higher)" d="M447.194 184v-6.6h.948v.792h.072c.048-.28.164-.5.348-.66.192-.168.432-.252.72-.252.568 0 .928.304 1.08.912h.048c.048-.28.168-.5.36-.66a1.1 1.1 0 0 1 .732-.252c.416 0 .736.156.96.468.232.312.348.724.348 1.236V184h-.996v-5.028c0-.272-.06-.484-.18-.636-.112-.152-.28-.228-.504-.228a.64.64 0 0 0-.516.228c-.12.144-.18.352-.18.624V184h-.864v-5.028c0-.28-.064-.492-.192-.636-.12-.152-.292-.228-.516-.228-.224 0-.392.076-.504.228-.112.144-.168.352-.168.624V184h-.996Z"/>
  <path fill="var(--foreground-higher)" d="M463.422 80v-.984h2.34v-4.632h-2.04V73.4h3.12v5.616h2.22V80h-5.64Zm2.76-7.788c-.264 0-.472-.068-.624-.204a.704.704 0 0 1-.228-.552c0-.24.076-.428.228-.564.152-.144.36-.216.624-.216s.472.072.624.216c.152.136.228.324.228.564a.704.704 0 0 1-.228.552c-.152.136-.36.204-.624.204Z"/>
  <path fill="var(--foreground-higher)" d="M471.542 132v-8.76h1.08v4.884h1.272l1.92-2.724h1.236l-2.22 3.144 2.256 3.456h-1.26l-1.92-2.94h-1.284V132h-1.08Z"/>
  <path fill="var(--foreground-higher)" d="m490.802 28 2.352-4.044-.048-.036a1.502 1.502 0 0 1-.612.516 2.066 2.066 0 0 1-.912.192c-.48 0-.9-.112-1.26-.336a2.356 2.356 0 0 1-.852-.936c-.2-.4-.3-.864-.3-1.392 0-.568.116-1.064.348-1.488.24-.432.572-.764.996-.996.424-.24.916-.36 1.476-.36.568 0 1.064.12 1.488.36.432.232.764.556.996.972.24.416.36.904.36 1.464 0 .384-.072.78-.216 1.188-.144.4-.34.82-.588 1.26L492.002 28h-1.2Zm1.2-4.2c.52 0 .94-.168 1.26-.504.328-.344.492-.796.492-1.356s-.164-1.008-.492-1.344c-.32-.344-.74-.516-1.26-.516s-.944.172-1.272.516c-.32.336-.48.784-.48 1.344s.16 1.012.48 1.356c.328.336.752.504 1.272.504Z"/>
  <path fill="var(--foreground-higher)" d="m500.382 185.92.96-3.732h1.56l-1.56 3.732h-.96Z"/>
  <path fill="var(--foreground-higher)" d="M518.002 80.096c-.8 0-1.432-.224-1.896-.672-.456-.456-.684-1.072-.684-1.848v-1.752c0-.784.228-1.4.684-1.848.464-.448 1.096-.672 1.896-.672.8 0 1.428.224 1.884.672.464.448.696 1.06.696 1.836v1.764c0 .776-.232 1.392-.696 1.848-.456.448-1.084.672-1.884.672Zm0-.96c.472 0 .84-.132 1.104-.396.264-.264.396-.652.396-1.164v-1.752c0-.512-.132-.9-.396-1.164-.264-.264-.632-.396-1.104-.396-.464 0-.832.132-1.104.396-.264.264-.396.652-.396 1.164v1.752c0 .512.132.9.396 1.164.272.264.64.396 1.104.396Z"/>
  <path fill="var(--foreground-higher)" d="M526.962 132c-.584 0-1.052-.168-1.404-.504-.344-.344-.516-.796-.516-1.356v-5.916h-2.28v-.984h3.36v6.9c0 .272.076.488.228.648.152.152.356.228.612.228h2.04V132h-2.04Z"/>
  <path fill="var(--foreground-higher)" d="M544.002 28.12c-.808 0-1.452-.232-1.932-.696-.472-.472-.708-1.1-.708-1.884V21.7c0-.784.236-1.408.708-1.872.48-.472 1.124-.708 1.932-.708.808 0 1.448.236 1.92.708.48.464.72 1.088.72 1.872v3.84c0 .52-.108.976-.324 1.368a2.276 2.276 0 0 1-.924.9c-.392.208-.856.312-1.392.312Zm0-.924c.48 0 .864-.152 1.152-.456.296-.312.444-.712.444-1.2V21.7c0-.488-.148-.884-.444-1.188-.288-.312-.672-.468-1.152-.468-.48 0-.868.156-1.164.468-.288.304-.432.7-.432 1.188v3.84c0 .488.144.888.432 1.2.296.304.684.456 1.164.456Zm0-2.868a.714.714 0 0 1-.528-.204c-.128-.136-.192-.316-.192-.54 0-.216.064-.388.192-.516a.714.714 0 0 1 .528-.204c.216 0 .388.068.516.204.136.128.204.3.204.516a.73.73 0 0 1-.204.54.675.675 0 0 1-.516.204Z"/>
  <path fill="var(--foreground-higher)" d="M554.002 184.12c-.304 0-.548-.088-.732-.264-.176-.176-.264-.412-.264-.708 0-.312.088-.56.264-.744.184-.184.428-.276.732-.276s.544.092.72.276c.184.184.276.432.276.744 0 .296-.092.532-.276.708-.176.176-.416.264-.72.264Z"/>
  <path fill="var(--foreground-higher)" d="M567.506 82.16V73.4h1.08v1.26h.012c.056-.432.244-.768.564-1.008.328-.248.74-.372 1.236-.372.664 0 1.192.22 1.584.66.4.432.6 1.028.6 1.788v1.932c0 .76-.2 1.36-.6 1.8-.392.44-.92.66-1.584.66-.496 0-.904-.124-1.224-.372a1.509 1.509 0 0 1-.576-1.008h-.036l.024 1.5v1.92h-1.08Zm2.532-2.976c.456 0 .812-.136 1.068-.408.264-.272.396-.664.396-1.176v-1.8c0-.512-.132-.904-.396-1.176-.256-.272-.612-.408-1.068-.408-.44 0-.792.14-1.056.42-.264.28-.396.668-.396 1.164v1.8c0 .496.132.884.396 1.164.264.28.616.42 1.056.42Z"/>
  <path fill="var(--foreground-higher)" d="M577.882 127.08a.877.877 0 0 1-.648-.252.877.877 0 0 1-.252-.648.881.881 0 0 1 .9-.9h.24c.256 0 .468.088.636.264.176.168.264.38.264.636 0 .264-.084.48-.252.648a.877.877 0 0 1-.648.252h-.24Zm-1.44 6.84.96-3.732h1.56l-1.56 3.732h-.96Z"/>
  <path fill="var(--foreground-higher)" d="M594.082 24.52v-.96h3.84v.96h-3.84Z"/>
  <path fill="var(--foreground-higher)" d="m603.302 185.32 4.26-11.28h1.14l-4.26 11.28h-1.14Z"/>
  <path fill="var(--foreground-higher)" d="M620.862 81.32V70.04h2.94V71h-1.86v9.36h1.86v.96h-2.94Z"/>
  <path fill="var(--foreground-higher)" d="m631.682 122.7-.96 3.732h-1.56l1.56-3.732h.96Z"/>
  <path fill="var(--foreground-higher)" d="M645.422 23.08v-.96h5.16v.96h-5.16Zm0 2.88V25h5.16v.96h-5.16Z"/>
  <path fill="var(--foreground-higher)" d="M672.202 81.32v-.96h1.86V71h-1.86v-.96h2.94v11.28h-2.94Z"/>
  <path fill="var(--foreground-higher)" d="M73.482 28v-.984h2.376V20.14l-2.376 1.776v-1.2l1.98-1.476h1.476v7.776h1.944V28h-5.4Z"/>
  <path fill="var(--foreground-higher)" id="tab" d="M30.527 80c-.568 0-1.012-.152-1.332-.456-.312-.304-.468-.732-.468-1.284v-3.876h-1.86V73.4h1.86v-1.86h1.08v1.86h2.64v.984h-2.64v3.876c0 .504.24.756.72.756h1.8V80h-1.8Zm5.9.12c-.697 0-1.245-.176-1.645-.528-.4-.36-.6-.844-.6-1.452 0-.616.2-1.1.6-1.452.4-.352.94-.528 1.62-.528h2.04v-.66c0-.4-.124-.712-.372-.936-.24-.224-.584-.336-1.032-.336-.392 0-.716.084-.972.252a.982.982 0 0 0-.468.66h-1.08c.072-.568.34-1.02.804-1.356.464-.336 1.044-.504 1.74-.504.76 0 1.36.196 1.8.588.44.392.66.924.66 1.596V80h-1.056v-1.26h-.012c-.048.424-.256.76-.624 1.008-.36.248-.828.372-1.404.372Zm.263-.852c.512 0 .932-.128 1.26-.384.328-.256.492-.584.492-.984v-.936h-2.016c-.36 0-.644.1-.852.3-.208.2-.312.472-.312.816 0 .368.124.66.372.876.256.208.608.312 1.056.312Zm7.892.852c-.496 0-.904-.12-1.224-.36-.32-.248-.508-.588-.564-1.02h-.012V80h-1.08v-8.76h1.08v1.92l-.024 1.5h.036c.056-.424.244-.76.564-1.008.32-.248.728-.372 1.224-.372.664 0 1.196.22 1.596.66.4.44.6 1.04.6 1.8v1.932c0 .752-.2 1.348-.6 1.788-.4.44-.932.66-1.596.66Zm-.36-.936c.456 0 .816-.136 1.08-.408.264-.272.396-.664.396-1.176v-1.8c0-.512-.132-.904-.396-1.176-.264-.272-.624-.408-1.08-.408-.44 0-.792.14-1.056.42-.256.28-.384.668-.384 1.164v1.8c0 .496.128.884.384 1.164.264.28.616.42 1.056.42Z"/>
  <path fill="var(--foreground-higher)" id="caps" d="M30.257 132.12c-.8 0-1.44-.224-1.92-.672-.472-.448-.708-1.064-.708-1.848v-1.8c0-.784.236-1.4.708-1.848.48-.448 1.12-.672 1.92-.672.76 0 1.372.204 1.836.612.464.408.708.964.732 1.668h-1.08c-.024-.424-.168-.748-.432-.972-.256-.232-.608-.348-1.056-.348-.472 0-.848.136-1.128.408-.28.264-.42.644-.42 1.14v1.812c0 .496.14.88.42 1.152.28.272.656.408 1.128.408.448 0 .8-.116 1.056-.348.264-.232.408-.556.432-.972h1.08c-.024.704-.268 1.26-.732 1.668-.464.408-1.076.612-1.836.612Zm6.572 0c-.696 0-1.244-.176-1.644-.528-.4-.36-.6-.844-.6-1.452 0-.616.2-1.1.6-1.452.4-.352.94-.528 1.62-.528h2.04v-.66c0-.4-.124-.712-.372-.936-.24-.224-.584-.336-1.032-.336-.392 0-.716.084-.972.252a.982.982 0 0 0-.468.66h-1.08c.072-.568.34-1.02.804-1.356.464-.336 1.044-.504 1.74-.504.76 0 1.36.196 1.8.588.44.392.66.924.66 1.596V132h-1.056v-1.26h-.012c-.048.424-.256.76-.624 1.008-.36.248-.828.372-1.404.372Zm.264-.852c.512 0 .932-.128 1.26-.384.328-.256.492-.584.492-.984v-.936h-2.016c-.36 0-.644.1-.852.3-.208.2-.312.472-.312.816 0 .368.124.66.372.876.256.208.608.312 1.056.312Zm5.011 2.892v-8.76h1.08v1.26h.012c.056-.432.244-.768.564-1.008.328-.248.74-.372 1.236-.372.664 0 1.192.22 1.584.66.4.432.6 1.028.6 1.788v1.932c0 .76-.2 1.36-.6 1.8-.392.44-.92.66-1.584.66-.496 0-.904-.124-1.224-.372a1.509 1.509 0 0 1-.576-1.008h-.036l.024 1.5v1.92h-1.08Zm2.532-2.976c.456 0 .812-.136 1.068-.408.264-.272.396-.664.396-1.176v-1.8c0-.512-.132-.904-.396-1.176-.256-.272-.612-.408-1.068-.408-.44 0-.792.14-1.056.42-.264.28-.396.668-.396 1.164v1.8c0 .496.132.884.396 1.164.264.28.616.42 1.056.42Zm6.955.912c-.68 0-1.22-.152-1.62-.456-.4-.312-.632-.732-.696-1.26h1.08a.844.844 0 0 0 .384.552c.216.136.5.204.852.204h.504c.424 0 .74-.084.948-.252a.867.867 0 0 0 .312-.696c0-.544-.372-.876-1.116-.996l-.888-.144c-.648-.112-1.132-.312-1.452-.6-.312-.296-.468-.724-.468-1.284 0-.592.188-1.048.564-1.368.376-.328.94-.492 1.692-.492h.456c.632 0 1.14.148 1.524.444.384.296.616.696.696 1.2h-1.08a.768.768 0 0 0-.36-.492c-.192-.128-.452-.192-.78-.192h-.456c-.408 0-.708.076-.9.228-.184.152-.276.38-.276.684 0 .272.08.472.24.6.16.128.412.22.756.276l.888.144c.712.112 1.228.32 1.548.624.328.304.492.744.492 1.32 0 .608-.196 1.088-.588 1.44-.384.344-.968.516-1.752.516h-.504Z"/>
  <path fill="var(--foreground-higher)" id="shift-sx" d="M40.408 184.096c-.68 0-1.22-.152-1.62-.456-.4-.312-.632-.732-.696-1.26h1.08a.844.844 0 0 0 .384.552c.216.136.5.204.852.204h.504c.424 0 .74-.084.948-.252a.867.867 0 0 0 .312-.696c0-.544-.372-.876-1.116-.996l-.888-.144c-.648-.112-1.132-.312-1.452-.6-.312-.296-.468-.724-.468-1.284 0-.592.188-1.048.564-1.368.376-.328.94-.492 1.692-.492h.456c.632 0 1.14.148 1.524.444.384.296.616.696.696 1.2H42.1a.768.768 0 0 0-.36-.492c-.192-.128-.452-.192-.78-.192h-.456c-.408 0-.708.076-.9.228-.184.152-.276.38-.276.684 0 .272.08.472.24.6.16.128.412.22.756.276l.888.144c.712.112 1.228.32 1.548.624.328.304.492.744.492 1.32 0 .608-.196 1.088-.588 1.44-.384.344-.968.516-1.752.516h-.504ZM45.31 184v-8.76h1.08v3.42h.012c.056-.44.236-.78.54-1.02.304-.24.708-.36 1.212-.36.664 0 1.192.204 1.584.612.392.408.588.964.588 1.668V184h-1.08v-4.32c0-.472-.128-.836-.384-1.092-.248-.264-.588-.396-1.02-.396-.448 0-.804.14-1.068.42-.256.28-.384.676-.384 1.188v4.2h-1.08Zm7.111 0v-.984h2.34v-4.632h-2.04v-.984h3.12v5.616h2.22V184h-5.64Zm2.76-7.788c-.264 0-.472-.068-.624-.204a.704.704 0 0 1-.228-.552c0-.24.076-.428.228-.564.152-.144.36-.216.624-.216s.472.072.624.216c.152.136.228.324.228.564a.704.704 0 0 1-.228.552c-.152.136-.36.204-.624.204ZM61.238 184v-4.956h-1.92v-.984h1.92v-1.14c0-.52.164-.928.492-1.224.328-.304.78-.456 1.356-.456h1.932v.984h-1.932c-.512 0-.768.232-.768.696v1.14h2.7v.984h-2.7V184h-1.08Zm8.875 0c-.568 0-1.012-.152-1.332-.456-.312-.304-.468-.732-.468-1.284v-3.876h-1.86v-.984h1.86v-1.86h1.08v1.86h2.64v.984h-2.64v3.876c0 .504.24.756.72.756h1.8V184h-1.8Z"/>
  <path fill="var(--foreground-higher)" id="control-sx" d="M19.964 236.12c-.8 0-1.44-.224-1.92-.672-.472-.448-.708-1.064-.708-1.848v-1.8c0-.784.236-1.4.708-1.848.48-.448 1.12-.672 1.92-.672.76 0 1.372.204 1.836.612.464.408.708.964.732 1.668h-1.08c-.024-.424-.168-.748-.432-.972-.256-.232-.608-.348-1.056-.348-.472 0-.848.136-1.128.408-.28.264-.42.644-.42 1.14v1.812c0 .496.14.88.42 1.152.28.272.656.408 1.128.408.448 0 .8-.116 1.056-.348.264-.232.408-.556.432-.972h1.08c-.024.704-.268 1.26-.732 1.668-.464.408-1.076.612-1.836.612Zm7.148-.024c-.8 0-1.432-.224-1.896-.672-.456-.456-.684-1.072-.684-1.848v-1.752c0-.784.228-1.4.684-1.848.464-.448 1.096-.672 1.896-.672.8 0 1.428.224 1.884.672.464.448.696 1.06.696 1.836v1.764c0 .776-.232 1.392-.696 1.848-.456.448-1.084.672-1.884.672Zm0-.96c.472 0 .84-.132 1.104-.396.264-.264.396-.652.396-1.164v-1.752c0-.512-.132-.9-.396-1.164-.264-.264-.632-.396-1.104-.396-.464 0-.832.132-1.104.396-.264.264-.396.652-.396 1.164v1.752c0 .512.132.9.396 1.164.272.264.64.396 1.104.396Zm4.699.864v-6.6h1.08v1.26h.012c.056-.44.236-.78.54-1.02.304-.24.708-.36 1.212-.36.664 0 1.192.204 1.584.612.392.408.588.964.588 1.668V236h-1.08v-4.32c0-.472-.128-.832-.384-1.08-.248-.256-.588-.384-1.02-.384-.448 0-.804.136-1.068.408-.256.272-.384.664-.384 1.176v4.2h-1.08Zm10.411 0c-.568 0-1.012-.152-1.332-.456-.312-.304-.468-.732-.468-1.284v-3.876h-1.86v-.984h1.86v-1.86h1.08v1.86h2.64v.984h-2.64v3.876c0 .504.24.756.72.756h1.8V236h-1.8Zm4.208 0v-6.6h1.056v1.176c.216-.864.796-1.296 1.74-1.296.696 0 1.248.22 1.656.66.416.432.624 1.02.624 1.764v.396h-1.08v-.3c0-.52-.128-.916-.384-1.188-.248-.28-.604-.42-1.068-.42-.456 0-.816.14-1.08.42-.256.28-.384.676-.384 1.188v4.2h-1.08Zm9.463.096c-.8 0-1.432-.224-1.896-.672-.456-.456-.684-1.072-.684-1.848v-1.752c0-.784.228-1.4.684-1.848.464-.448 1.096-.672 1.896-.672.8 0 1.428.224 1.884.672.464.448.696 1.06.696 1.836v1.764c0 .776-.232 1.392-.696 1.848-.456.448-1.084.672-1.884.672Zm0-.96c.472 0 .84-.132 1.104-.396.264-.264.396-.652.396-1.164v-1.752c0-.512-.132-.9-.396-1.164-.264-.264-.632-.396-1.104-.396-.464 0-.832.132-1.104.396-.264.264-.396.652-.396 1.164v1.752c0 .512.132.9.396 1.164.272.264.64.396 1.104.396Zm8.155.864c-.584 0-1.052-.168-1.404-.504-.344-.344-.516-.796-.516-1.356v-5.916h-2.28v-.984h3.36v6.9c0 .272.076.488.228.648.152.152.356.228.612.228h2.04V236h-2.04Z"/>
  <path fill="var(--foreground-higher)" id="fn-sx" d="M106.445 236v-4.956h-1.92v-.984h1.92v-1.14c0-.52.164-.928.492-1.224.328-.304.78-.456 1.356-.456h1.932v.984h-1.932c-.512 0-.768.232-.768.696v1.14h2.7v.984h-2.7V236h-1.08Zm5.659 0v-6.6h1.08v1.26h.012c.056-.44.236-.78.54-1.02.304-.24.708-.36 1.212-.36.664 0 1.192.204 1.584.612.392.408.588.964.588 1.668V236h-1.08v-4.32c0-.472-.128-.832-.384-1.08-.248-.256-.588-.384-1.02-.384-.448 0-.804.136-1.068.408-.256.272-.384.664-.384 1.176v4.2h-1.08Z"/>
  <path fill="var(--foreground-higher)" id="os-sx" d="M159.405 236.096c-.8 0-1.432-.224-1.896-.672-.456-.456-.684-1.072-.684-1.848v-1.752c0-.784.228-1.4.684-1.848.464-.448 1.096-.672 1.896-.672.8 0 1.428.224 1.884.672.464.448.696 1.06.696 1.836v1.764c0 .776-.232 1.392-.696 1.848-.456.448-1.084.672-1.884.672Zm0-.96c.472 0 .84-.132 1.104-.396.264-.264.396-.652.396-1.164v-1.752c0-.512-.132-.9-.396-1.164-.264-.264-.632-.396-1.104-.396-.464 0-.832.132-1.104.396-.264.264-.396.652-.396 1.164v1.752c0 .512.132.9.396 1.164.272.264.64.396 1.104.396Zm6.991.96c-.68 0-1.22-.152-1.62-.456-.4-.312-.632-.732-.696-1.26h1.08a.844.844 0 0 0 .384.552c.216.136.5.204.852.204h.504c.424 0 .74-.084.948-.252a.867.867 0 0 0 .312-.696c0-.544-.372-.876-1.116-.996l-.888-.144c-.648-.112-1.132-.312-1.452-.6-.312-.296-.468-.724-.468-1.284 0-.592.188-1.048.564-1.368.376-.328.94-.492 1.692-.492h.456c.632 0 1.14.148 1.524.444.384.296.616.696.696 1.2h-1.08a.768.768 0 0 0-.36-.492c-.192-.128-.452-.192-.78-.192h-.456c-.408 0-.708.076-.9.228-.184.152-.276.38-.276.684 0 .272.08.472.24.6.16.128.412.22.756.276l.888.144c.712.112 1.228.32 1.548.624.328.304.492.744.492 1.32 0 .608-.196 1.088-.588 1.44-.384.344-.968.516-1.752.516h-.504Z"/>
  <path fill="var(--foreground-higher)" id="alt-sx" d="M207.231 236.12c-.696 0-1.244-.176-1.644-.528-.4-.36-.6-.844-.6-1.452 0-.616.2-1.1.6-1.452.4-.352.94-.528 1.62-.528h2.04v-.66c0-.4-.124-.712-.372-.936-.24-.224-.584-.336-1.032-.336-.392 0-.716.084-.972.252a.982.982 0 0 0-.468.66h-1.08c.072-.568.34-1.02.804-1.356.464-.336 1.044-.504 1.74-.504.76 0 1.36.196 1.8.588.44.392.66.924.66 1.596V236h-1.056v-1.26h-.012c-.048.424-.256.76-.624 1.008-.36.248-.828.372-1.404.372Zm.264-.852c.512 0 .932-.128 1.26-.384.328-.256.492-.584.492-.984v-.936h-2.016c-.36 0-.644.1-.852.3-.208.2-.312.472-.312.816 0 .368.124.66.372.876.256.208.608.312 1.056.312Zm8.467.732c-.584 0-1.052-.168-1.404-.504-.344-.344-.516-.796-.516-1.356v-5.916h-2.28v-.984h3.36v6.9c0 .272.076.488.228.648.152.152.356.228.612.228h2.04V236h-2.04Zm6.956 0c-.568 0-1.012-.152-1.332-.456-.312-.304-.468-.732-.468-1.284v-3.876h-1.86v-.984h1.86v-1.86h1.08v1.86h2.64v.984h-2.64v3.876c0 .504.24.756.72.756h1.8V236h-1.8Z"/>
  <path fill="var(--foreground-higher)" id="backspace" d="M697.605 28.12c-.496 0-.904-.12-1.224-.36-.32-.248-.508-.588-.564-1.02h-.012V28h-1.08v-8.76h1.08v1.92l-.024 1.5h.036c.056-.424.244-.76.564-1.008.32-.248.728-.372 1.224-.372.664 0 1.196.22 1.596.66.4.44.6 1.04.6 1.8v1.932c0 .752-.2 1.348-.6 1.788-.4.44-.932.66-1.596.66Zm-.36-.936c.456 0 .816-.136 1.08-.408.264-.272.396-.664.396-1.176v-1.8c0-.512-.132-.904-.396-1.176-.264-.272-.624-.408-1.08-.408-.44 0-.792.14-1.056.42-.256.28-.384.668-.384 1.164v1.8c0 .496.128.884.384 1.164.264.28.616.42 1.056.42Zm6.595.936c-.696 0-1.244-.176-1.644-.528-.4-.36-.6-.844-.6-1.452 0-.616.2-1.1.6-1.452.4-.352.94-.528 1.62-.528h2.04v-.66c0-.4-.124-.712-.372-.936-.24-.224-.584-.336-1.032-.336-.392 0-.716.084-.972.252a.982.982 0 0 0-.468.66h-1.08c.072-.568.34-1.02.804-1.356.464-.336 1.044-.504 1.74-.504.76 0 1.36.196 1.8.588.44.392.66.924.66 1.596V28h-1.056v-1.26h-.012c-.048.424-.256.76-.624 1.008-.36.248-.828.372-1.404.372Zm.264-.852c.512 0 .932-.128 1.26-.384.328-.256.492-.584.492-.984v-.936h-2.016c-.36 0-.644.1-.852.3-.208.2-.312.472-.312.816 0 .368.124.66.372.876.256.208.608.312 1.056.312Zm7.556.852c-.8 0-1.44-.224-1.92-.672-.472-.448-.708-1.064-.708-1.848v-1.8c0-.784.236-1.4.708-1.848.48-.448 1.12-.672 1.92-.672.76 0 1.372.204 1.836.612.464.408.708.964.732 1.668h-1.08c-.024-.424-.168-.748-.432-.972-.256-.232-.608-.348-1.056-.348-.472 0-.848.136-1.128.408-.28.264-.42.644-.42 1.14V25.6c0 .496.14.88.42 1.152.28.272.656.408 1.128.408.448 0 .8-.116 1.056-.348.264-.232.408-.556.432-.972h1.08c-.024.704-.268 1.26-.732 1.668-.464.408-1.076.612-1.836.612Zm4.687-.12v-8.76h1.08v4.884h1.272l1.92-2.724h1.236l-2.22 3.144L721.891 28h-1.26l-1.92-2.94h-1.284V28h-1.08Zm9.451.096c-.68 0-1.22-.152-1.62-.456-.4-.312-.632-.732-.696-1.26h1.08a.844.844 0 0 0 .384.552c.216.136.5.204.852.204h.504c.424 0 .74-.084.948-.252a.867.867 0 0 0 .312-.696c0-.544-.372-.876-1.116-.996l-.888-.144c-.648-.112-1.132-.312-1.452-.6-.312-.296-.468-.724-.468-1.284 0-.592.188-1.048.564-1.368.376-.328.94-.492 1.692-.492h.456c.632 0 1.14.148 1.524.444.384.296.616.696.696 1.2h-1.08a.768.768 0 0 0-.36-.492c-.192-.128-.452-.192-.78-.192h-.456c-.408 0-.708.076-.9.228-.184.152-.276.38-.276.684 0 .272.08.472.24.6.16.128.412.22.756.276l.888.144c.712.112 1.228.32 1.548.624.328.304.492.744.492 1.32 0 .608-.196 1.088-.588 1.44-.384.344-.968.516-1.752.516h-.504Zm4.904 2.064V21.4h1.08v1.26h.012c.056-.432.244-.768.564-1.008.328-.248.74-.372 1.236-.372.664 0 1.192.22 1.584.66.4.432.6 1.028.6 1.788v1.932c0 .76-.2 1.36-.6 1.8-.392.44-.92.66-1.584.66-.496 0-.904-.124-1.224-.372a1.509 1.509 0 0 1-.576-1.008h-.036l.024 1.5v1.92h-1.08Zm2.532-2.976c.456 0 .812-.136 1.068-.408.264-.272.396-.664.396-1.176v-1.8c0-.512-.132-.904-.396-1.176-.256-.272-.612-.408-1.068-.408-.44 0-.792.14-1.056.42-.264.28-.396.668-.396 1.164v1.8c0 .496.132.884.396 1.164.264.28.616.42 1.056.42Zm6.583.936c-.696 0-1.244-.176-1.644-.528-.4-.36-.6-.844-.6-1.452 0-.616.2-1.1.6-1.452.4-.352.94-.528 1.62-.528h2.04v-.66c0-.4-.124-.712-.372-.936-.24-.224-.584-.336-1.032-.336-.392 0-.716.084-.972.252a.982.982 0 0 0-.468.66h-1.08c.072-.568.34-1.02.804-1.356.464-.336 1.044-.504 1.74-.504.76 0 1.36.196 1.8.588.44.392.66.924.66 1.596V28h-1.056v-1.26h-.012c-.048.424-.256.76-.624 1.008-.36.248-.828.372-1.404.372Zm.264-.852c.512 0 .932-.128 1.26-.384.328-.256.492-.584.492-.984v-.936h-2.016c-.36 0-.644.1-.852.3-.208.2-.312.472-.312.816 0 .368.124.66.372.876.256.208.608.312 1.056.312Zm7.555.852c-.8 0-1.44-.224-1.92-.672-.472-.448-.708-1.064-.708-1.848v-1.8c0-.784.236-1.4.708-1.848.48-.448 1.12-.672 1.92-.672.76 0 1.372.204 1.836.612.464.408.708.964.732 1.668h-1.08c-.024-.424-.168-.748-.432-.972-.256-.232-.608-.348-1.056-.348-.472 0-.848.136-1.128.408-.28.264-.42.644-.42 1.14V25.6c0 .496.14.88.42 1.152.28.272.656.408 1.128.408.448 0 .8-.116 1.056-.348.264-.232.408-.556.432-.972h1.08c-.024.704-.268 1.26-.732 1.668-.464.408-1.076.612-1.836.612Zm7.148 0c-.52 0-.976-.104-1.368-.312a2.258 2.258 0 0 1-.9-.876c-.208-.384-.312-.828-.312-1.332v-1.8c0-.512.104-.956.312-1.332.216-.376.516-.668.9-.876.392-.208.848-.312 1.368-.312.52 0 .972.104 1.356.312.392.208.692.5.9.876.216.376.324.82.324 1.332v1.164h-4.104v.636c0 .52.132.92.396 1.2.264.272.64.408 1.128.408.416 0 .752-.072 1.008-.216a.953.953 0 0 0 .468-.672h1.08c-.072.552-.344.992-.816 1.32-.464.32-1.044.48-1.74.48Zm-1.524-3.972h3.048V23.8c0-.52-.132-.92-.396-1.2-.256-.28-.632-.42-1.128-.42-.488 0-.864.14-1.128.42-.264.28-.396.68-.396 1.2v.348Z"/>
  <path fill="var(--foreground-higher)" id="\" d="m740.562 81.32-4.26-11.28h1.14l4.26 11.28h-1.14Z"/>
  <path fill="var(--foreground-higher)" id="return" d="M696.746 132v-6.6h1.056v1.176c.216-.864.796-1.296 1.74-1.296.696 0 1.248.22 1.656.66.416.432.624 1.02.624 1.764v.396h-1.08v-.3c0-.52-.128-.916-.384-1.188-.248-.28-.604-.42-1.068-.42-.456 0-.816.14-1.08.42-.256.28-.384.676-.384 1.188v4.2h-1.08Zm9.463.12c-.52 0-.976-.104-1.368-.312a2.258 2.258 0 0 1-.9-.876c-.208-.384-.312-.828-.312-1.332v-1.8c0-.512.104-.956.312-1.332.216-.376.516-.668.9-.876.392-.208.848-.312 1.368-.312.52 0 .972.104 1.356.312.392.208.692.5.9.876.216.376.324.82.324 1.332v1.164h-4.104v.636c0 .52.132.92.396 1.2.264.272.64.408 1.128.408.416 0 .752-.072 1.008-.216a.953.953 0 0 0 .468-.672h1.08c-.072.552-.344.992-.816 1.32-.464.32-1.044.48-1.74.48Zm-1.524-3.972h3.048v-.348c0-.52-.132-.92-.396-1.2-.256-.28-.632-.42-1.128-.42-.488 0-.864.14-1.128.42-.264.28-.396.68-.396 1.2v.348Zm9.44 3.852c-.568 0-1.012-.152-1.332-.456-.312-.304-.468-.732-.468-1.284v-3.876h-1.86v-.984h1.86v-1.86h1.08v1.86h2.64v.984h-2.64v3.876c0 .504.24.756.72.756h1.8V132h-1.8Zm6.463.12c-.76 0-1.368-.224-1.824-.672-.456-.456-.684-1.072-.684-1.848v-4.2h1.08v4.2c0 .496.128.884.384 1.164.256.272.604.408 1.044.408.448 0 .8-.136 1.056-.408.264-.28.396-.668.396-1.164v-4.2h1.08v4.2c0 .776-.232 1.392-.696 1.848-.464.448-1.076.672-1.836.672Zm4.939-.12v-6.6h1.056v1.176c.216-.864.796-1.296 1.74-1.296.696 0 1.248.22 1.656.66.416.432.624 1.02.624 1.764v.396h-1.08v-.3c0-.52-.128-.916-.384-1.188-.248-.28-.604-.42-1.068-.42-.456 0-.816.14-1.08.42-.256.28-.384.676-.384 1.188v4.2h-1.08Zm6.968 0v-6.6h1.08v1.26h.012c.056-.44.236-.78.54-1.02.304-.24.708-.36 1.212-.36.664 0 1.192.204 1.584.612.392.408.588.964.588 1.668V132h-1.08v-4.32c0-.472-.128-.832-.384-1.08-.248-.256-.588-.384-1.02-.384-.448 0-.804.136-1.068.408-.256.272-.384.664-.384 1.176v4.2h-1.08Z"/>
  <path fill="var(--foreground-higher)" id="shift-dx" d="M690.408 184.096c-.68 0-1.22-.152-1.62-.456-.4-.312-.632-.732-.696-1.26h1.08a.844.844 0 0 0 .384.552c.216.136.5.204.852.204h.504c.424 0 .74-.084.948-.252a.867.867 0 0 0 .312-.696c0-.544-.372-.876-1.116-.996l-.888-.144c-.648-.112-1.132-.312-1.452-.6-.312-.296-.468-.724-.468-1.284 0-.592.188-1.048.564-1.368.376-.328.94-.492 1.692-.492h.456c.632 0 1.14.148 1.524.444.384.296.616.696.696 1.2h-1.08a.768.768 0 0 0-.36-.492c-.192-.128-.452-.192-.78-.192h-.456c-.408 0-.708.076-.9.228-.184.152-.276.38-.276.684 0 .272.08.472.24.6.16.128.412.22.756.276l.888.144c.712.112 1.228.32 1.548.624.328.304.492.744.492 1.32 0 .608-.196 1.088-.588 1.44-.384.344-.968.516-1.752.516h-.504Zm4.903-.096v-8.76h1.08v3.42h.012c.056-.44.236-.78.54-1.02.304-.24.708-.36 1.212-.36.664 0 1.192.204 1.584.612.392.408.588.964.588 1.668V184h-1.08v-4.32c0-.472-.128-.836-.384-1.092-.248-.264-.588-.396-1.02-.396-.448 0-.804.14-1.068.42-.256.28-.384.676-.384 1.188v4.2h-1.08Zm7.111 0v-.984h2.34v-4.632h-2.04v-.984h3.12v5.616h2.22V184h-5.64Zm2.76-7.788c-.264 0-.472-.068-.624-.204a.704.704 0 0 1-.228-.552c0-.24.076-.428.228-.564.152-.144.36-.216.624-.216s.472.072.624.216c.152.136.228.324.228.564a.704.704 0 0 1-.228.552c-.152.136-.36.204-.624.204Zm6.056 7.788v-4.956h-1.92v-.984h1.92v-1.14c0-.52.164-.928.492-1.224.328-.304.78-.456 1.356-.456h1.932v.984h-1.932c-.512 0-.768.232-.768.696v1.14h2.7v.984h-2.7V184h-1.08Zm8.875 0c-.568 0-1.012-.152-1.332-.456-.312-.304-.468-.732-.468-1.284v-3.876h-1.86v-.984h1.86v-1.86h1.08v1.86h2.64v.984h-2.64v3.876c0 .504.24.756.72.756h1.8V184h-1.8Z"/>
  <path fill="var(--foreground-higher)" id="alt-dx" d="M532.731 236.12c-.696 0-1.244-.176-1.644-.528-.4-.36-.6-.844-.6-1.452 0-.616.2-1.1.6-1.452.4-.352.94-.528 1.62-.528h2.04v-.66c0-.4-.124-.712-.372-.936-.24-.224-.584-.336-1.032-.336-.392 0-.716.084-.972.252a.982.982 0 0 0-.468.66h-1.08c.072-.568.34-1.02.804-1.356.464-.336 1.044-.504 1.74-.504.76 0 1.36.196 1.8.588.44.392.66.924.66 1.596V236h-1.056v-1.26h-.012c-.048.424-.256.76-.624 1.008-.36.248-.828.372-1.404.372Zm.264-.852c.512 0 .932-.128 1.26-.384.328-.256.492-.584.492-.984v-.936h-2.016c-.36 0-.644.1-.852.3-.208.2-.312.472-.312.816 0 .368.124.66.372.876.256.208.608.312 1.056.312Zm8.467.732c-.584 0-1.052-.168-1.404-.504-.344-.344-.516-.796-.516-1.356v-5.916h-2.28v-.984h3.36v6.9c0 .272.076.488.228.648.152.152.356.228.612.228h2.04V236h-2.04Zm6.956 0c-.568 0-1.012-.152-1.332-.456-.312-.304-.468-.732-.468-1.284v-3.876h-1.86v-.984h1.86v-1.86h1.08v1.86h2.64v.984h-2.64v3.876c0 .504.24.756.72.756h1.8V236h-1.8Z"/>
  <path fill="var(--foreground-higher)" id="os-dx" d="M602.405 236.096c-.8 0-1.432-.224-1.896-.672-.456-.456-.684-1.072-.684-1.848v-1.752c0-.784.228-1.4.684-1.848.464-.448 1.096-.672 1.896-.672.8 0 1.428.224 1.884.672.464.448.696 1.06.696 1.836v1.764c0 .776-.232 1.392-.696 1.848-.456.448-1.084.672-1.884.672Zm0-.96c.472 0 .84-.132 1.104-.396.264-.264.396-.652.396-1.164v-1.752c0-.512-.132-.9-.396-1.164-.264-.264-.632-.396-1.104-.396-.464 0-.832.132-1.104.396-.264.264-.396.652-.396 1.164v1.752c0 .512.132.9.396 1.164.272.264.64.396 1.104.396Zm6.991.96c-.68 0-1.22-.152-1.62-.456-.4-.312-.632-.732-.696-1.26h1.08a.844.844 0 0 0 .384.552c.216.136.5.204.852.204h.504c.424 0 .74-.084.948-.252a.867.867 0 0 0 .312-.696c0-.544-.372-.876-1.116-.996l-.888-.144c-.648-.112-1.132-.312-1.452-.6-.312-.296-.468-.724-.468-1.284 0-.592.188-1.048.564-1.368.376-.328.94-.492 1.692-.492h.456c.632 0 1.14.148 1.524.444.384.296.616.696.696 1.2h-1.08a.768.768 0 0 0-.36-.492c-.192-.128-.452-.192-.78-.192h-.456c-.408 0-.708.076-.9.228-.184.152-.276.38-.276.684 0 .272.08.472.24.6.16.128.412.22.756.276l.888.144c.712.112 1.228.32 1.548.624.328.304.492.744.492 1.32 0 .608-.196 1.088-.588 1.44-.384.344-.968.516-1.752.516h-.504Z"/>
  <path fill="var(--foreground-higher)" id="menu" d="M644.401 236v-6.6h.948v.792h.072c.048-.28.164-.5.348-.66.192-.168.432-.252.72-.252.568 0 .928.304 1.08.912h.048c.048-.28.168-.5.36-.66a1.1 1.1 0 0 1 .732-.252c.416 0 .736.156.96.468.232.312.348.724.348 1.236V236h-.996v-5.028c0-.272-.06-.484-.18-.636-.112-.152-.28-.228-.504-.228a.64.64 0 0 0-.516.228c-.12.144-.18.352-.18.624V236h-.864v-5.028c0-.28-.064-.492-.192-.636-.12-.152-.292-.228-.516-.228-.224 0-.392.076-.504.228-.112.144-.168.352-.168.624V236h-.996Zm10.004.12c-.52 0-.976-.104-1.368-.312a2.258 2.258 0 0 1-.9-.876c-.208-.384-.312-.828-.312-1.332v-1.8c0-.512.104-.956.312-1.332.216-.376.516-.668.9-.876.392-.208.848-.312 1.368-.312.52 0 .972.104 1.356.312.392.208.692.5.9.876.216.376.324.82.324 1.332v1.164h-4.104v.636c0 .52.132.92.396 1.2.264.272.64.408 1.128.408.416 0 .752-.072 1.008-.216a.953.953 0 0 0 .468-.672h1.08c-.072.552-.344.992-.816 1.32-.464.32-1.044.48-1.74.48Zm-1.524-3.972h3.048v-.348c0-.52-.132-.92-.396-1.2-.256-.28-.632-.42-1.128-.42-.488 0-.864.14-1.128.42-.264.28-.396.68-.396 1.2v.348Zm6.223 3.852v-6.6h1.08v1.26h.012c.056-.44.236-.78.54-1.02.304-.24.708-.36 1.212-.36.664 0 1.192.204 1.584.612.392.408.588.964.588 1.668V236h-1.08v-4.32c0-.472-.128-.832-.384-1.08-.248-.256-.588-.384-1.02-.384-.448 0-.804.136-1.068.408-.256.272-.384.664-.384 1.176v4.2h-1.08Zm9.679.12c-.76 0-1.368-.224-1.824-.672-.456-.456-.684-1.072-.684-1.848v-4.2h1.08v4.2c0 .496.128.884.384 1.164.256.272.604.408 1.044.408.448 0 .8-.136 1.056-.408.264-.28.396-.668.396-1.164v-4.2h1.08v4.2c0 .776-.232 1.392-.696 1.848-.464.448-1.076.672-1.836.672Z"/>
  <path fill="var(--foreground-higher)" id="control-dx" d="M709.464 236.12c-.8 0-1.44-.224-1.92-.672-.472-.448-.708-1.064-.708-1.848v-1.8c0-.784.236-1.4.708-1.848.48-.448 1.12-.672 1.92-.672.76 0 1.372.204 1.836.612.464.408.708.964.732 1.668h-1.08c-.024-.424-.168-.748-.432-.972-.256-.232-.608-.348-1.056-.348-.472 0-.848.136-1.128.408-.28.264-.42.644-.42 1.14v1.812c0 .496.14.88.42 1.152.28.272.656.408 1.128.408.448 0 .8-.116 1.056-.348.264-.232.408-.556.432-.972h1.08c-.024.704-.268 1.26-.732 1.668-.464.408-1.076.612-1.836.612Zm7.148-.024c-.8 0-1.432-.224-1.896-.672-.456-.456-.684-1.072-.684-1.848v-1.752c0-.784.228-1.4.684-1.848.464-.448 1.096-.672 1.896-.672.8 0 1.428.224 1.884.672.464.448.696 1.06.696 1.836v1.764c0 .776-.232 1.392-.696 1.848-.456.448-1.084.672-1.884.672Zm0-.96c.472 0 .84-.132 1.104-.396.264-.264.396-.652.396-1.164v-1.752c0-.512-.132-.9-.396-1.164-.264-.264-.632-.396-1.104-.396-.464 0-.832.132-1.104.396-.264.264-.396.652-.396 1.164v1.752c0 .512.132.9.396 1.164.272.264.64.396 1.104.396Zm4.699.864v-6.6h1.08v1.26h.012c.056-.44.236-.78.54-1.02.304-.24.708-.36 1.212-.36.664 0 1.192.204 1.584.612.392.408.588.964.588 1.668V236h-1.08v-4.32c0-.472-.128-.832-.384-1.08-.248-.256-.588-.384-1.02-.384-.448 0-.804.136-1.068.408-.256.272-.384.664-.384 1.176v4.2h-1.08Zm10.411 0c-.568 0-1.012-.152-1.332-.456-.312-.304-.468-.732-.468-1.284v-3.876h-1.86v-.984h1.86v-1.86h1.08v1.86h2.64v.984h-2.64v3.876c0 .504.24.756.72.756h1.8V236h-1.8Zm4.208 0v-6.6h1.056v1.176c.216-.864.796-1.296 1.74-1.296.696 0 1.248.22 1.656.66.416.432.624 1.02.624 1.764v.396h-1.08v-.3c0-.52-.128-.916-.384-1.188-.248-.28-.604-.42-1.068-.42-.456 0-.816.14-1.08.42-.256.28-.384.676-.384 1.188v4.2h-1.08Zm9.463.096c-.8 0-1.432-.224-1.896-.672-.456-.456-.684-1.072-.684-1.848v-1.752c0-.784.228-1.4.684-1.848.464-.448 1.096-.672 1.896-.672.8 0 1.428.224 1.884.672.464.448.696 1.06.696 1.836v1.764c0 .776-.232 1.392-.696 1.848-.456.448-1.084.672-1.884.672Zm0-.96c.472 0 .84-.132 1.104-.396.264-.264.396-.652.396-1.164v-1.752c0-.512-.132-.9-.396-1.164-.264-.264-.632-.396-1.104-.396-.464 0-.832.132-1.104.396-.264.264-.396.652-.396 1.164v1.752c0 .512.132.9.396 1.164.272.264.64.396 1.104.396Zm8.155.864c-.584 0-1.052-.168-1.404-.504-.344-.344-.516-.796-.516-1.356v-5.916h-2.28v-.984h3.36v6.9c0 .272.076.488.228.648.152.152.356.228.612.228h2.04V236h-2.04Z"/>
</svg>
