<!-- Copyright 2022–Today (c) Giovanni Tramutola. All rights reserved. -->
<svg xmlns="http://www.w3.org/2000/svg" fill="none" viewBox="0 0 776 256">
  <style>
    :root {
      --accent: #0055FF;
      --background-lower: #FFF;
      --background-higher: #EBEBEB;
      --foreground-lower: #FFF;
      --foreground-higher: #141414;
    }
  </style>
  <rect fill="var(--background-lower)" width="255" height="47" x="243.5" y="208.5" rx="2.5"/>
  <rect fill="var(--background-lower)" width="47" height="47" x=".5" y=".5" rx="2.5"/>
  <rect fill="var(--background-lower)" width="47" height="47" x="104.5" y=".5" rx="2.5"/>
  <rect fill="var(--background-lower)" width="47" height="47" x="114.5" y="156.5" rx="2.5"/>
  <rect fill="var(--background-lower)" width="47" height="47" x="130.5" y="52.5" rx="2.5"/>
  <rect fill="var(--background-lower)" width="47" height="47" x="138.5" y="104.5" rx="2.5"/>
  <rect fill="var(--background-lower)" width="47" height="47" x="156.5" y=".5" rx="2.5"/>
  <rect fill="var(--background-lower)" width="47" height="47" x="166.5" y="156.5" rx="2.5"/>
  <rect fill="var(--background-lower)" width="47" height="47" x="182.5" y="52.5" rx="2.5"/>
  <rect fill="var(--background-lower)" width="47" height="47" x="190.5" y="104.5" rx="2.5"/>
  <rect fill="var(--background-lower)" width="47" height="47" x="208.5" y=".5" rx="2.5"/>
  <rect fill="var(--background-lower)" width="47" height="47" x="218.5" y="156.5" rx="2.5"/>
  <rect fill="var(--background-lower)" width="47" height="47" x="234.5" y="52.5" rx="2.5"/>
  <rect fill="var(--background-lower)" width="47" height="47" x="242.5" y="104.5" rx="2.5"/>
  <rect fill="var(--background-lower)" width="47" height="47" x="260.5" y=".5" rx="2.5"/>
  <rect fill="var(--background-lower)" width="47" height="47" x="270.5" y="156.5" rx="2.5"/>
  <rect fill="var(--background-lower)" width="47" height="47" x="286.5" y="52.5" rx="2.5"/>
  <rect fill="var(--background-lower)" width="47" height="47" x="294.5" y="104.5" rx="2.5"/>
  <rect fill="var(--background-lower)" width="47" height="47" x="312.5" y=".5" rx="2.5"/>
  <rect fill="var(--background-lower)" width="47" height="47" x="322.5" y="156.5" rx="2.5"/>
  <rect fill="var(--background-lower)" width="47" height="47" x="338.5" y="52.5" rx="2.5"/>
  <rect fill="var(--background-lower)" width="47" height="47" x="346.5" y="104.5" rx="2.5"/>
  <rect fill="var(--background-lower)" width="47" height="47" x="364.5" y=".5" rx="2.5"/>
  <rect fill="var(--background-lower)" width="47" height="47" x="374.5" y="156.5" rx="2.5"/>
  <rect fill="var(--background-lower)" width="47" height="47" x="390.5" y="52.5" rx="2.5"/>
  <rect fill="var(--background-lower)" width="47" height="47" x="398.5" y="104.5" rx="2.5"/>
  <rect fill="var(--background-lower)" width="47" height="47" x="416.5" y=".5" rx="2.5"/>
  <rect fill="var(--background-lower)" width="47" height="47" x="426.5" y="156.5" rx="2.5"/>
  <rect fill="var(--background-lower)" width="47" height="47" x="442.5" y="52.5" rx="2.5"/>
  <rect fill="var(--background-lower)" width="47" height="47" x="450.5" y="104.5" rx="2.5"/>
  <rect fill="var(--background-lower)" width="47" height="47" x="468.5" y=".5" rx="2.5"/>
  <rect fill="var(--background-lower)" width="47" height="47" x="478.5" y="156.5" rx="2.5"/>
  <rect fill="var(--background-lower)" width="47" height="47" x="494.5" y="52.5" rx="2.5"/>
  <rect fill="var(--background-lower)" width="47" height="47" x="502.5" y="104.5" rx="2.5"/>
  <rect fill="var(--background-lower)" width="47" height="47" x="52.5" y=".5" rx="2.5"/>
  <rect fill="var(--background-lower)" width="47" height="47" x="520.5" y=".5" rx="2.5"/>
  <rect fill="var(--background-lower)" width="47" height="47" x="530.5" y="156.5" rx="2.5"/>
  <rect fill="var(--background-lower)" width="47" height="47" x="546.5" y="52.5" rx="2.5"/>
  <rect fill="var(--background-lower)" width="47" height="47" x="554.5" y="104.5" rx="2.5"/>
  <rect fill="var(--background-lower)" width="47" height="47" x="572.5" y=".5" rx="2.5"/>
  <rect fill="var(--background-lower)" width="47" height="47" x="582.5" y="156.5" rx="2.5"/>
  <rect fill="var(--background-lower)" width="47" height="47" x="598.5" y="52.5" rx="2.5"/>
  <rect fill="var(--background-lower)" width="47" height="47" x="606.5" y="104.5" rx="2.5"/>
  <rect fill="var(--background-lower)" width="47" height="47" x="624.5" y=".5" rx="2.5"/>
  <rect fill="var(--background-lower)" width="47" height="47" x="650.5" y="52.5" rx="2.5"/>
  <rect fill="var(--background-lower)" width="47" height="47" x="78.5" y="52.5" rx="2.5"/>
  <rect fill="var(--background-lower)" width="47" height="47" x="86.5" y="104.5" rx="2.5"/>
  <rect fill="var(--background-higher)" width="117" height="47" x="658.5" y="104.5" rx="2.5"/>
  <rect fill="var(--background-higher)" width="47" height="47" x="139.5" y="208.5" rx="2.5"/>
  <rect fill="var(--background-higher)" width="47" height="47" x="191.5" y="208.5" rx="2.5"/>
  <rect fill="var(--background-higher)" width="47" height="47" x="582.5" y="208.5" rx="2.5"/>
  <rect fill="var(--background-higher)" width="47" height="47" x="634.5" y="208.5" rx="2.5"/>
  <rect fill="var(--background-higher)" width="47" height="47" x="87.5" y="208.5" rx="2.5"/>
  <rect fill="var(--background-higher)" width="73" height="47" x=".5" y="52.5" rx="2.5"/>
  <rect fill="var(--background-higher)" width="73" height="47" x="702.5" y="52.5" rx="2.5"/>
  <rect fill="var(--background-higher)" width="74" height="47" x="503.5" y="208.5" rx="2.5"/>
  <rect fill="var(--background-higher)" width="81" height="47" x=".5" y="104.5" rx="2.5"/>
  <rect fill="var(--background-higher)" width="82" height="47" x=".5" y="208.5" rx="2.5"/>
  <rect fill="var(--background-higher)" width="89" height="47" x="686.5" y="208.5" rx="2.5"/>
  <rect fill="var(--background-higher)" width="99" height="47" x="676.5" y=".5" rx="2.5"/>
  <rect fill="var(--accent)" width="109" height="47" x=".5" y="156.5" rx="2.5"/>
  <rect fill="var(--accent)" width="141" height="47" x="634.5" y="156.5" rx="2.5"/>
  <rect stroke="var(--background-higher)" width="117" height="47" x="658.5" y="104.5" rx="2.5"/>
  <rect stroke="var(--background-higher)" width="255" height="47" x="243.5" y="208.5" rx="2.5"/>
  <rect stroke="var(--background-higher)" width="47" height="47" x=".5" y=".5" rx="2.5"/>
  <rect stroke="var(--background-higher)" width="47" height="47" x="104.5" y=".5" rx="2.5"/>
  <rect stroke="var(--background-higher)" width="47" height="47" x="114.5" y="156.5" rx="2.5"/>
  <rect stroke="var(--background-higher)" width="47" height="47" x="130.5" y="52.5" rx="2.5"/>
  <rect stroke="var(--background-higher)" width="47" height="47" x="138.5" y="104.5" rx="2.5"/>
  <rect stroke="var(--background-higher)" width="47" height="47" x="139.5" y="208.5" rx="2.5"/>
  <rect stroke="var(--background-higher)" width="47" height="47" x="156.5" y=".5" rx="2.5"/>
  <rect stroke="var(--background-higher)" width="47" height="47" x="166.5" y="156.5" rx="2.5"/>
  <rect stroke="var(--background-higher)" width="47" height="47" x="182.5" y="52.5" rx="2.5"/>
  <rect stroke="var(--background-higher)" width="47" height="47" x="190.5" y="104.5" rx="2.5"/>
  <rect stroke="var(--background-higher)" width="47" height="47" x="191.5" y="208.5" rx="2.5"/>
  <rect stroke="var(--background-higher)" width="47" height="47" x="208.5" y=".5" rx="2.5"/>
  <rect stroke="var(--background-higher)" width="47" height="47" x="218.5" y="156.5" rx="2.5"/>
  <rect stroke="var(--background-higher)" width="47" height="47" x="234.5" y="52.5" rx="2.5"/>
  <rect stroke="var(--background-higher)" width="47" height="47" x="242.5" y="104.5" rx="2.5"/>
  <rect stroke="var(--background-higher)" width="47" height="47" x="260.5" y=".5" rx="2.5"/>
  <rect stroke="var(--background-higher)" width="47" height="47" x="270.5" y="156.5" rx="2.5"/>
  <rect stroke="var(--background-higher)" width="47" height="47" x="286.5" y="52.5" rx="2.5"/>
  <rect stroke="var(--background-higher)" width="47" height="47" x="294.5" y="104.5" rx="2.5"/>
  <rect stroke="var(--background-higher)" width="47" height="47" x="312.5" y=".5" rx="2.5"/>
  <rect stroke="var(--background-higher)" width="47" height="47" x="322.5" y="156.5" rx="2.5"/>
  <rect stroke="var(--background-higher)" width="47" height="47" x="338.5" y="52.5" rx="2.5"/>
  <rect stroke="var(--background-higher)" width="47" height="47" x="346.5" y="104.5" rx="2.5"/>
  <rect stroke="var(--background-higher)" width="47" height="47" x="364.5" y=".5" rx="2.5"/>
  <rect stroke="var(--background-higher)" width="47" height="47" x="374.5" y="156.5" rx="2.5"/>
  <rect stroke="var(--background-higher)" width="47" height="47" x="390.5" y="52.5" rx="2.5"/>
  <rect stroke="var(--background-higher)" width="47" height="47" x="398.5" y="104.5" rx="2.5"/>
  <rect stroke="var(--background-higher)" width="47" height="47" x="416.5" y=".5" rx="2.5"/>
  <rect stroke="var(--background-higher)" width="47" height="47" x="426.5" y="156.5" rx="2.5"/>
  <rect stroke="var(--background-higher)" width="47" height="47" x="442.5" y="52.5" rx="2.5"/>
  <rect stroke="var(--background-higher)" width="47" height="47" x="450.5" y="104.5" rx="2.5"/>
  <rect stroke="var(--background-higher)" width="47" height="47" x="468.5" y=".5" rx="2.5"/>
  <rect stroke="var(--background-higher)" width="47" height="47" x="478.5" y="156.5" rx="2.5"/>
  <rect stroke="var(--background-higher)" width="47" height="47" x="494.5" y="52.5" rx="2.5"/>
  <rect stroke="var(--background-higher)" width="47" height="47" x="502.5" y="104.5" rx="2.5"/>
  <rect stroke="var(--background-higher)" width="47" height="47" x="52.5" y=".5" rx="2.5"/>
  <rect stroke="var(--background-higher)" width="47" height="47" x="520.5" y=".5" rx="2.5"/>
  <rect stroke="var(--background-higher)" width="47" height="47" x="530.5" y="156.5" rx="2.5"/>
  <rect stroke="var(--background-higher)" width="47" height="47" x="546.5" y="52.5" rx="2.5"/>
  <rect stroke="var(--background-higher)" width="47" height="47" x="554.5" y="104.5" rx="2.5"/>
  <rect stroke="var(--background-higher)" width="47" height="47" x="572.5" y=".5" rx="2.5"/>
  <rect stroke="var(--background-higher)" width="47" height="47" x="582.5" y="156.5" rx="2.5"/>
  <rect stroke="var(--background-higher)" width="47" height="47" x="582.5" y="208.5" rx="2.5"/>
  <rect stroke="var(--background-higher)" width="47" height="47" x="598.5" y="52.5" rx="2.5"/>
  <rect stroke="var(--background-higher)" width="47" height="47" x="606.5" y="104.5" rx="2.5"/>
  <rect stroke="var(--background-higher)" width="47" height="47" x="624.5" y=".5" rx="2.5"/>
  <rect stroke="var(--background-higher)" width="47" height="47" x="634.5" y="208.5" rx="2.5"/>
  <rect stroke="var(--background-higher)" width="47" height="47" x="650.5" y="52.5" rx="2.5"/>
  <rect stroke="var(--background-higher)" width="47" height="47" x="78.5" y="52.5" rx="2.5"/>
  <rect stroke="var(--background-higher)" width="47" height="47" x="86.5" y="104.5" rx="2.5"/>
  <rect stroke="var(--background-higher)" width="47" height="47" x="87.5" y="208.5" rx="2.5"/>
  <rect stroke="var(--background-higher)" width="73" height="47" x=".5" y="52.5" rx="2.5"/>
  <rect stroke="var(--background-higher)" width="73" height="47" x="702.5" y="52.5" rx="2.5"/>
  <rect stroke="var(--background-higher)" width="74" height="47" x="503.5" y="208.5" rx="2.5"/>
  <rect stroke="var(--background-higher)" width="81" height="47" x=".5" y="104.5" rx="2.5"/>
  <rect stroke="var(--background-higher)" width="82" height="47" x=".5" y="208.5" rx="2.5"/>
  <rect stroke="var(--background-higher)" width="89" height="47" x="686.5" y="208.5" rx="2.5"/>
  <rect stroke="var(--background-higher)" width="99" height="47" x="676.5" y=".5" rx="2.5"/>
  <rect stroke="var(--accent)" width="109" height="47" x=".5" y="156.5" rx="2.5"/>
  <rect stroke="var(--accent)" width="141" height="47" x="634.5" y="156.5" rx="2.5"/>
  <path fill="var(--foreground-higher)" d="m103.466 82.16-1.236-2.052h-.108a.61.61 0 0 1-.12.012c-.808 0-1.452-.232-1.932-.696-.472-.472-.708-1.1-.708-1.884V73.7c0-.784.236-1.408.708-1.872.48-.472 1.124-.708 1.932-.708.808 0 1.448.236 1.92.708.48.464.72 1.088.72 1.872v3.84c0 .536-.116 1.004-.348 1.404-.232.4-.56.7-.984.9l1.404 2.316h-1.248Zm-1.464-3c.472 0 .848-.148 1.128-.444.288-.296.432-.688.432-1.176V73.7c0-.496-.144-.888-.432-1.176-.28-.296-.656-.444-1.128-.444-.472 0-.852.148-1.14.444-.28.288-.42.68-.42 1.176v3.84c0 .488.14.88.42 1.176.288.296.668.444 1.14.444Z"/>
  <path fill="var(--foreground-higher)" d="m107.002 132 2.28-8.76h1.452l2.268 8.76h-1.092l-.576-2.328h-2.652l-.576 2.328h-1.104Zm1.896-3.24h2.208l-.672-2.7c-.128-.512-.228-.94-.3-1.284a16.681 16.681 0 0 1-.132-.672c-.016.104-.06.328-.132.672a31.73 31.73 0 0 1-.3 1.272l-.672 2.712Z"/>
  <path fill="var(--foreground-higher)" d="M128.302 30.16c-.68 0-1.272-.144-1.776-.432a2.913 2.913 0 0 1-1.176-1.212c-.272-.52-.408-1.132-.408-1.836V22.6c0-1.08.288-1.928.864-2.544.576-.624 1.368-.936 2.376-.936.912 0 1.628.264 2.148.792.528.52.792 1.236.792 2.148v5.16h-.852v-.66h-.132a.965.965 0 0 1-.432.576c-.216.136-.488.204-.816.204-.52 0-.92-.156-1.2-.468-.272-.32-.408-.784-.408-1.392v-1.44c0-.608.136-1.068.408-1.38.28-.32.68-.48 1.2-.48.328 0 .6.072.816.216a.92.92 0 0 1 .432.564h.144l-.12-.84v-.06c0-.68-.172-1.2-.516-1.56-.336-.36-.824-.54-1.464-.54-.72 0-1.28.232-1.68.696-.4.464-.6 1.112-.6 1.944v4.08c0 .8.212 1.428.636 1.884.432.464 1.02.696 1.764.696h.84v.9h-.84Zm.9-3.576c.64 0 .96-.408.96-1.224v-1.332c0-.376-.08-.652-.24-.828-.152-.176-.392-.264-.72-.264-.64 0-.96.368-.96 1.104v1.44c0 .736.32 1.104.96 1.104Z"/>
  <path fill="var(--foreground-higher)" d="M135.422 184v-1.08l3.948-6.696h-3.888v-.984h4.98v1.08l-3.948 6.696h4.068V184h-5.16Z"/>
  <path fill="var(--foreground-higher)" d="m151.71 80-1.008-8.76h1.032l.66 6.48c.024.264.044.54.06.828.024.28.04.504.048.672l.06-.672c.032-.288.064-.564.096-.828l.816-6.48h1.116l.744 6.48a83.75 83.75 0 0 1 .168 1.5c.016-.168.032-.392.048-.672.024-.288.052-.564.084-.828l.684-6.48h.984L156.27 80h-1.356l-.744-6.6c-.032-.272-.06-.536-.084-.792a32.92 32.92 0 0 0-.06-.612l-.072.612c-.024.256-.052.52-.084.792l-.804 6.6h-1.356Z"/>
  <path fill="var(--foreground-higher)" d="M162.05 132.12c-.856 0-1.532-.212-2.028-.636-.488-.432-.74-1.02-.756-1.764h1.08c0 .44.148.788.444 1.044.304.256.724.384 1.26.384.504 0 .896-.124 1.176-.372.288-.248.432-.592.432-1.032 0-.352-.096-.66-.288-.924-.184-.264-.452-.448-.804-.552l-1.188-.372c-.6-.184-1.064-.492-1.392-.924-.32-.432-.48-.94-.48-1.524 0-.472.104-.88.312-1.224a2.17 2.17 0 0 1 .9-.816c.384-.2.836-.3 1.356-.3.768 0 1.384.216 1.848.648.464.424.7.992.708 1.704h-1.08c0-.432-.132-.768-.396-1.008-.256-.248-.62-.372-1.092-.372-.464 0-.828.112-1.092.336-.256.224-.384.536-.384.936 0 .36.096.672.288.936.192.264.468.452.828.564l1.2.384c.584.184 1.036.496 1.356.936.32.44.48.956.48 1.548 0 .48-.112.9-.336 1.26-.224.36-.54.64-.948.84-.4.2-.868.3-1.404.3Z"/>
  <path fill="var(--foreground-higher)" d="m177.398 28 .444-2.4h-1.02v-.78h1.164l.432-2.4h-1.176v-.78h1.32l.444-2.4h.84l-.444 2.4h1.92l.444-2.4h.84l-.444 2.4h1.02v.78h-1.164l-.432 2.4h1.176v.78h-1.32l-.444 2.4h-.84l.444-2.4h-1.92l-.444 2.4h-.84Zm1.428-3.18h1.92l.432-2.4h-1.92l-.432 2.4Z"/>
  <path fill="var(--foreground-higher)" d="m186.882 184 2.52-4.44-2.388-4.32h1.248l1.356 2.592c.072.136.144.284.216.444l.192.36.168-.36c.08-.16.156-.308.228-.444l1.38-2.592h1.188l-2.388 4.248 2.52 4.512h-1.236l-1.5-2.784-.228-.432a15.72 15.72 0 0 1-.168-.384c-.04.096-.1.22-.18.372-.072.152-.144.296-.216.432L188.082 184h-1.2Z"/>
  <path fill="var(--foreground-higher)" d="M203.602 80v-8.76h5.04v.984h-3.972v2.712h3.552v.972h-3.552v3.108h3.972V80h-5.04Z"/>
  <path fill="var(--foreground-higher)" d="M21.182 24.94v-.84c0-.472.144-.848.432-1.128.288-.288.664-.432 1.128-.432.296 0 .548.052.756.156.208.104.384.236.528.396.152.152.288.308.408.468.12.152.244.28.372.384a.667.667 0 0 0 .432.156c.376 0 .564-.22.564-.66v-.84h1.02v.84c0 .464-.144.84-.432 1.128-.28.288-.656.432-1.128.432-.296 0-.548-.052-.756-.156a2.057 2.057 0 0 1-.54-.384 9.52 9.52 0 0 1-.396-.468 2.23 2.23 0 0 0-.372-.396.667.667 0 0 0-.432-.156c-.376 0-.564.22-.564.66v.84h-1.02Z"/>
  <path fill="var(--foreground-higher)" d="M211.506 132v-8.76h2.268c.568 0 1.056.108 1.464.324.416.216.736.52.96.912.232.392.348.856.348 1.392v3.492c0 .536-.116 1.004-.348 1.404a2.298 2.298 0 0 1-.96.912c-.408.216-.896.324-1.464.324h-2.268Zm1.08-.96h1.188c.528 0 .94-.148 1.236-.444.304-.296.456-.708.456-1.236v-3.492c0-.52-.152-.928-.456-1.224-.296-.296-.708-.444-1.236-.444h-1.188v6.84Z"/>
  <path fill="var(--foreground-higher)" d="M231.702 29.68v-1.572c-.752-.064-1.344-.304-1.776-.72-.424-.424-.644-.98-.66-1.668h1.08c0 .392.116.712.348.96.24.248.576.4 1.008.456v-3.144l-.324-.096c-.6-.184-1.064-.492-1.392-.924-.32-.432-.48-.94-.48-1.524 0-.64.196-1.168.588-1.584.4-.416.936-.656 1.608-.72V17.56h.72v1.572c.664.064 1.196.304 1.596.72.4.416.604.952.612 1.608h-1.08c0-.376-.1-.68-.3-.912-.192-.24-.468-.388-.828-.444v2.976l.48.156c.584.184 1.036.496 1.356.936.32.44.48.956.48 1.548 0 .656-.212 1.2-.636 1.632-.416.432-.976.684-1.68.756v1.572h-.72Zm-1.116-8.328c0 .36.096.672.288.936.192.264.468.452.828.564v-2.748c-.352.056-.628.192-.828.408-.192.216-.288.496-.288.84Zm1.836 5.784c.392-.064.696-.216.912-.456.216-.24.324-.552.324-.936 0-.352-.096-.66-.288-.924-.184-.264-.452-.448-.804-.552l-.144-.048v2.916Z"/>
  <path fill="var(--foreground-higher)" d="M242.05 184.12c-.8 0-1.432-.224-1.896-.672-.464-.448-.696-1.064-.696-1.848v-3.96c0-.784.232-1.4.696-1.848.464-.448 1.096-.672 1.896-.672.784 0 1.408.228 1.872.684.464.448.696 1.06.696 1.836h-1.08c0-.496-.132-.876-.396-1.14-.256-.272-.62-.408-1.092-.408-.472 0-.844.132-1.116.396-.264.264-.396.644-.396 1.14v3.972c0 .496.132.88.396 1.152.272.264.644.396 1.116.396.472 0 .836-.132 1.092-.396.264-.272.396-.656.396-1.152h1.08c0 .776-.232 1.392-.696 1.848-.464.448-1.088.672-1.872.672Z"/>
  <path fill="var(--foreground-higher)" d="M255.506 80v-8.76h2.712c.52 0 .976.108 1.368.324.392.208.696.5.912.876.216.376.324.816.324 1.32 0 .592-.156 1.1-.468 1.524-.304.424-.72.716-1.248.876l1.836 3.84h-1.272l-1.68-3.72h-1.404V80h-1.08Zm1.08-4.692h1.632c.448 0 .808-.14 1.08-.42.272-.288.408-.664.408-1.128 0-.472-.136-.848-.408-1.128-.272-.28-.632-.42-1.08-.42h-1.632v3.096Z"/>
  <path fill="var(--foreground-higher)" d="M263.542 132v-8.76h5.16v.984h-4.104v2.904h3.792v.984h-3.768V132h-1.08Z"/>
  <path fill="var(--foreground-higher)" d="M282.262 23.2c-.504 0-.908-.144-1.212-.432-.304-.288-.456-.684-.456-1.188v-.78c0-.504.152-.9.456-1.188.304-.288.708-.432 1.212-.432s.908.144 1.212.432c.304.288.456.684.456 1.188v.78c0 .504-.152.9-.456 1.188-.304.288-.708.432-1.212.432ZM280.57 28l5.976-8.76h.888L281.458 28h-.888Zm1.692-5.616c.52 0 .78-.268.78-.804v-.78c0-.536-.26-.804-.78-.804s-.78.268-.78.804v.78c0 .536.26.804.78.804Zm3.48 5.676c-.504 0-.908-.144-1.212-.432-.304-.288-.456-.684-.456-1.188v-.78c0-.504.152-.9.456-1.188.304-.288.708-.432 1.212-.432s.908.144 1.212.432c.304.288.456.684.456 1.188v.78c0 .504-.152.9-.456 1.188-.304.288-.708.432-1.212.432Zm0-.828c.52 0 .78-.264.78-.792v-.78c0-.536-.26-.804-.78-.804s-.78.268-.78.804v.78c0 .528.26.792.78.792Z"/>
  <path fill="var(--foreground-higher)" d="m293.258 184-2.256-8.76h1.116l1.488 5.952c.104.416.192.804.264 1.164.072.352.124.62.156.804l.144-.804c.072-.36.16-.748.264-1.164l1.476-5.952h1.092l-2.268 8.76h-1.476Z"/>
  <path fill="var(--foreground-higher)" d="M309.462 80v-7.776h-2.4v-.984h5.88v.984h-2.4V80h-1.08Z"/>
  <path fill="var(--foreground-higher)" d="M318.05 132.12c-.8 0-1.432-.224-1.896-.672-.464-.448-.696-1.064-.696-1.848v-3.96c0-.784.232-1.4.696-1.848.464-.448 1.096-.672 1.896-.672.784 0 1.408.228 1.872.684.464.448.696 1.06.696 1.836h-1.08c0-.496-.132-.876-.396-1.14-.256-.272-.62-.408-1.092-.408-.472 0-.844.132-1.116.396-.264.264-.396.644-.396 1.14v3.972c0 .496.132.88.396 1.152.272.272.644.408 1.116.408.472 0 .836-.136 1.092-.408.264-.272.396-.656.396-1.152v-1.08h-1.776v-.984h2.856v2.064c0 .776-.232 1.392-.696 1.848-.464.448-1.088.672-1.872.672Z"/>
  <path fill="var(--foreground-higher)" d="m333.362 23.92 2.148-4.68h1.008l2.124 4.68h-.972l-1.344-3.096a51.1 51.1 0 0 1-.18-.456 27.313 27.313 0 0 1-.108-.348c-.032.08-.076.196-.132.348a9.55 9.55 0 0 1-.192.456l-1.38 3.096h-.972Z"/>
  <path fill="var(--foreground-higher)" d="M343.518 184v-8.76h2.484c.8 0 1.424.2 1.872.6.456.4.684.956.684 1.668 0 .48-.116.884-.348 1.212-.232.32-.556.536-.972.648.472.136.844.396 1.116.78.272.376.408.848.408 1.416 0 .752-.232 1.348-.696 1.788-.456.432-1.084.648-1.884.648h-2.664Zm1.056-5.028h1.416c.464 0 .828-.124 1.092-.372.272-.248.408-.584.408-1.008 0-.424-.132-.76-.396-1.008s-.628-.372-1.092-.372h-1.428v2.76Zm0 4.056h1.488c.504 0 .9-.132 1.188-.396.296-.272.444-.64.444-1.104 0-.48-.148-.868-.444-1.164-.288-.304-.684-.456-1.188-.456h-1.488v3.12Z"/>
  <path fill="var(--foreground-higher)" d="M356.408 236.096c-.68 0-1.22-.152-1.62-.456-.4-.312-.632-.732-.696-1.26h1.08a.844.844 0 0 0 .384.552c.216.136.5.204.852.204h.504c.424 0 .74-.084.948-.252a.867.867 0 0 0 .312-.696c0-.544-.372-.876-1.116-.996l-.888-.144c-.648-.112-1.132-.312-1.452-.6-.312-.296-.468-.724-.468-1.284 0-.592.188-1.048.564-1.368.376-.328.94-.492 1.692-.492h.456c.632 0 1.14.148 1.524.444.384.296.616.696.696 1.2h-1.08a.768.768 0 0 0-.36-.492c-.192-.128-.452-.192-.78-.192h-.456c-.408 0-.708.076-.9.228-.184.152-.276.38-.276.684 0 .272.08.472.24.6.16.128.412.22.756.276l.888.144c.712.112 1.228.32 1.548.624.328.304.492.744.492 1.32 0 .608-.196 1.088-.588 1.44-.384.344-.968.516-1.752.516h-.504Zm4.903 2.064v-8.76h1.08v1.26h.012c.056-.432.244-.768.564-1.008.328-.248.74-.372 1.236-.372.664 0 1.192.22 1.584.66.4.432.6 1.028.6 1.788v1.932c0 .76-.2 1.36-.6 1.8-.392.44-.92.66-1.584.66-.496 0-.904-.124-1.224-.372a1.509 1.509 0 0 1-.576-1.008h-.036l.024 1.5v1.92h-1.08Zm2.532-2.976c.456 0 .812-.136 1.068-.408.264-.272.396-.664.396-1.176v-1.8c0-.512-.132-.904-.396-1.176-.256-.272-.612-.408-1.068-.408-.44 0-.792.14-1.056.42-.264.28-.396.668-.396 1.164v1.8c0 .496.132.884.396 1.164.264.28.616.42 1.056.42Zm6.583.936c-.696 0-1.244-.176-1.644-.528-.4-.36-.6-.844-.6-1.452 0-.616.2-1.1.6-1.452.4-.352.94-.528 1.62-.528h2.04v-.66c0-.4-.124-.712-.372-.936-.24-.224-.584-.336-1.032-.336-.392 0-.716.084-.972.252a.982.982 0 0 0-.468.66h-1.08c.072-.568.34-1.02.804-1.356.464-.336 1.044-.504 1.74-.504.76 0 1.36.196 1.8.588.44.392.66.924.66 1.596V236h-1.056v-1.26h-.012c-.048.424-.256.76-.624 1.008-.36.248-.828.372-1.404.372Zm.264-.852c.512 0 .932-.128 1.26-.384.328-.256.492-.584.492-.984v-.936h-2.016c-.36 0-.644.1-.852.3-.208.2-.312.472-.312.816 0 .368.124.66.372.876.256.208.608.312 1.056.312Zm7.556.852c-.8 0-1.44-.224-1.92-.672-.472-.448-.708-1.064-.708-1.848v-1.8c0-.784.236-1.4.708-1.848.48-.448 1.12-.672 1.92-.672.76 0 1.372.204 1.836.612.464.408.708.964.732 1.668h-1.08c-.024-.424-.168-.748-.432-.972-.256-.232-.608-.348-1.056-.348-.472 0-.848.136-1.128.408-.28.264-.42.644-.42 1.14v1.812c0 .496.14.88.42 1.152.28.272.656.408 1.128.408.448 0 .8-.116 1.056-.348.264-.232.408-.556.432-.972h1.08c-.024.704-.268 1.26-.732 1.668-.464.408-1.076.612-1.836.612Zm7.147 0c-.52 0-.976-.104-1.368-.312a2.258 2.258 0 0 1-.9-.876c-.208-.384-.312-.828-.312-1.332v-1.8c0-.512.104-.956.312-1.332.216-.376.516-.668.9-.876.392-.208.848-.312 1.368-.312.52 0 .972.104 1.356.312.392.208.692.5.9.876.216.376.324.82.324 1.332v1.164h-4.104v.636c0 .52.132.92.396 1.2.264.272.64.408 1.128.408.416 0 .752-.072 1.008-.216a.953.953 0 0 0 .468-.672h1.08c-.072.552-.344.992-.816 1.32-.464.32-1.044.48-1.74.48Zm-1.524-3.972h3.048v-.348c0-.52-.132-.92-.396-1.2-.256-.28-.632-.42-1.128-.42-.488 0-.864.14-1.128.42-.264.28-.396.68-.396 1.2v.348Z"/>
  <path fill="var(--foreground-higher)" d="M361.462 80v-3.276l-2.64-5.484h1.116l1.74 3.6c.096.2.172.372.228.516.056.136.092.236.108.3.016-.064.052-.164.108-.3.064-.144.144-.316.24-.516l1.704-3.6h1.116l-2.64 5.484V80h-1.08Z"/>
  <path fill="var(--foreground-higher)" d="M367.518 132v-8.76h1.08v3.744h2.808v-3.744h1.08V132h-1.08v-4.032h-2.808V132h-1.08Z"/>
  <path fill="var(--foreground-higher)" d="M387.162 28.12c-.656 0-1.172-.176-1.548-.528-.368-.352-.552-.836-.552-1.452v-1.5c0-.424.108-.78.324-1.068.224-.296.54-.504.948-.624l-.084-.12a4.143 4.143 0 0 1-.54-.936 2.369 2.369 0 0 1-.168-.864c0-.576.196-1.036.588-1.38.4-.352.924-.528 1.572-.528.696 0 1.248.184 1.656.552.408.368.612.868.612 1.5h-1.08c0-.352-.108-.624-.324-.816-.208-.2-.496-.3-.864-.3-.328 0-.592.092-.792.276-.192.176-.288.416-.288.72 0 .2.04.416.12.648.088.232.208.452.36.66l2.064 2.844.852-1.524h1.128l-1.356 2.388L391.194 28h-1.188l-.756-1.044c-.592.776-1.288 1.164-2.088 1.164Zm.06-.96c.272 0 .532-.088.78-.264a2.24 2.24 0 0 0 .648-.756l-1.764-2.436c-.496.088-.744.4-.744.936v1.5c0 .32.092.572.276.756.192.176.46.264.804.264Z"/>
  <path fill="var(--foreground-higher)" d="M395.482 184v-8.76h1.44l2.676 7.5-.06-.732-.048-.924a38.015 38.015 0 0 1-.012-.924v-4.92h1.044V184h-1.44l-2.664-7.5a29.813 29.813 0 0 1 .084 1.656c.016.32.024.628.024.924V184h-1.044Z"/>
  <path fill="var(--foreground-higher)" d="M414.002 80.12c-.816 0-1.44-.224-1.872-.672-.432-.456-.648-1.072-.648-1.848v-6.36h1.08v6.36c0 .48.116.86.348 1.14.24.28.604.42 1.092.42.48 0 .84-.14 1.08-.42.24-.28.36-.66.36-1.14v-6.36h1.08v6.36c0 .784-.216 1.4-.648 1.848-.424.448-1.048.672-1.872.672Z"/>
  <path fill="var(--foreground-higher)" d="M421.642 132.12c-.84 0-1.5-.236-1.98-.708s-.72-1.116-.72-1.932h1.08c0 .536.14.952.42 1.248.288.288.688.432 1.2.432s.908-.144 1.188-.432c.288-.296.432-.712.432-1.248v-5.256h-2.46v-.984h3.54v6.24c0 .816-.244 1.46-.732 1.932-.48.472-1.136.708-1.968.708Z"/>
  <path fill="var(--foreground-higher)" d="m438.574 26.872-.864-.6.648-.936c.16-.224.356-.444.588-.66.232-.224.436-.408.612-.552l-.036-.084a10.172 10.172 0 0 1-.804-.096 4.615 4.615 0 0 1-.84-.204l-1.056-.384.36-.996 1.056.384c.256.088.52.22.792.396.272.168.5.32.684.456l.06-.048a30.2 30.2 0 0 1-.192-.828 4.226 4.226 0 0 1-.108-.9v-1.14h1.056v1.14c0 .272-.036.572-.108.9-.072.328-.14.604-.204.828l.06.048c.184-.136.412-.288.684-.456.28-.176.544-.308.792-.396l1.068-.384.36.996-1.068.384a4.643 4.643 0 0 1-.828.204c-.304.048-.572.08-.804.096l-.048.096c.184.144.388.328.612.552.232.216.424.432.576.648l.66.936-.864.6-.66-.936a4.297 4.297 0 0 1-.42-.768 9.76 9.76 0 0 1-.3-.768h-.084c-.08.216-.184.472-.312.768-.12.296-.26.552-.42.768l-.648.936Z"/>
  <path fill="var(--foreground-higher)" d="M447.314 184v-8.76h1.416l.936 2.832c.088.256.16.512.216.768.064.248.112.44.144.576a29.626 29.626 0 0 1 .36-1.356l.888-2.82h1.416V184h-1.056v-3.18c0-.352.008-.752.024-1.2.024-.448.052-.904.084-1.368.032-.472.064-.92.096-1.344.04-.432.076-.808.108-1.128l-1.428 4.38h-1.032l-1.44-4.38c.04.312.076.676.108 1.092a45.595 45.595 0 0 1 .18 2.676c.024.456.036.88.036 1.272V184h-1.056Z"/>
  <path fill="var(--foreground-higher)" d="M463.662 80v-.984h1.788v-6.792h-1.788v-.984h4.68v.984h-1.788v6.792h1.788V80h-4.68Z"/>
  <path fill="var(--foreground-higher)" d="M471.506 132v-8.76h1.08v3.756h1.296l1.944-3.756h1.176l-2.172 4.212 2.292 4.548h-1.236l-2.04-4.056h-1.26V132h-1.08Z"/>
  <path fill="var(--foreground-higher)" d="M494.222 29.44c-1.136-.28-2.02-.832-2.652-1.656-.632-.824-.948-1.832-.948-3.024V22.6c0-.784.144-1.492.432-2.124.296-.64.712-1.18 1.248-1.62a4.896 4.896 0 0 1 1.92-.936v1.02c-.512.12-.956.352-1.332.696a3.4 3.4 0 0 0-.876 1.26c-.208.504-.312 1.072-.312 1.704v2.16c0 .616.1 1.176.3 1.68.208.504.5.924.876 1.26.384.328.832.552 1.344.672v1.068Z"/>
  <path fill="var(--foreground-higher)" d="m504.582 183.22-5.16-2.58v-1.2l5.16-2.58v1.044l-3.72 1.824a9.162 9.162 0 0 1-.432.192c-.128.048-.224.08-.288.096.072.016.176.052.312.108.136.048.272.108.408.18l3.72 1.836v1.08Z"/>
  <path fill="var(--foreground-higher)" d="M518.002 80.12c-.784 0-1.404-.224-1.86-.672-.456-.448-.684-1.064-.684-1.848v-3.96c0-.784.228-1.4.684-1.848.456-.448 1.076-.672 1.86-.672s1.404.224 1.86.672c.456.44.684 1.052.684 1.836V77.6c0 .784-.228 1.4-.684 1.848-.456.448-1.076.672-1.86.672Zm0-.972c.472 0 .832-.132 1.08-.396.256-.272.384-.656.384-1.152v-3.96c0-.496-.128-.876-.384-1.14-.248-.272-.608-.408-1.08-.408-.464 0-.824.136-1.08.408-.256.264-.384.644-.384 1.14v3.96c0 .496.128.88.384 1.152.256.264.616.396 1.08.396Z"/>
  <path fill="var(--foreground-higher)" d="M523.782 132v-8.76h1.08v7.776h3.96V132h-5.04Z"/>
  <path fill="var(--foreground-higher)" d="M541.782 29.44v-1.068c.52-.12.968-.344 1.344-.672.376-.336.664-.756.864-1.26a4.364 4.364 0 0 0 .312-1.68V22.6c0-.632-.104-1.2-.312-1.704a3.4 3.4 0 0 0-.876-1.26 2.928 2.928 0 0 0-1.332-.696v-1.02c.744.184 1.384.496 1.92.936.536.44.948.98 1.236 1.62.296.632.444 1.34.444 2.124v2.16c0 1.192-.316 2.2-.948 3.024-.632.824-1.516 1.376-2.652 1.656Z"/>
  <path fill="var(--foreground-higher)" d="M551.422 183.22v-1.044l3.72-1.824c.152-.072.292-.132.42-.18.136-.056.236-.092.3-.108a2.942 2.942 0 0 1-.312-.096 4.684 4.684 0 0 1-.408-.192l-3.72-1.836v-1.08l5.16 2.58v1.2l-5.16 2.58Z"/>
  <path fill="var(--foreground-higher)" d="M567.506 80v-8.76h2.82c.816 0 1.464.236 1.944.708.488.464.732 1.088.732 1.872s-.244 1.412-.732 1.884c-.48.464-1.128.696-1.944.696h-1.74V80h-1.08Zm1.08-4.572h1.74c.472 0 .848-.144 1.128-.432.288-.296.432-.688.432-1.176 0-.496-.144-.888-.432-1.176-.28-.288-.656-.432-1.128-.432h-1.74v3.216Z"/>
  <path fill="var(--foreground-higher)" d="M578.002 127.08c-.296 0-.536-.08-.72-.24a.852.852 0 0 1-.276-.66c0-.272.092-.488.276-.648.184-.168.424-.252.72-.252.304 0 .544.084.72.252.184.16.276.376.276.648a.852.852 0 0 1-.276.66c-.176.16-.416.24-.72.24Zm0 5.04c-.296 0-.536-.08-.72-.24a.852.852 0 0 1-.276-.66c0-.272.092-.488.276-.648.184-.168.424-.252.72-.252.304 0 .544.084.72.252.184.16.276.376.276.648a.852.852 0 0 1-.276.66c-.176.16-.416.24-.72.24Z"/>
  <path fill="var(--foreground-higher)" d="M593.122 29.2v-.9h5.76v.9h-5.76Z"/>
  <path fill="var(--foreground-higher)" d="M604.934 181.54v-2.16h.6c.512 0 .916-.14 1.212-.42.304-.288.456-.668.456-1.14 0-.472-.152-.848-.456-1.128-.296-.288-.704-.432-1.224-.432h-1.5v-1.02h1.5c.56 0 1.044.108 1.452.324.416.208.736.504.96.888.232.384.348.84.348 1.368 0 .456-.096.868-.288 1.236-.192.36-.46.648-.804.864a2.369 2.369 0 0 1-1.176.36v1.26h-1.08Zm.348 2.52a.7.7 0 0 1-.72-.72.7.7 0 0 1 .72-.72h.36c.232 0 .408.068.528.204a.681.681 0 0 1 .192.504.74.74 0 0 1-.204.528.7.7 0 0 1-.516.204h-.36Z"/>
  <path fill="var(--foreground-higher)" d="M624.042 81.32c-.704 0-1.26-.176-1.668-.528-.4-.344-.584-.832-.552-1.464l.12-1.968c.024-.424-.04-.728-.192-.912-.152-.192-.488-.288-1.008-.288h-1.32v-.96h1.32c.52 0 .856-.092 1.008-.276.152-.192.216-.5.192-.924l-.12-1.968c-.032-.632.152-1.12.552-1.464.408-.352.964-.528 1.668-.528h.54V71h-.54c-.376 0-.664.088-.864.264-.2.168-.292.424-.276.768l.12 1.968c.024.456-.072.832-.288 1.128-.208.296-.512.48-.912.552.392.072.696.256.912.552.216.296.312.672.288 1.128l-.12 1.968c-.016.344.076.6.276.768.2.176.488.264.864.264h.54v.96h-.54Z"/>
  <path fill="var(--foreground-higher)" d="m630.062 126.42 1.56-3.732h.96l-.96 3.732h-1.56Zm-2.76 0 1.56-3.732h.96l-.96 3.732h-1.56Z"/>
  <path fill="var(--foreground-higher)" d="M647.474 26.86v-2.34h-2.292v-.96h2.292v-2.34h1.056v2.34h2.292v.96h-2.292v2.34h-1.056Z"/>
  <path fill="var(--foreground-higher)" d="M671.422 81.32v-.96h.54c.376 0 .664-.088.864-.264.2-.168.292-.424.276-.768l-.12-1.968c-.024-.456.072-.832.288-1.128.216-.296.52-.48.912-.552-.4-.072-.708-.256-.924-.552-.208-.296-.3-.672-.276-1.128l.12-1.968c.016-.344-.076-.6-.276-.768-.2-.176-.488-.264-.864-.264h-.54v-.96h.54c.712 0 1.268.176 1.668.528.408.344.592.832.552 1.464l-.12 1.968c-.024.424.04.732.192.924.152.184.488.276 1.008.276h1.32v.96h-1.32c-.512 0-.848.096-1.008.288-.152.184-.216.488-.192.912l.12 1.968c.04.632-.144 1.12-.552 1.464-.4.352-.956.528-1.668.528h-.54Z"/>
  <path fill="var(--foreground-higher)" d="m75.618 25.42-.252-4.74v-1.44h1.272v1.44l-.252 4.74h-.768Zm.204 2.64a.7.7 0 0 1-.72-.72.7.7 0 0 1 .72-.72h.36c.232 0 .408.068.528.204a.681.681 0 0 1 .192.504.74.74 0 0 1-.204.528.7.7 0 0 1-.516.204h-.36Z"/>
  <path fill="var(--foreground-higher)" id="tab" d="M30.527 80c-.568 0-1.012-.152-1.332-.456-.312-.304-.468-.732-.468-1.284v-3.876h-1.86V73.4h1.86v-1.86h1.08v1.86h2.64v.984h-2.64v3.876c0 .504.24.756.72.756h1.8V80h-1.8Zm5.9.12c-.697 0-1.245-.176-1.645-.528-.4-.36-.6-.844-.6-1.452 0-.616.2-1.1.6-1.452.4-.352.94-.528 1.62-.528h2.04v-.66c0-.4-.124-.712-.372-.936-.24-.224-.584-.336-1.032-.336-.392 0-.716.084-.972.252a.982.982 0 0 0-.468.66h-1.08c.072-.568.34-1.02.804-1.356.464-.336 1.044-.504 1.74-.504.76 0 1.36.196 1.8.588.44.392.66.924.66 1.596V80h-1.056v-1.26h-.012c-.048.424-.256.76-.624 1.008-.36.248-.828.372-1.404.372Zm.263-.852c.512 0 .932-.128 1.26-.384.328-.256.492-.584.492-.984v-.936h-2.016c-.36 0-.644.1-.852.3-.208.2-.312.472-.312.816 0 .368.124.66.372.876.256.208.608.312 1.056.312Zm7.892.852c-.496 0-.904-.12-1.224-.36-.32-.248-.508-.588-.564-1.02h-.012V80h-1.08v-8.76h1.08v1.92l-.024 1.5h.036c.056-.424.244-.76.564-1.008.32-.248.728-.372 1.224-.372.664 0 1.196.22 1.596.66.4.44.6 1.04.6 1.8v1.932c0 .752-.2 1.348-.6 1.788-.4.44-.932.66-1.596.66Zm-.36-.936c.456 0 .816-.136 1.08-.408.264-.272.396-.664.396-1.176v-1.8c0-.512-.132-.904-.396-1.176-.264-.272-.624-.408-1.08-.408-.44 0-.792.14-1.056.42-.256.28-.384.668-.384 1.164v1.8c0 .496.128.884.384 1.164.264.28.616.42 1.056.42Z"/>
  <path fill="var(--foreground-higher)" id="caps" d="M30.257 132.12c-.8 0-1.44-.224-1.92-.672-.472-.448-.708-1.064-.708-1.848v-1.8c0-.784.236-1.4.708-1.848.48-.448 1.12-.672 1.92-.672.76 0 1.372.204 1.836.612.464.408.708.964.732 1.668h-1.08c-.024-.424-.168-.748-.432-.972-.256-.232-.608-.348-1.056-.348-.472 0-.848.136-1.128.408-.28.264-.42.644-.42 1.14v1.812c0 .496.14.88.42 1.152.28.272.656.408 1.128.408.448 0 .8-.116 1.056-.348.264-.232.408-.556.432-.972h1.08c-.024.704-.268 1.26-.732 1.668-.464.408-1.076.612-1.836.612Zm6.572 0c-.696 0-1.244-.176-1.644-.528-.4-.36-.6-.844-.6-1.452 0-.616.2-1.1.6-1.452.4-.352.94-.528 1.62-.528h2.04v-.66c0-.4-.124-.712-.372-.936-.24-.224-.584-.336-1.032-.336-.392 0-.716.084-.972.252a.982.982 0 0 0-.468.66h-1.08c.072-.568.34-1.02.804-1.356.464-.336 1.044-.504 1.74-.504.76 0 1.36.196 1.8.588.44.392.66.924.66 1.596V132h-1.056v-1.26h-.012c-.048.424-.256.76-.624 1.008-.36.248-.828.372-1.404.372Zm.264-.852c.512 0 .932-.128 1.26-.384.328-.256.492-.584.492-.984v-.936h-2.016c-.36 0-.644.1-.852.3-.208.2-.312.472-.312.816 0 .368.124.66.372.876.256.208.608.312 1.056.312Zm5.011 2.892v-8.76h1.08v1.26h.012c.056-.432.244-.768.564-1.008.328-.248.74-.372 1.236-.372.664 0 1.192.22 1.584.66.4.432.6 1.028.6 1.788v1.932c0 .76-.2 1.36-.6 1.8-.392.44-.92.66-1.584.66-.496 0-.904-.124-1.224-.372a1.509 1.509 0 0 1-.576-1.008h-.036l.024 1.5v1.92h-1.08Zm2.532-2.976c.456 0 .812-.136 1.068-.408.264-.272.396-.664.396-1.176v-1.8c0-.512-.132-.904-.396-1.176-.256-.272-.612-.408-1.068-.408-.44 0-.792.14-1.056.42-.264.28-.396.668-.396 1.164v1.8c0 .496.132.884.396 1.164.264.28.616.42 1.056.42Zm6.955.912c-.68 0-1.22-.152-1.62-.456-.4-.312-.632-.732-.696-1.26h1.08a.844.844 0 0 0 .384.552c.216.136.5.204.852.204h.504c.424 0 .74-.084.948-.252a.867.867 0 0 0 .312-.696c0-.544-.372-.876-1.116-.996l-.888-.144c-.648-.112-1.132-.312-1.452-.6-.312-.296-.468-.724-.468-1.284 0-.592.188-1.048.564-1.368.376-.328.94-.492 1.692-.492h.456c.632 0 1.14.148 1.524.444.384.296.616.696.696 1.2h-1.08a.768.768 0 0 0-.36-.492c-.192-.128-.452-.192-.78-.192h-.456c-.408 0-.708.076-.9.228-.184.152-.276.38-.276.684 0 .272.08.472.24.6.16.128.412.22.756.276l.888.144c.712.112 1.228.32 1.548.624.328.304.492.744.492 1.32 0 .608-.196 1.088-.588 1.44-.384.344-.968.516-1.752.516h-.504Z"/>
  <path fill="var(--foreground-lower)" id="shift-sx" d="M40.408 184.096c-.68 0-1.22-.152-1.62-.456-.4-.312-.632-.732-.696-1.26h1.08a.844.844 0 0 0 .384.552c.216.136.5.204.852.204h.504c.424 0 .74-.084.948-.252a.867.867 0 0 0 .312-.696c0-.544-.372-.876-1.116-.996l-.888-.144c-.648-.112-1.132-.312-1.452-.6-.312-.296-.468-.724-.468-1.284 0-.592.188-1.048.564-1.368.376-.328.94-.492 1.692-.492h.456c.632 0 1.14.148 1.524.444.384.296.616.696.696 1.2H42.1a.768.768 0 0 0-.36-.492c-.192-.128-.452-.192-.78-.192h-.456c-.408 0-.708.076-.9.228-.184.152-.276.38-.276.684 0 .272.08.472.24.6.16.128.412.22.756.276l.888.144c.712.112 1.228.32 1.548.624.328.304.492.744.492 1.32 0 .608-.196 1.088-.588 1.44-.384.344-.968.516-1.752.516h-.504ZM45.31 184v-8.76h1.08v3.42h.012c.056-.44.236-.78.54-1.02.304-.24.708-.36 1.212-.36.664 0 1.192.204 1.584.612.392.408.588.964.588 1.668V184h-1.08v-4.32c0-.472-.128-.836-.384-1.092-.248-.264-.588-.396-1.02-.396-.448 0-.804.14-1.068.42-.256.28-.384.676-.384 1.188v4.2h-1.08Zm7.111 0v-.984h2.34v-4.632h-2.04v-.984h3.12v5.616h2.22V184h-5.64Zm2.76-7.788c-.264 0-.472-.068-.624-.204a.704.704 0 0 1-.228-.552c0-.24.076-.428.228-.564.152-.144.36-.216.624-.216s.472.072.624.216c.152.136.228.324.228.564a.704.704 0 0 1-.228.552c-.152.136-.36.204-.624.204ZM61.238 184v-4.956h-1.92v-.984h1.92v-1.14c0-.52.164-.928.492-1.224.328-.304.78-.456 1.356-.456h1.932v.984h-1.932c-.512 0-.768.232-.768.696v1.14h2.7v.984h-2.7V184h-1.08Zm8.875 0c-.568 0-1.012-.152-1.332-.456-.312-.304-.468-.732-.468-1.284v-3.876h-1.86v-.984h1.86v-1.86h1.08v1.86h2.64v.984h-2.64v3.876c0 .504.24.756.72.756h1.8V184h-1.8Z"/>
  <path fill="var(--foreground-higher)" id="control-sx" d="M19.964 236.12c-.8 0-1.44-.224-1.92-.672-.472-.448-.708-1.064-.708-1.848v-1.8c0-.784.236-1.4.708-1.848.48-.448 1.12-.672 1.92-.672.76 0 1.372.204 1.836.612.464.408.708.964.732 1.668h-1.08c-.024-.424-.168-.748-.432-.972-.256-.232-.608-.348-1.056-.348-.472 0-.848.136-1.128.408-.28.264-.42.644-.42 1.14v1.812c0 .496.14.88.42 1.152.28.272.656.408 1.128.408.448 0 .8-.116 1.056-.348.264-.232.408-.556.432-.972h1.08c-.024.704-.268 1.26-.732 1.668-.464.408-1.076.612-1.836.612Zm7.148-.024c-.8 0-1.432-.224-1.896-.672-.456-.456-.684-1.072-.684-1.848v-1.752c0-.784.228-1.4.684-1.848.464-.448 1.096-.672 1.896-.672.8 0 1.428.224 1.884.672.464.448.696 1.06.696 1.836v1.764c0 .776-.232 1.392-.696 1.848-.456.448-1.084.672-1.884.672Zm0-.96c.472 0 .84-.132 1.104-.396.264-.264.396-.652.396-1.164v-1.752c0-.512-.132-.9-.396-1.164-.264-.264-.632-.396-1.104-.396-.464 0-.832.132-1.104.396-.264.264-.396.652-.396 1.164v1.752c0 .512.132.9.396 1.164.272.264.64.396 1.104.396Zm4.699.864v-6.6h1.08v1.26h.012c.056-.44.236-.78.54-1.02.304-.24.708-.36 1.212-.36.664 0 1.192.204 1.584.612.392.408.588.964.588 1.668V236h-1.08v-4.32c0-.472-.128-.832-.384-1.08-.248-.256-.588-.384-1.02-.384-.448 0-.804.136-1.068.408-.256.272-.384.664-.384 1.176v4.2h-1.08Zm10.411 0c-.568 0-1.012-.152-1.332-.456-.312-.304-.468-.732-.468-1.284v-3.876h-1.86v-.984h1.86v-1.86h1.08v1.86h2.64v.984h-2.64v3.876c0 .504.24.756.72.756h1.8V236h-1.8Zm4.208 0v-6.6h1.056v1.176c.216-.864.796-1.296 1.74-1.296.696 0 1.248.22 1.656.66.416.432.624 1.02.624 1.764v.396h-1.08v-.3c0-.52-.128-.916-.384-1.188-.248-.28-.604-.42-1.068-.42-.456 0-.816.14-1.08.42-.256.28-.384.676-.384 1.188v4.2h-1.08Zm9.463.096c-.8 0-1.432-.224-1.896-.672-.456-.456-.684-1.072-.684-1.848v-1.752c0-.784.228-1.4.684-1.848.464-.448 1.096-.672 1.896-.672.8 0 1.428.224 1.884.672.464.448.696 1.06.696 1.836v1.764c0 .776-.232 1.392-.696 1.848-.456.448-1.084.672-1.884.672Zm0-.96c.472 0 .84-.132 1.104-.396.264-.264.396-.652.396-1.164v-1.752c0-.512-.132-.9-.396-1.164-.264-.264-.632-.396-1.104-.396-.464 0-.832.132-1.104.396-.264.264-.396.652-.396 1.164v1.752c0 .512.132.9.396 1.164.272.264.64.396 1.104.396Zm8.155.864c-.584 0-1.052-.168-1.404-.504-.344-.344-.516-.796-.516-1.356v-5.916h-2.28v-.984h3.36v6.9c0 .272.076.488.228.648.152.152.356.228.612.228h2.04V236h-2.04Z"/>
  <path fill="var(--foreground-higher)" id="fn-sx" d="M106.445 236v-4.956h-1.92v-.984h1.92v-1.14c0-.52.164-.928.492-1.224.328-.304.78-.456 1.356-.456h1.932v.984h-1.932c-.512 0-.768.232-.768.696v1.14h2.7v.984h-2.7V236h-1.08Zm5.659 0v-6.6h1.08v1.26h.012c.056-.44.236-.78.54-1.02.304-.24.708-.36 1.212-.36.664 0 1.192.204 1.584.612.392.408.588.964.588 1.668V236h-1.08v-4.32c0-.472-.128-.832-.384-1.08-.248-.256-.588-.384-1.02-.384-.448 0-.804.136-1.068.408-.256.272-.384.664-.384 1.176v4.2h-1.08Z"/>
  <path fill="var(--foreground-higher)" id="os-sx" d="M159.405 236.096c-.8 0-1.432-.224-1.896-.672-.456-.456-.684-1.072-.684-1.848v-1.752c0-.784.228-1.4.684-1.848.464-.448 1.096-.672 1.896-.672.8 0 1.428.224 1.884.672.464.448.696 1.06.696 1.836v1.764c0 .776-.232 1.392-.696 1.848-.456.448-1.084.672-1.884.672Zm0-.96c.472 0 .84-.132 1.104-.396.264-.264.396-.652.396-1.164v-1.752c0-.512-.132-.9-.396-1.164-.264-.264-.632-.396-1.104-.396-.464 0-.832.132-1.104.396-.264.264-.396.652-.396 1.164v1.752c0 .512.132.9.396 1.164.272.264.64.396 1.104.396Zm6.991.96c-.68 0-1.22-.152-1.62-.456-.4-.312-.632-.732-.696-1.26h1.08a.844.844 0 0 0 .384.552c.216.136.5.204.852.204h.504c.424 0 .74-.084.948-.252a.867.867 0 0 0 .312-.696c0-.544-.372-.876-1.116-.996l-.888-.144c-.648-.112-1.132-.312-1.452-.6-.312-.296-.468-.724-.468-1.284 0-.592.188-1.048.564-1.368.376-.328.94-.492 1.692-.492h.456c.632 0 1.14.148 1.524.444.384.296.616.696.696 1.2h-1.08a.768.768 0 0 0-.36-.492c-.192-.128-.452-.192-.78-.192h-.456c-.408 0-.708.076-.9.228-.184.152-.276.38-.276.684 0 .272.08.472.24.6.16.128.412.22.756.276l.888.144c.712.112 1.228.32 1.548.624.328.304.492.744.492 1.32 0 .608-.196 1.088-.588 1.44-.384.344-.968.516-1.752.516h-.504Z"/>
  <path fill="var(--foreground-higher)" id="alt-sx" d="M207.231 236.12c-.696 0-1.244-.176-1.644-.528-.4-.36-.6-.844-.6-1.452 0-.616.2-1.1.6-1.452.4-.352.94-.528 1.62-.528h2.04v-.66c0-.4-.124-.712-.372-.936-.24-.224-.584-.336-1.032-.336-.392 0-.716.084-.972.252a.982.982 0 0 0-.468.66h-1.08c.072-.568.34-1.02.804-1.356.464-.336 1.044-.504 1.74-.504.76 0 1.36.196 1.8.588.44.392.66.924.66 1.596V236h-1.056v-1.26h-.012c-.048.424-.256.76-.624 1.008-.36.248-.828.372-1.404.372Zm.264-.852c.512 0 .932-.128 1.26-.384.328-.256.492-.584.492-.984v-.936h-2.016c-.36 0-.644.1-.852.3-.208.2-.312.472-.312.816 0 .368.124.66.372.876.256.208.608.312 1.056.312Zm8.467.732c-.584 0-1.052-.168-1.404-.504-.344-.344-.516-.796-.516-1.356v-5.916h-2.28v-.984h3.36v6.9c0 .272.076.488.228.648.152.152.356.228.612.228h2.04V236h-2.04Zm6.956 0c-.568 0-1.012-.152-1.332-.456-.312-.304-.468-.732-.468-1.284v-3.876h-1.86v-.984h1.86v-1.86h1.08v1.86h2.64v.984h-2.64v3.876c0 .504.24.756.72.756h1.8V236h-1.8Z"/>
  <path fill="var(--foreground-higher)" id="backspace" d="M697.605 28.12c-.496 0-.904-.12-1.224-.36-.32-.248-.508-.588-.564-1.02h-.012V28h-1.08v-8.76h1.08v1.92l-.024 1.5h.036c.056-.424.244-.76.564-1.008.32-.248.728-.372 1.224-.372.664 0 1.196.22 1.596.66.4.44.6 1.04.6 1.8v1.932c0 .752-.2 1.348-.6 1.788-.4.44-.932.66-1.596.66Zm-.36-.936c.456 0 .816-.136 1.08-.408.264-.272.396-.664.396-1.176v-1.8c0-.512-.132-.904-.396-1.176-.264-.272-.624-.408-1.08-.408-.44 0-.792.14-1.056.42-.256.28-.384.668-.384 1.164v1.8c0 .496.128.884.384 1.164.264.28.616.42 1.056.42Zm6.595.936c-.696 0-1.244-.176-1.644-.528-.4-.36-.6-.844-.6-1.452 0-.616.2-1.1.6-1.452.4-.352.94-.528 1.62-.528h2.04v-.66c0-.4-.124-.712-.372-.936-.24-.224-.584-.336-1.032-.336-.392 0-.716.084-.972.252a.982.982 0 0 0-.468.66h-1.08c.072-.568.34-1.02.804-1.356.464-.336 1.044-.504 1.74-.504.76 0 1.36.196 1.8.588.44.392.66.924.66 1.596V28h-1.056v-1.26h-.012c-.048.424-.256.76-.624 1.008-.36.248-.828.372-1.404.372Zm.264-.852c.512 0 .932-.128 1.26-.384.328-.256.492-.584.492-.984v-.936h-2.016c-.36 0-.644.1-.852.3-.208.2-.312.472-.312.816 0 .368.124.66.372.876.256.208.608.312 1.056.312Zm7.556.852c-.8 0-1.44-.224-1.92-.672-.472-.448-.708-1.064-.708-1.848v-1.8c0-.784.236-1.4.708-1.848.48-.448 1.12-.672 1.92-.672.76 0 1.372.204 1.836.612.464.408.708.964.732 1.668h-1.08c-.024-.424-.168-.748-.432-.972-.256-.232-.608-.348-1.056-.348-.472 0-.848.136-1.128.408-.28.264-.42.644-.42 1.14V25.6c0 .496.14.88.42 1.152.28.272.656.408 1.128.408.448 0 .8-.116 1.056-.348.264-.232.408-.556.432-.972h1.08c-.024.704-.268 1.26-.732 1.668-.464.408-1.076.612-1.836.612Zm4.687-.12v-8.76h1.08v4.884h1.272l1.92-2.724h1.236l-2.22 3.144L721.891 28h-1.26l-1.92-2.94h-1.284V28h-1.08Zm9.451.096c-.68 0-1.22-.152-1.62-.456-.4-.312-.632-.732-.696-1.26h1.08a.844.844 0 0 0 .384.552c.216.136.5.204.852.204h.504c.424 0 .74-.084.948-.252a.867.867 0 0 0 .312-.696c0-.544-.372-.876-1.116-.996l-.888-.144c-.648-.112-1.132-.312-1.452-.6-.312-.296-.468-.724-.468-1.284 0-.592.188-1.048.564-1.368.376-.328.94-.492 1.692-.492h.456c.632 0 1.14.148 1.524.444.384.296.616.696.696 1.2h-1.08a.768.768 0 0 0-.36-.492c-.192-.128-.452-.192-.78-.192h-.456c-.408 0-.708.076-.9.228-.184.152-.276.38-.276.684 0 .272.08.472.24.6.16.128.412.22.756.276l.888.144c.712.112 1.228.32 1.548.624.328.304.492.744.492 1.32 0 .608-.196 1.088-.588 1.44-.384.344-.968.516-1.752.516h-.504Zm4.904 2.064V21.4h1.08v1.26h.012c.056-.432.244-.768.564-1.008.328-.248.74-.372 1.236-.372.664 0 1.192.22 1.584.66.4.432.6 1.028.6 1.788v1.932c0 .76-.2 1.36-.6 1.8-.392.44-.92.66-1.584.66-.496 0-.904-.124-1.224-.372a1.509 1.509 0 0 1-.576-1.008h-.036l.024 1.5v1.92h-1.08Zm2.532-2.976c.456 0 .812-.136 1.068-.408.264-.272.396-.664.396-1.176v-1.8c0-.512-.132-.904-.396-1.176-.256-.272-.612-.408-1.068-.408-.44 0-.792.14-1.056.42-.264.28-.396.668-.396 1.164v1.8c0 .496.132.884.396 1.164.264.28.616.42 1.056.42Zm6.583.936c-.696 0-1.244-.176-1.644-.528-.4-.36-.6-.844-.6-1.452 0-.616.2-1.1.6-1.452.4-.352.94-.528 1.62-.528h2.04v-.66c0-.4-.124-.712-.372-.936-.24-.224-.584-.336-1.032-.336-.392 0-.716.084-.972.252a.982.982 0 0 0-.468.66h-1.08c.072-.568.34-1.02.804-1.356.464-.336 1.044-.504 1.74-.504.76 0 1.36.196 1.8.588.44.392.66.924.66 1.596V28h-1.056v-1.26h-.012c-.048.424-.256.76-.624 1.008-.36.248-.828.372-1.404.372Zm.264-.852c.512 0 .932-.128 1.26-.384.328-.256.492-.584.492-.984v-.936h-2.016c-.36 0-.644.1-.852.3-.208.2-.312.472-.312.816 0 .368.124.66.372.876.256.208.608.312 1.056.312Zm7.555.852c-.8 0-1.44-.224-1.92-.672-.472-.448-.708-1.064-.708-1.848v-1.8c0-.784.236-1.4.708-1.848.48-.448 1.12-.672 1.92-.672.76 0 1.372.204 1.836.612.464.408.708.964.732 1.668h-1.08c-.024-.424-.168-.748-.432-.972-.256-.232-.608-.348-1.056-.348-.472 0-.848.136-1.128.408-.28.264-.42.644-.42 1.14V25.6c0 .496.14.88.42 1.152.28.272.656.408 1.128.408.448 0 .8-.116 1.056-.348.264-.232.408-.556.432-.972h1.08c-.024.704-.268 1.26-.732 1.668-.464.408-1.076.612-1.836.612Zm7.148 0c-.52 0-.976-.104-1.368-.312a2.258 2.258 0 0 1-.9-.876c-.208-.384-.312-.828-.312-1.332v-1.8c0-.512.104-.956.312-1.332.216-.376.516-.668.9-.876.392-.208.848-.312 1.368-.312.52 0 .972.104 1.356.312.392.208.692.5.9.876.216.376.324.82.324 1.332v1.164h-4.104v.636c0 .52.132.92.396 1.2.264.272.64.408 1.128.408.416 0 .752-.072 1.008-.216a.953.953 0 0 0 .468-.672h1.08c-.072.552-.344.992-.816 1.32-.464.32-1.044.48-1.74.48Zm-1.524-3.972h3.048V23.8c0-.52-.132-.92-.396-1.2-.256-.28-.632-.42-1.128-.42-.488 0-.864.14-1.128.42-.264.28-.396.68-.396 1.2v.348Z"/>
  <path fill="var(--foreground-higher)" id="|" d="M738.462 81.32V70.04h1.08v11.28h-1.08Z"/>
  <path fill="var(--foreground-higher)" id="return" d="M696.746 132v-6.6h1.056v1.176c.216-.864.796-1.296 1.74-1.296.696 0 1.248.22 1.656.66.416.432.624 1.02.624 1.764v.396h-1.08v-.3c0-.52-.128-.916-.384-1.188-.248-.28-.604-.42-1.068-.42-.456 0-.816.14-1.08.42-.256.28-.384.676-.384 1.188v4.2h-1.08Zm9.463.12c-.52 0-.976-.104-1.368-.312a2.258 2.258 0 0 1-.9-.876c-.208-.384-.312-.828-.312-1.332v-1.8c0-.512.104-.956.312-1.332.216-.376.516-.668.9-.876.392-.208.848-.312 1.368-.312.52 0 .972.104 1.356.312.392.208.692.5.9.876.216.376.324.82.324 1.332v1.164h-4.104v.636c0 .52.132.92.396 1.2.264.272.64.408 1.128.408.416 0 .752-.072 1.008-.216a.953.953 0 0 0 .468-.672h1.08c-.072.552-.344.992-.816 1.32-.464.32-1.044.48-1.74.48Zm-1.524-3.972h3.048v-.348c0-.52-.132-.92-.396-1.2-.256-.28-.632-.42-1.128-.42-.488 0-.864.14-1.128.42-.264.28-.396.68-.396 1.2v.348Zm9.44 3.852c-.568 0-1.012-.152-1.332-.456-.312-.304-.468-.732-.468-1.284v-3.876h-1.86v-.984h1.86v-1.86h1.08v1.86h2.64v.984h-2.64v3.876c0 .504.24.756.72.756h1.8V132h-1.8Zm6.463.12c-.76 0-1.368-.224-1.824-.672-.456-.456-.684-1.072-.684-1.848v-4.2h1.08v4.2c0 .496.128.884.384 1.164.256.272.604.408 1.044.408.448 0 .8-.136 1.056-.408.264-.28.396-.668.396-1.164v-4.2h1.08v4.2c0 .776-.232 1.392-.696 1.848-.464.448-1.076.672-1.836.672Zm4.939-.12v-6.6h1.056v1.176c.216-.864.796-1.296 1.74-1.296.696 0 1.248.22 1.656.66.416.432.624 1.02.624 1.764v.396h-1.08v-.3c0-.52-.128-.916-.384-1.188-.248-.28-.604-.42-1.068-.42-.456 0-.816.14-1.08.42-.256.28-.384.676-.384 1.188v4.2h-1.08Zm6.968 0v-6.6h1.08v1.26h.012c.056-.44.236-.78.54-1.02.304-.24.708-.36 1.212-.36.664 0 1.192.204 1.584.612.392.408.588.964.588 1.668V132h-1.08v-4.32c0-.472-.128-.832-.384-1.08-.248-.256-.588-.384-1.02-.384-.448 0-.804.136-1.068.408-.256.272-.384.664-.384 1.176v4.2h-1.08Z"/>
  <path fill="var(--foreground-lower)" id="shift-dx" d="M690.408 184.096c-.68 0-1.22-.152-1.62-.456-.4-.312-.632-.732-.696-1.26h1.08a.844.844 0 0 0 .384.552c.216.136.5.204.852.204h.504c.424 0 .74-.084.948-.252a.867.867 0 0 0 .312-.696c0-.544-.372-.876-1.116-.996l-.888-.144c-.648-.112-1.132-.312-1.452-.6-.312-.296-.468-.724-.468-1.284 0-.592.188-1.048.564-1.368.376-.328.94-.492 1.692-.492h.456c.632 0 1.14.148 1.524.444.384.296.616.696.696 1.2h-1.08a.768.768 0 0 0-.36-.492c-.192-.128-.452-.192-.78-.192h-.456c-.408 0-.708.076-.9.228-.184.152-.276.38-.276.684 0 .272.08.472.24.6.16.128.412.22.756.276l.888.144c.712.112 1.228.32 1.548.624.328.304.492.744.492 1.32 0 .608-.196 1.088-.588 1.44-.384.344-.968.516-1.752.516h-.504Zm4.903-.096v-8.76h1.08v3.42h.012c.056-.44.236-.78.54-1.02.304-.24.708-.36 1.212-.36.664 0 1.192.204 1.584.612.392.408.588.964.588 1.668V184h-1.08v-4.32c0-.472-.128-.836-.384-1.092-.248-.264-.588-.396-1.02-.396-.448 0-.804.14-1.068.42-.256.28-.384.676-.384 1.188v4.2h-1.08Zm7.111 0v-.984h2.34v-4.632h-2.04v-.984h3.12v5.616h2.22V184h-5.64Zm2.76-7.788c-.264 0-.472-.068-.624-.204a.704.704 0 0 1-.228-.552c0-.24.076-.428.228-.564.152-.144.36-.216.624-.216s.472.072.624.216c.152.136.228.324.228.564a.704.704 0 0 1-.228.552c-.152.136-.36.204-.624.204Zm6.056 7.788v-4.956h-1.92v-.984h1.92v-1.14c0-.52.164-.928.492-1.224.328-.304.78-.456 1.356-.456h1.932v.984h-1.932c-.512 0-.768.232-.768.696v1.14h2.7v.984h-2.7V184h-1.08Zm8.875 0c-.568 0-1.012-.152-1.332-.456-.312-.304-.468-.732-.468-1.284v-3.876h-1.86v-.984h1.86v-1.86h1.08v1.86h2.64v.984h-2.64v3.876c0 .504.24.756.72.756h1.8V184h-1.8Z"/>
  <path fill="var(--foreground-higher)" id="alt-dx" d="M532.731 236.12c-.696 0-1.244-.176-1.644-.528-.4-.36-.6-.844-.6-1.452 0-.616.2-1.1.6-1.452.4-.352.94-.528 1.62-.528h2.04v-.66c0-.4-.124-.712-.372-.936-.24-.224-.584-.336-1.032-.336-.392 0-.716.084-.972.252a.982.982 0 0 0-.468.66h-1.08c.072-.568.34-1.02.804-1.356.464-.336 1.044-.504 1.74-.504.76 0 1.36.196 1.8.588.44.392.66.924.66 1.596V236h-1.056v-1.26h-.012c-.048.424-.256.76-.624 1.008-.36.248-.828.372-1.404.372Zm.264-.852c.512 0 .932-.128 1.26-.384.328-.256.492-.584.492-.984v-.936h-2.016c-.36 0-.644.1-.852.3-.208.2-.312.472-.312.816 0 .368.124.66.372.876.256.208.608.312 1.056.312Zm8.467.732c-.584 0-1.052-.168-1.404-.504-.344-.344-.516-.796-.516-1.356v-5.916h-2.28v-.984h3.36v6.9c0 .272.076.488.228.648.152.152.356.228.612.228h2.04V236h-2.04Zm6.956 0c-.568 0-1.012-.152-1.332-.456-.312-.304-.468-.732-.468-1.284v-3.876h-1.86v-.984h1.86v-1.86h1.08v1.86h2.64v.984h-2.64v3.876c0 .504.24.756.72.756h1.8V236h-1.8Z"/>
  <path fill="var(--foreground-higher)" id="os-dx" d="M602.405 236.096c-.8 0-1.432-.224-1.896-.672-.456-.456-.684-1.072-.684-1.848v-1.752c0-.784.228-1.4.684-1.848.464-.448 1.096-.672 1.896-.672.8 0 1.428.224 1.884.672.464.448.696 1.06.696 1.836v1.764c0 .776-.232 1.392-.696 1.848-.456.448-1.084.672-1.884.672Zm0-.96c.472 0 .84-.132 1.104-.396.264-.264.396-.652.396-1.164v-1.752c0-.512-.132-.9-.396-1.164-.264-.264-.632-.396-1.104-.396-.464 0-.832.132-1.104.396-.264.264-.396.652-.396 1.164v1.752c0 .512.132.9.396 1.164.272.264.64.396 1.104.396Zm6.991.96c-.68 0-1.22-.152-1.62-.456-.4-.312-.632-.732-.696-1.26h1.08a.844.844 0 0 0 .384.552c.216.136.5.204.852.204h.504c.424 0 .74-.084.948-.252a.867.867 0 0 0 .312-.696c0-.544-.372-.876-1.116-.996l-.888-.144c-.648-.112-1.132-.312-1.452-.6-.312-.296-.468-.724-.468-1.284 0-.592.188-1.048.564-1.368.376-.328.94-.492 1.692-.492h.456c.632 0 1.14.148 1.524.444.384.296.616.696.696 1.2h-1.08a.768.768 0 0 0-.36-.492c-.192-.128-.452-.192-.78-.192h-.456c-.408 0-.708.076-.9.228-.184.152-.276.38-.276.684 0 .272.08.472.24.6.16.128.412.22.756.276l.888.144c.712.112 1.228.32 1.548.624.328.304.492.744.492 1.32 0 .608-.196 1.088-.588 1.44-.384.344-.968.516-1.752.516h-.504Z"/>
  <path fill="var(--foreground-higher)" id="menu" d="M644.401 236v-6.6h.948v.792h.072c.048-.28.164-.5.348-.66.192-.168.432-.252.72-.252.568 0 .928.304 1.08.912h.048c.048-.28.168-.5.36-.66a1.1 1.1 0 0 1 .732-.252c.416 0 .736.156.96.468.232.312.348.724.348 1.236V236h-.996v-5.028c0-.272-.06-.484-.18-.636-.112-.152-.28-.228-.504-.228a.64.64 0 0 0-.516.228c-.12.144-.18.352-.18.624V236h-.864v-5.028c0-.28-.064-.492-.192-.636-.12-.152-.292-.228-.516-.228-.224 0-.392.076-.504.228-.112.144-.168.352-.168.624V236h-.996Zm10.004.12c-.52 0-.976-.104-1.368-.312a2.258 2.258 0 0 1-.9-.876c-.208-.384-.312-.828-.312-1.332v-1.8c0-.512.104-.956.312-1.332.216-.376.516-.668.9-.876.392-.208.848-.312 1.368-.312.52 0 .972.104 1.356.312.392.208.692.5.9.876.216.376.324.82.324 1.332v1.164h-4.104v.636c0 .52.132.92.396 1.2.264.272.64.408 1.128.408.416 0 .752-.072 1.008-.216a.953.953 0 0 0 .468-.672h1.08c-.072.552-.344.992-.816 1.32-.464.32-1.044.48-1.74.48Zm-1.524-3.972h3.048v-.348c0-.52-.132-.92-.396-1.2-.256-.28-.632-.42-1.128-.42-.488 0-.864.14-1.128.42-.264.28-.396.68-.396 1.2v.348Zm6.223 3.852v-6.6h1.08v1.26h.012c.056-.44.236-.78.54-1.02.304-.24.708-.36 1.212-.36.664 0 1.192.204 1.584.612.392.408.588.964.588 1.668V236h-1.08v-4.32c0-.472-.128-.832-.384-1.08-.248-.256-.588-.384-1.02-.384-.448 0-.804.136-1.068.408-.256.272-.384.664-.384 1.176v4.2h-1.08Zm9.679.12c-.76 0-1.368-.224-1.824-.672-.456-.456-.684-1.072-.684-1.848v-4.2h1.08v4.2c0 .496.128.884.384 1.164.256.272.604.408 1.044.408.448 0 .8-.136 1.056-.408.264-.28.396-.668.396-1.164v-4.2h1.08v4.2c0 .776-.232 1.392-.696 1.848-.464.448-1.076.672-1.836.672Z"/>
  <path fill="var(--foreground-higher)" id="control-dx" d="M709.464 236.12c-.8 0-1.44-.224-1.92-.672-.472-.448-.708-1.064-.708-1.848v-1.8c0-.784.236-1.4.708-1.848.48-.448 1.12-.672 1.92-.672.76 0 1.372.204 1.836.612.464.408.708.964.732 1.668h-1.08c-.024-.424-.168-.748-.432-.972-.256-.232-.608-.348-1.056-.348-.472 0-.848.136-1.128.408-.28.264-.42.644-.42 1.14v1.812c0 .496.14.88.42 1.152.28.272.656.408 1.128.408.448 0 .8-.116 1.056-.348.264-.232.408-.556.432-.972h1.08c-.024.704-.268 1.26-.732 1.668-.464.408-1.076.612-1.836.612Zm7.148-.024c-.8 0-1.432-.224-1.896-.672-.456-.456-.684-1.072-.684-1.848v-1.752c0-.784.228-1.4.684-1.848.464-.448 1.096-.672 1.896-.672.8 0 1.428.224 1.884.672.464.448.696 1.06.696 1.836v1.764c0 .776-.232 1.392-.696 1.848-.456.448-1.084.672-1.884.672Zm0-.96c.472 0 .84-.132 1.104-.396.264-.264.396-.652.396-1.164v-1.752c0-.512-.132-.9-.396-1.164-.264-.264-.632-.396-1.104-.396-.464 0-.832.132-1.104.396-.264.264-.396.652-.396 1.164v1.752c0 .512.132.9.396 1.164.272.264.64.396 1.104.396Zm4.699.864v-6.6h1.08v1.26h.012c.056-.44.236-.78.54-1.02.304-.24.708-.36 1.212-.36.664 0 1.192.204 1.584.612.392.408.588.964.588 1.668V236h-1.08v-4.32c0-.472-.128-.832-.384-1.08-.248-.256-.588-.384-1.02-.384-.448 0-.804.136-1.068.408-.256.272-.384.664-.384 1.176v4.2h-1.08Zm10.411 0c-.568 0-1.012-.152-1.332-.456-.312-.304-.468-.732-.468-1.284v-3.876h-1.86v-.984h1.86v-1.86h1.08v1.86h2.64v.984h-2.64v3.876c0 .504.24.756.72.756h1.8V236h-1.8Zm4.208 0v-6.6h1.056v1.176c.216-.864.796-1.296 1.74-1.296.696 0 1.248.22 1.656.66.416.432.624 1.02.624 1.764v.396h-1.08v-.3c0-.52-.128-.916-.384-1.188-.248-.28-.604-.42-1.068-.42-.456 0-.816.14-1.08.42-.256.28-.384.676-.384 1.188v4.2h-1.08Zm9.463.096c-.8 0-1.432-.224-1.896-.672-.456-.456-.684-1.072-.684-1.848v-1.752c0-.784.228-1.4.684-1.848.464-.448 1.096-.672 1.896-.672.8 0 1.428.224 1.884.672.464.448.696 1.06.696 1.836v1.764c0 .776-.232 1.392-.696 1.848-.456.448-1.084.672-1.884.672Zm0-.96c.472 0 .84-.132 1.104-.396.264-.264.396-.652.396-1.164v-1.752c0-.512-.132-.9-.396-1.164-.264-.264-.632-.396-1.104-.396-.464 0-.832.132-1.104.396-.264.264-.396.652-.396 1.164v1.752c0 .512.132.9.396 1.164.272.264.64.396 1.104.396Zm8.155.864c-.584 0-1.052-.168-1.404-.504-.344-.344-.516-.796-.516-1.356v-5.916h-2.28v-.984h3.36v6.9c0 .272.076.488.228.648.152.152.356.228.612.228h2.04V236h-2.04Z"/>
</svg>
